<?xml version="1.0" encoding="utf-8"?>
<!-- Generator: Adobe Illustrator 16.0.0, SVG Export Plug-In . SVG Version: 6.00 Build 0)  -->
<!DOCTYPE svg PUBLIC "-//W3C//DTD SVG 1.1//EN" "http://www.w3.org/Graphics/SVG/1.1/DTD/svg11.dtd">
<svg version="1.1" id="Layer_1" xmlns="http://www.w3.org/2000/svg" xmlns:xlink="http://www.w3.org/1999/xlink" x="0px" y="0px"
	 width="141px" height="574px" viewBox="0 0 141 574" enable-background="new 0 0 141 574" xml:space="preserve">
<g>
	<g>
		<rect x="68.293" y="182.731" fill="#11A95A" width="5.224" height="19.265"/>
		<path fill="#11A95A" d="M78.782,196.211l-7.453,5.443l-7.818-5.443c0.148,0.091,4.556,16.385,7.71,16.468
			C74.71,212.772,78.782,196.211,78.782,196.211"/>
	</g>
	<g>
		<rect x="68.293" y="361.283" fill="#11A95A" width="5.224" height="19.266"/>
		<path fill="#11A95A" d="M78.782,374.764l-7.453,5.444l-7.818-5.444c0.148,0.091,4.556,16.386,7.71,16.469
			C74.71,391.326,78.782,374.764,78.782,374.764"/>
	</g>
	<g>
		<g>
			<circle fill="#11A95A" cx="71.147" cy="94.285" r="52.484"/>
			<path fill="#FFFFFF" d="M51.712,73.896c0,0,0.133-1.018,2.084-0.715c0,0,1.462,0.336,1.548-1.183c0,0-0.056-1.465-1.75-2.441
				c0,0-3.236-1.914-2.137-5.201c0,0,1.002-2.282,3.079-1.251c0,0,1.377,0.718,2.043,1.256c0,0-3.226-5.288-0.833-8.568
				c0,0,1.726-2.026,4.232-1.425c0,0,2.395,0.744,2.301,3.24c0,0-0.621,2.764-0.046,3.455c0,0,0.56,0.515,1.272-0.051
				c0,0,1.659-1.506,3.13,0.066c0,0,1.965,1.964,0.655,4.824c0,0-0.761,1.692-1.609,2.031c0,0-0.874,0.182-0.23,1.046
				c0,0,0.567,0.706,1.505-0.208c0.002,0.048,1.656-1.602,2.204,0.534c0,0,1.154,3.828-2.297,4.837c0,0-3.381,0.586-3.652,1.782
				c0,0-0.56,2.623-0.143,4.465l0.829,4.972l-1.354-0.035c0,0-0.565-6.722-3.241-7.163C59.301,78.164,50.99,76.243,51.712,73.896z"
				/>
			<path fill="#FFFFFF" d="M58.935,111.3c0,0,7.013-5.322,1.128-17.793c0,0-4.05-7.864-10.443-7.186c0,0-4.69,1.664-6.451,0.068
				c0,0-2.083-1.58-3.055-0.65c0,0-0.436,0.391-0.211,1.311c0.104,0.422,0.77,1.509,0.833,2.123c0,0,0.494,1.559-1.319,4.334
				c0,0-4.163,4.694,1.751,12.712C41.166,106.219,47.805,118.396,58.935,111.3z"/>
			<g>
				<g>
					<path fill="#FFFFFF" d="M64.746,128.107c-3.509,0-7.576-1.989-12.09-5.913c-0.203-0.175-0.302-0.444-0.263-0.709
						c0.039-0.268,0.213-0.494,0.458-0.604l22.86-10.193c0.255-0.115,0.556-0.083,0.782,0.083c0.229,0.166,0.352,0.44,0.321,0.72
						C76.741,112.169,74.917,128.107,64.746,128.107z M54.637,121.81c3.83,3.135,7.226,4.722,10.108,4.722
						c7.172,0,9.628-10.064,10.292-13.819L54.637,121.81z"/>
				</g>
				<g>
					<path fill="#FFFFFF" d="M63.062,122.72c-0.024,0-0.048-0.001-0.075-0.006c-0.287-0.039-0.484-0.305-0.445-0.592l0.389-2.742
						c0.039-0.288,0.306-0.487,0.591-0.447c0.288,0.041,0.488,0.306,0.447,0.592l-0.388,2.744
						C63.544,122.532,63.321,122.72,63.062,122.72z"/>
				</g>
				<g>
					<path fill="#FFFFFF" d="M66.981,121.863c-0.146,0-0.292-0.061-0.397-0.182l-1.811-2.092c-0.191-0.219-0.169-0.551,0.053-0.741
						c0.219-0.191,0.549-0.167,0.739,0.053l1.814,2.093c0.189,0.219,0.166,0.552-0.053,0.741
						C67.228,121.822,67.103,121.863,66.981,121.863z"/>
				</g>
				<g>
					<path fill="#FFFFFF" d="M69.453,118.967c-0.063,0-0.13-0.011-0.191-0.037l-2.579-1.01c-0.271-0.107-0.403-0.411-0.297-0.681
						c0.105-0.27,0.41-0.403,0.679-0.296l2.581,1.009c0.268,0.105,0.401,0.41,0.295,0.68
						C69.859,118.839,69.663,118.967,69.453,118.967z"/>
				</g>
			</g>
			<path fill="#FFFFFF" d="M101.328,112.425l2.512-0.641c0,0,0.269-0.324-0.152-0.346l-2.229,0.438c0,0-0.946-0.831-2.489-1.324
				c0.543-0.43,1.444-1.278,1.314-2.056l1.708-1.068c0,0,0.127-0.303-0.193-0.221l-1.547,0.852c0,0-1.552-0.677-3.433-0.256
				c0.318-0.537,0.625-1.184,0.895-1.976c0,0,0.539-2.194-0.343-2.876l0.53-1.943c0,0-0.114-0.306-0.292-0.032l-0.561,1.677
				c0,0-2.812,0.974-3.531,4.043c-0.093-0.389-0.205-0.799-0.364-1.243c0,0-0.939-2.055-2.054-2.041l-0.796-1.853
				c0,0-0.278-0.168-0.246,0.157l0.604,1.661c0,0-0.642,1.009-0.769,2.472c-0.682-0.602-1.718-1.33-2.56-1.073l-1.643-2.002
				c0,0-0.409-0.108-0.251,0.282l1.339,1.834c0,0-0.492,1.7,0.033,3.742c-0.79-0.3-2.073-0.651-2.759-0.093l-2.115-1.147
				c0,0-0.388,0.05-0.114,0.33l1.793,1.11c0,0,0.572,5.51,6.857,6.027c-0.313,0.644-0.622,1.322-0.913,2.01
				c-0.72,1.713-1.327,3.476-1.676,4.842c-0.186,0.68-0.303,1.259-0.378,1.668c-0.079,0.408-0.104,0.649-0.104,0.649
				s0.151-0.188,0.391-0.528c0.241-0.341,0.571-0.831,0.927-1.438c0.735-1.204,1.568-2.87,2.293-4.582
				c0.303-0.725,0.585-1.455,0.837-2.161c0.77,0.951,2.377,2.183,5.667,2.611c0,0,2.766,0.122,3.373-1.104l2.46,0.166
				c0,0,0.343-0.211-0.032-0.357l-2.147-0.268c0,0-0.653-1.108-1.992-2.036C100.019,113.98,101.199,113.332,101.328,112.425z"/>
			<path fill="#FFFFFF" d="M107,73.798c-0.35-3.166-2.952-2.5-2.952-2.5c-5.447,1.097-4.046-1.02-4.046-1.02
				c4.052-3.923,2.879-5.575,2.879-5.575c-3.429-5.247-6.974,3.042-6.974,3.042c-2.922,6.636-5.063,8.188-5.063,8.188
				c-4.669,4.009-3.715-0.204-3.715-0.204c6.548-6.471,4.194-8.221,4.194-8.221c-2.61-2.552-4.179,1.716-4.179,1.716
				c-0.729-0.848,0.276-2.598,0.276-2.598c1.823-3.941-1.745-4.226-1.745-4.226c-3.146-0.548-2.229,8.527-2.229,8.527
				c-1.367-5.721-5.457-4.459-5.457-4.459c-3.344,0.834,0.603,5.679,0.603,5.679c3.833,3.928,1.323,8.14,0.014,9.826
				c0.148,0.118,0.306,0.24,0.46,0.371c0.17,0.142,0.338,0.292,0.531,0.424c0.188,0.135,0.373,0.282,0.555,0.427
				c0.178,0.157,0.376,0.286,0.567,0.423c0.191,0.134,0.373,0.274,0.553,0.413c0.18,0.133,0.334,0.292,0.51,0.404
				c0.17,0.119,0.326,0.241,0.472,0.354c0.579,0.451,0.937,0.841,0.937,0.841s-0.507-0.07-1.227-0.312
				c-0.182-0.059-0.376-0.124-0.579-0.203c-0.205-0.067-0.398-0.189-0.61-0.296c-0.209-0.113-0.422-0.234-0.636-0.363
				c-0.215-0.125-0.427-0.261-0.624-0.427c-0.195-0.162-0.391-0.323-0.579-0.49c-0.196-0.156-0.359-0.345-0.517-0.53
				c-0.121-0.142-0.229-0.277-0.336-0.415c-0.085,0.092-0.132,0.14-0.132,0.14c-0.239,0.233-0.465,0.464-0.678,0.692
				c0.108,0.084,0.217,0.167,0.324,0.26c0.167,0.143,0.337,0.292,0.532,0.423c0.188,0.136,0.371,0.283,0.556,0.427
				c0.176,0.158,0.373,0.287,0.566,0.423c0.191,0.134,0.373,0.274,0.551,0.412c0.181,0.133,0.336,0.292,0.512,0.403
				c0.17,0.12,0.326,0.243,0.47,0.356c0.579,0.45,0.938,0.839,0.938,0.839s-0.51-0.069-1.227-0.311
				c-0.182-0.059-0.375-0.125-0.579-0.202c-0.206-0.068-0.402-0.191-0.611-0.298c-0.208-0.114-0.421-0.232-0.635-0.363
				c-0.215-0.125-0.426-0.261-0.624-0.427c-0.195-0.162-0.391-0.322-0.578-0.488c-0.197-0.158-0.362-0.346-0.521-0.532
				c-0.085-0.103-0.16-0.2-0.239-0.298c-0.276,0.315-0.527,0.627-0.764,0.933c0.064,0.06,0.132,0.124,0.206,0.187
				c0.137,0.119,0.281,0.244,0.425,0.382c0.161,0.126,0.331,0.257,0.499,0.399c0.165,0.142,0.336,0.29,0.528,0.423
				c0.188,0.135,0.372,0.282,0.557,0.428c0.176,0.157,0.378,0.286,0.567,0.421c0.19,0.135,0.375,0.276,0.551,0.414
				c0.181,0.133,0.338,0.29,0.512,0.403c0.169,0.12,0.326,0.242,0.471,0.355c0.579,0.451,0.938,0.842,0.938,0.842
				s-0.511-0.072-1.227-0.311c-0.182-0.061-0.376-0.125-0.579-0.202c-0.207-0.07-0.4-0.191-0.611-0.299
				c-0.206-0.114-0.421-0.233-0.633-0.362c-0.217-0.125-0.429-0.262-0.625-0.427c-0.196-0.163-0.396-0.325-0.581-0.491
				c-0.197-0.156-0.361-0.346-0.516-0.532c-0.158-0.183-0.308-0.362-0.438-0.54c-0.12-0.19-0.223-0.375-0.316-0.544
				c-0.021-0.035-0.037-0.073-0.055-0.11c-4.396,6.11-1.181,10.216-1.181,10.216c7.202,8.255,11.32-5.966,11.32-5.966
				c0.927-4.591,7.118-0.474,7.118-0.474c8.064,4.765,6.131-3.94,6.131-3.94c-0.845-3.688-5.31-1.413-5.31-1.413
				c-4.663,2.103-1.333-3.613-1.333-3.613c2.463-3.444,4.533-0.133,4.533-0.133c2.813,4.615,5.018,1.062,4.059-0.943
				c-1.399-3.81,0.788-3.333,0.788-3.333C107.545,77.233,107,73.798,107,73.798z"/>
		</g>
		<text transform="matrix(1 0 0 1 26.3682 166.9243)" font-family="'NotoSansKR-Bold-KSCpc-EUC-H'" font-size="9.447">다이어트는 지속됩니다</text>
	</g>
	<g>
		<g>
			<circle fill="#11A95A" cx="71.146" cy="275.458" r="52.483"/>
			<g>
				<path fill="#FFFFFF" d="M49.436,249.797c0,0-2.208,11.627,5.724,13.043c0.309,0.451,1.293,1.101,1.476,3.981
					c0,0,2.622,29.496,7.734,28.588c0,0,4.751,1.401,3.394-5.009l-6.422-24.4c0,0-0.421-3.003,0.252-3.833
					c0,0,3.846-2.87,3.084-6.488c0,0-2.271-6.732-3.906-8.449c0,0-3.56-0.792-3.145,1.181l2.754,8.004c0,0-1.691,1.043-2.283-1.751
					l-1.452-5.875c0,0-2.62-2.365-3.485,0.564l1.362,8.469c0,0-1.147,0.587-1.423-0.728l-1.326-7.276
					C51.774,249.819,50.75,247.973,49.436,249.797z"/>
				<path fill="#FFFFFF" d="M92.535,259.566c0,0-6.023,1.058-9.157,6.229c0,0-11.171,15.55-4.208,18.282c0,0,0.304,1.264-1.1,3.48
					c0,0-9.438,15.178-6.412,17.704c0,0,2.106,2.828,2.718,0.589C74.376,305.85,97.653,258.809,92.535,259.566z"/>
				<g>
					<path fill="#FFFFFF" d="M34.921,283.748c1.558,12.811,11.375,23.659,23.479,27.412c1.433,0.445,2.583-1.62,0.949-2.128
						c-11.352-3.522-20.394-13.798-21.847-25.765C37.326,281.818,34.745,282.295,34.921,283.748L34.921,283.748z"/>
				</g>
				<g>
					<path fill="#FFFFFF" d="M107.83,268.13c-1.155-12.865-10.653-23.977-22.631-28.11c-1.424-0.49-2.565,1.574-0.952,2.128
						c11.238,3.878,19.925,14.467,21.003,26.463C105.381,270.058,107.96,269.585,107.83,268.13L107.83,268.13z"/>
				</g>
				<path fill="#FFFFFF" d="M71.146,321.991c-25.658,0-46.532-20.874-46.532-46.533c0-25.657,20.874-46.531,46.532-46.531
					s46.533,20.875,46.533,46.531C117.68,301.117,96.805,321.991,71.146,321.991z M71.146,232.949
					c-23.44,0-42.511,19.069-42.511,42.509c0,23.442,19.071,42.512,42.511,42.512c23.441,0,42.512-19.069,42.512-42.512
					C113.658,252.018,94.588,232.949,71.146,232.949z"/>
			</g>
		</g>
		<text transform="matrix(1 0 0 1 10.7231 347.2227)" font-family="'NotoSansKR-Bold-KSCpc-EUC-H'" font-size="9.447">다이어트푸드 전문점, 비오키친</text>
	</g>
	<g>
		<g>
			<path fill="#11A95A" d="M123.631,453.137c0,28.985-23.496,52.483-52.482,52.483c-28.989,0-52.485-23.498-52.485-52.483
				c0-28.987,23.496-52.483,52.485-52.483C100.135,400.653,123.631,424.149,123.631,453.137z"/>
			<g>
				<g>
					<path fill="#FFFFFF" d="M71.148,499.126c-25.36,0-45.993-20.631-45.993-45.989c0-25.359,20.632-45.991,45.993-45.991
						c25.357,0,45.99,20.632,45.99,45.991C117.139,478.495,96.506,499.126,71.148,499.126z M71.148,411.121
						c-23.17,0-42.018,18.847-42.018,42.016c0,23.168,18.847,42.016,42.018,42.016c23.166,0,42.016-18.848,42.016-42.016
						C113.164,429.968,94.314,411.121,71.148,411.121z"/>
				</g>
				<g>
					<path fill="#FFFFFF" d="M92.24,453.34c-0.056,0.04-0.113,0.08-0.158,0.132c-0.156-0.019-0.324-0.007-0.5-0.023
						c-4.179-0.476-5.968,1.666-10.383,6.897c-0.171,0.202-0.257,0.47-0.228,0.732l0.005,0.048c0.038,0.234,0.154,0.45,0.337,0.605
						c0.42,0.35,1.039,0.3,1.388-0.121c3.943-4.669,4.522-6.008,7.05-4.898c-4.816,3.975-5.778,6.618-5.9,6.832
						c-0.107,0.176-0.151,0.383-0.127,0.591c0.048,0.348,0.224,0.603,0.479,0.753c0.229,0.133,0.493,0.171,0.746,0.105
						c0.257-0.068,0.47-0.234,0.601-0.456c0.035-0.061,0.876-2.075,6.081-6.684c0.304,0.149,0.806,0.527,0.898,0.604
						c-1.424,4.503-5.161,7.533-5.225,7.597c-0.221,0.212-0.325,0.509-0.294,0.808c0.034,0.249,0.129,0.435,0.275,0.588
						c0.181,0.185,0.427,0.289,0.689,0.296c0.263,0,0.514-0.096,0.701-0.28c0.229-0.222,3.479-3.042,5.805-7.635
						c0.107,0.006,0.267,0.15,0.329,0.275c1.653,3.337-4.106,8.222-4.167,8.273c-0.262,0.209-0.399,0.538-0.367,0.872
						c0.019,0.186,0.092,0.362,0.208,0.507c0.338,0.433,0.957,0.499,1.379,0.157c0.299-0.231,5.687-4.8,5.035-11.052
						c-0.054-0.528-0.162-1.051-0.323-1.555c0.939-1.058,10.144-12.021,15.506-18.11c-0.541-1.787-1.201-2.924-1.956-4.607
						C104.981,440.337,93.253,452.656,92.24,453.34z"/>
					<path fill="#FFFFFF" d="M84.938,473.215l3.106-1.917c0,0-11.86-5.361-10.997-10.793c0,0,1.687-17.264-2.921-17.503
						c0,0-1.89-0.448-2.549,3.495c0,0-0.3,3.04-3.048,2.153c0,0-2.563-1.126-3.258-5.046c0,0-1.41-7.523-7.926-7.695
						c0,0-4.657,0.344-4.106,5.034c0,0,0.428,3.139,0.979,4.79c0,0-7.405-9.842-14.698-7.532c0,0-4.656,1.907-5.125,7.133
						c0,0-0.151,5.105,4.339,6.65c0,0,5.286,0.723,6.158,2.303c0,0,0.572,1.428-0.87,2.397c0,0-3.688,2.141-1.799,6.052
						c0,0,2.284,5.127,8.161,4.59c0,0,3.47-0.288,4.588-1.679c0,0,0.86-1.546,2,0.281c0,0,0.914,1.576-1.293,2.744
						c0.083,0.037-3.859,2.065-0.397,4.592c0,0,6.083,4.856,9.987-1.054c0,0,3.115-6.073,5.404-5.769c0,0,4.999,0.747,8.01,2.818
						L84.938,473.215z M63.836,448.909c0.483-0.116,1.038,0.499,1.237,1.368c0.198,0.87-0.031,1.665-0.516,1.778
						c-0.483,0.112-1.036-0.504-1.237-1.372C63.125,449.813,63.357,449.018,63.836,448.909z M53.62,452.606
						c-0.483,0.112-1.034-0.499-1.234-1.369c-0.2-0.869,0.032-1.667,0.514-1.776c0.483-0.109,1.034,0.5,1.237,1.377
						C54.333,451.703,54.103,452.498,53.62,452.606z M66.42,458.742c-0.079,0.312-0.278,0.656-0.302,0.696l-0.012,0.016l-0.014,0.02
						c-0.85,1.093-3.349,1.29-3.604,1.309c-0.371,0.053-0.801,0.079-1.27,0.072c-1.026-0.011-1.898-0.157-1.94-0.168
						c-2.989-0.563-5.001-4.222-5.086-4.378l-0.06-0.109l0.027-0.123c0.111-0.527,0.499-0.564,0.618-0.563
						c0.246,0.002,0.462,0.155,0.503,0.181l0.053,0.048l0.038,0.059c0.358,0.63,1.26,1.684,1.27,1.694
						c1.051,1.253,2.58,1.896,4.538,1.916c1.797,0.021,3.306-0.514,3.313-0.514c1.268-0.593,0.323-2.963,0.312-2.992
						c-0.049-0.135-0.205-0.533,0.007-0.847c0.118-0.165,0.314-0.258,0.562-0.255c0.121,0,0.22,0.025,0.242,0.032l0.179,0.047
						l0.053,0.176C66.692,457.705,66.447,458.659,66.42,458.742z"/>
					<path fill="#FFFFFF" d="M84.227,451.861c0.026,0.062,0.076,0.113,0.135,0.139c0.022,0.008,0.041,0.014,0.063,0.017
						c0.027,0.005,2.655,0.474,4.195-2.504c0.041-0.083,0.033-0.181-0.011-0.264c-0.048-0.078-0.138-0.127-0.23-0.127
						c-0.112,0-2.66-0.01-4.142,2.494C84.192,451.691,84.186,451.784,84.227,451.861z"/>
					<path fill="#FFFFFF" d="M82.188,452.76c0.063,0.038,0.143,0.047,0.218,0.028c0.112-0.029,0.197-0.121,0.214-0.239
						c0.063-0.41,0.207-1.413,0.522-1.895c0.022-0.034,2.693-3.554-0.208-8.1c-0.055-0.09-0.155-0.142-0.258-0.135
						c-0.106,0.01-0.201,0.067-0.247,0.161c-0.009,0.016-0.732,1.216-1.193,2.174c-0.017,0.044-2.097,4.068,0.865,7.93
						C82.128,452.713,82.155,452.741,82.188,452.76z"/>
				</g>
			</g>
		</g>
		<text transform="matrix(1 0 0 1 26.3672 525.7744)" font-family="'NotoSansKR-Bold-KSCpc-EUC-H'" font-size="9.447">비오키친은 지속됩니다</text>
	</g>
</g>
</svg>
