<?xml version="1.0" encoding="utf-8"?>
<!-- Generator: Adobe Illustrator 16.0.0, SVG Export Plug-In . SVG Version: 6.00 Build 0)  -->
<!DOCTYPE svg PUBLIC "-//W3C//DTD SVG 1.1//EN" "http://www.w3.org/Graphics/SVG/1.1/DTD/svg11.dtd">
<svg version="1.1" id="Layer_1" xmlns="http://www.w3.org/2000/svg" xmlns:xlink="http://www.w3.org/1999/xlink" x="0px" y="0px"
	 width="141px" height="574px" viewBox="0 0 141 574" enable-background="new 0 0 141 574" xml:space="preserve">
<g>
	<rect x="68.293" y="182.731" fill="#11A95A" width="5.225" height="19.265"/>
	<path fill="#11A95A" d="M78.782,196.211l-7.453,5.443l-7.818-5.443c0.148,0.091,4.556,16.385,7.709,16.468
		C74.71,212.772,78.782,196.211,78.782,196.211"/>
</g>
<g>
	<rect x="68.293" y="361.283" fill="#11A95A" width="5.225" height="19.266"/>
	<path fill="#11A95A" d="M78.782,374.764l-7.453,5.444l-7.818-5.444c0.148,0.092,4.556,16.387,7.709,16.469
		C74.71,391.326,78.782,374.764,78.782,374.764"/>
</g>
<g>
	<circle fill="#11A95A" cx="71.146" cy="94.285" r="52.484"/>
	<path fill="#FFFFFF" d="M51.712,73.896c0,0,0.133-1.018,2.084-0.715c0,0,1.462,0.336,1.548-1.183c0,0-0.056-1.465-1.75-2.441
		c0,0-3.236-1.914-2.137-5.201c0,0,1.002-2.282,3.079-1.251c0,0,1.377,0.718,2.043,1.256c0,0-3.226-5.288-0.833-8.568
		c0,0,1.726-2.026,4.232-1.425c0,0,2.395,0.744,2.301,3.24c0,0-0.621,2.764-0.046,3.455c0,0,0.56,0.515,1.272-0.051
		c0,0,1.659-1.506,3.13,0.066c0,0,1.965,1.964,0.655,4.824c0,0-0.761,1.692-1.609,2.031c0,0-0.874,0.182-0.23,1.046
		c0,0,0.567,0.706,1.505-0.208c0.002,0.048,1.656-1.602,2.204,0.534c0,0,1.154,3.828-2.297,4.837c0,0-3.381,0.586-3.652,1.782
		c0,0-0.56,2.623-0.143,4.465l0.829,4.972l-1.354-0.035c0,0-0.565-6.722-3.241-7.163C59.301,78.164,50.99,76.243,51.712,73.896z"/>
	<path fill="#FFFFFF" d="M58.935,111.3c0,0,7.013-5.322,1.128-17.793c0,0-4.05-7.864-10.443-7.186c0,0-4.69,1.664-6.451,0.068
		c0,0-2.083-1.58-3.055-0.65c0,0-0.436,0.391-0.211,1.311c0.104,0.422,0.77,1.509,0.833,2.123c0,0,0.494,1.559-1.319,4.334
		c0,0-4.163,4.694,1.751,12.712C41.166,106.219,47.805,118.396,58.935,111.3z"/>
	<g>
		<g>
			<path fill="#FFFFFF" d="M64.746,128.107c-3.509,0-7.576-1.989-12.09-5.913c-0.203-0.175-0.302-0.444-0.263-0.709
				c0.039-0.268,0.213-0.494,0.458-0.604l22.86-10.193c0.255-0.115,0.557-0.083,0.782,0.083c0.229,0.166,0.353,0.44,0.321,0.72
				C76.741,112.169,74.917,128.107,64.746,128.107z M54.637,121.81c3.83,3.135,7.226,4.722,10.108,4.722
				c7.172,0,9.628-10.064,10.292-13.819L54.637,121.81z"/>
		</g>
		<g>
			<path fill="#FFFFFF" d="M63.062,122.72c-0.024,0-0.048-0.001-0.075-0.006c-0.287-0.039-0.484-0.305-0.445-0.592l0.389-2.742
				c0.039-0.288,0.306-0.487,0.591-0.447c0.288,0.041,0.488,0.306,0.447,0.592l-0.388,2.744
				C63.544,122.532,63.321,122.72,63.062,122.72z"/>
		</g>
		<g>
			<path fill="#FFFFFF" d="M66.981,121.863c-0.146,0-0.292-0.061-0.397-0.182l-1.811-2.092c-0.191-0.219-0.169-0.551,0.053-0.741
				c0.219-0.191,0.549-0.167,0.739,0.053l1.814,2.093c0.189,0.219,0.166,0.552-0.053,0.741
				C67.228,121.822,67.103,121.863,66.981,121.863z"/>
		</g>
		<g>
			<path fill="#FFFFFF" d="M69.453,118.967c-0.063,0-0.13-0.011-0.191-0.037l-2.579-1.01c-0.271-0.107-0.403-0.411-0.297-0.681
				c0.105-0.271,0.41-0.403,0.679-0.296l2.581,1.009c0.268,0.105,0.401,0.41,0.295,0.68
				C69.859,118.839,69.663,118.967,69.453,118.967z"/>
		</g>
	</g>
	<path fill="#FFFFFF" d="M101.328,112.425l2.512-0.641c0,0,0.27-0.324-0.152-0.346l-2.229,0.438c0,0-0.945-0.831-2.488-1.324
		c0.543-0.43,1.443-1.278,1.313-2.056l1.708-1.068c0,0,0.127-0.303-0.193-0.221l-1.547,0.852c0,0-1.552-0.677-3.434-0.256
		c0.318-0.537,0.625-1.184,0.896-1.976c0,0,0.539-2.194-0.343-2.876l0.529-1.943c0,0-0.113-0.306-0.291-0.032l-0.562,1.677
		c0,0-2.812,0.974-3.53,4.043c-0.094-0.389-0.205-0.799-0.365-1.243c0,0-0.938-2.055-2.053-2.041l-0.797-1.853
		c0,0-0.277-0.168-0.246,0.157l0.604,1.661c0,0-0.642,1.009-0.769,2.472c-0.683-0.602-1.719-1.33-2.561-1.073l-1.643-2.002
		c0,0-0.41-0.108-0.252,0.282l1.34,1.834c0,0-0.492,1.7,0.033,3.742c-0.791-0.3-2.074-0.651-2.76-0.093l-2.115-1.147
		c0,0-0.388,0.05-0.113,0.33l1.793,1.11c0,0,0.572,5.51,6.857,6.027c-0.313,0.644-0.623,1.322-0.914,2.01
		c-0.72,1.713-1.326,3.476-1.676,4.842c-0.186,0.68-0.303,1.259-0.378,1.668c-0.079,0.408-0.104,0.649-0.104,0.649
		s0.152-0.188,0.392-0.528c0.241-0.341,0.571-0.831,0.927-1.438c0.735-1.204,1.568-2.87,2.293-4.582
		c0.303-0.725,0.586-1.455,0.838-2.161c0.77,0.951,2.377,2.183,5.666,2.611c0,0,2.767,0.122,3.373-1.104l2.461,0.166
		c0,0,0.342-0.211-0.033-0.357l-2.146-0.268c0,0-0.652-1.108-1.992-2.036C100.02,113.98,101.199,113.332,101.328,112.425z"/>
	<path fill="#FFFFFF" d="M107,73.798c-0.35-3.166-2.952-2.5-2.952-2.5c-5.446,1.097-4.046-1.02-4.046-1.02
		c4.053-3.923,2.879-5.575,2.879-5.575c-3.429-5.247-6.974,3.042-6.974,3.042c-2.923,6.636-5.063,8.188-5.063,8.188
		c-4.669,4.009-3.715-0.204-3.715-0.204c6.549-6.471,4.193-8.221,4.193-8.221c-2.609-2.552-4.178,1.716-4.178,1.716
		c-0.729-0.848,0.275-2.598,0.275-2.598c1.823-3.941-1.745-4.226-1.745-4.226c-3.146-0.548-2.229,8.527-2.229,8.527
		c-1.366-5.721-5.457-4.459-5.457-4.459c-3.344,0.834,0.604,5.679,0.604,5.679c3.833,3.928,1.323,8.14,0.014,9.826
		c0.148,0.118,0.307,0.24,0.461,0.371c0.17,0.142,0.338,0.292,0.531,0.424c0.188,0.135,0.373,0.282,0.555,0.427
		c0.178,0.157,0.375,0.286,0.566,0.423c0.191,0.134,0.373,0.274,0.553,0.413c0.181,0.133,0.334,0.292,0.511,0.404
		c0.17,0.119,0.325,0.241,0.472,0.354c0.579,0.451,0.938,0.841,0.938,0.841s-0.508-0.07-1.228-0.312
		c-0.182-0.059-0.376-0.124-0.579-0.203c-0.205-0.067-0.398-0.189-0.609-0.296c-0.209-0.113-0.422-0.234-0.637-0.363
		c-0.215-0.125-0.427-0.261-0.623-0.427c-0.195-0.162-0.392-0.323-0.58-0.49c-0.195-0.156-0.358-0.345-0.517-0.53
		c-0.121-0.142-0.229-0.277-0.336-0.415c-0.085,0.092-0.132,0.14-0.132,0.14c-0.239,0.233-0.465,0.464-0.678,0.692
		c0.107,0.084,0.217,0.167,0.324,0.26c0.166,0.143,0.336,0.292,0.531,0.423c0.188,0.136,0.371,0.283,0.557,0.427
		c0.176,0.158,0.373,0.287,0.565,0.423c0.19,0.134,0.373,0.274,0.551,0.412c0.181,0.133,0.337,0.292,0.513,0.403
		c0.17,0.12,0.326,0.243,0.47,0.356c0.579,0.45,0.938,0.839,0.938,0.839s-0.511-0.069-1.228-0.311
		c-0.183-0.059-0.375-0.125-0.579-0.202c-0.206-0.068-0.402-0.191-0.611-0.298c-0.207-0.114-0.421-0.232-0.635-0.363
		c-0.215-0.125-0.426-0.261-0.624-0.427c-0.194-0.162-0.392-0.322-0.578-0.488c-0.196-0.158-0.362-0.346-0.521-0.532
		c-0.086-0.103-0.16-0.2-0.239-0.298c-0.276,0.315-0.526,0.627-0.765,0.933c0.064,0.06,0.133,0.124,0.207,0.187
		c0.137,0.119,0.281,0.244,0.425,0.382c0.161,0.126,0.331,0.257,0.499,0.399c0.164,0.142,0.336,0.29,0.527,0.423
		c0.188,0.135,0.373,0.282,0.558,0.428c0.176,0.157,0.378,0.286,0.567,0.421c0.189,0.135,0.375,0.276,0.551,0.414
		c0.181,0.133,0.338,0.29,0.512,0.403c0.169,0.12,0.326,0.242,0.471,0.355c0.579,0.451,0.938,0.842,0.938,0.842
		s-0.51-0.072-1.227-0.311c-0.182-0.061-0.375-0.125-0.578-0.202c-0.207-0.07-0.4-0.191-0.611-0.299
		c-0.206-0.114-0.422-0.233-0.633-0.362c-0.217-0.125-0.43-0.262-0.625-0.427c-0.196-0.163-0.396-0.325-0.582-0.491
		c-0.196-0.156-0.36-0.346-0.516-0.532c-0.158-0.183-0.308-0.362-0.438-0.54c-0.12-0.19-0.223-0.375-0.316-0.544
		c-0.021-0.035-0.037-0.073-0.055-0.11c-4.396,6.11-1.182,10.216-1.182,10.216c7.203,8.255,11.32-5.966,11.32-5.966
		c0.928-4.591,7.118-0.474,7.118-0.474c8.063,4.765,6.131-3.94,6.131-3.94c-0.845-3.688-5.31-1.413-5.31-1.413
		c-4.664,2.103-1.334-3.613-1.334-3.613c2.464-3.444,4.533-0.133,4.533-0.133c2.813,4.615,5.019,1.062,4.06-0.943
		c-1.399-3.81,0.788-3.333,0.788-3.333C107.545,77.233,107,73.798,107,73.798z"/>
</g>
<g enable-background="new    ">
	<path fill="#143D26" d="M28.352,164.629c1.237-0.02,2.267-0.085,3.391-0.274l0.123,1.029c-1.313,0.236-2.503,0.284-4.014,0.284
		h-0.746v-5.828h4.062v1.011h-2.815V164.629z M34.851,163.278h-1.266v4.477h-1.247v-8.718h1.247v3.211h1.266V163.278z"/>
	<path fill="#143D26" d="M40.283,162.739c0,1.918-0.973,3.117-2.286,3.117s-2.286-1.199-2.286-3.117
		c0-1.907,0.973-3.098,2.286-3.098S40.283,160.832,40.283,162.739z M36.911,162.739c0,1.294,0.444,1.983,1.086,1.983
		s1.086-0.689,1.086-1.983c0-1.284-0.444-1.974-1.086-1.974S36.911,161.455,36.911,162.739z M42.673,159.027v8.728h-1.247v-8.728
		H42.673z"/>
	<path fill="#143D26" d="M51.458,159.027v8.728h-1.247v-4.581h-1.445c-0.132,1.663-1.021,2.683-2.229,2.683
		c-1.294,0-2.248-1.199-2.248-3.117c0-1.907,0.954-3.098,2.248-3.098c1.171,0,2.05,0.954,2.22,2.521h1.455v-3.136H51.458z
		 M47.604,162.739c0-1.284-0.425-1.974-1.067-1.974c-0.633,0-1.058,0.689-1.058,1.974c0,1.294,0.425,1.983,1.058,1.983
		C47.18,164.723,47.604,164.033,47.604,162.739z"/>
	<path fill="#143D26" d="M60.726,165.725v1.011h-7.877v-1.011H60.726z M59.885,164.506h-6.111v-4.836h6.045v1.001H55.04v0.916h4.581
		v0.964H55.04v0.973h4.845V164.506z"/>
	<path fill="#143D26" d="M69.417,163.269v1.001H61.54v-1.001H69.417z M63.684,166.556h4.912v1.001h-6.168v-2.598h1.256V166.556z
		 M68.548,162.381h-6.036v-3.032h1.247v2.04h4.789V162.381z"/>
	<path fill="#143D26" d="M75.738,161.38c0,1.416,0.699,2.918,2.152,3.522l-0.68,0.982c-1.01-0.435-1.699-1.284-2.088-2.333
		c-0.387,1.134-1.086,2.088-2.105,2.551l-0.709-0.992c1.455-0.651,2.164-2.248,2.164-3.73v-0.482h-1.814v-1.029h4.875v1.029h-1.795
		V161.38z M79.582,159.037v8.699h-1.246v-8.699H79.582z"/>
	<path fill="#143D26" d="M88.936,163.25v0.991h-7.869v-0.991h3.297v-1.124h1.246v1.124H88.936z M88.047,162.626
		c-1.465-0.207-2.521-0.812-3.07-1.681c-0.547,0.859-1.605,1.474-3.061,1.681l-0.463-0.973c1.957-0.236,2.891-1.228,2.891-2.21
		v-0.255h1.275v0.255c0,1.011,0.916,1.974,2.881,2.21L88.047,162.626z M81.936,164.855h6.045v2.89h-1.246v-1.907h-4.799V164.855z"/>
	<path fill="#143D26" d="M95.322,163.618c-1.852,0.33-3.863,0.358-5.375,0.368l-0.17-0.963c0.67,0,1.436,0,2.219-0.029v-0.67h-1.492
		v-2.891h4.186v0.992h-2.938v0.916h2.984v0.982h-1.492v0.613c0.68-0.028,1.35-0.085,1.982-0.179L95.322,163.618z M95.785,164.431
		h1.227v3.201h-5.885v-3.201h1.238v0.651h3.42V164.431z M95.785,166.026h-3.42v0.633h3.42V166.026z M97.012,159.037v5.044h-1.246
		v-5.044H97.012z"/>
	<path fill="#143D26" d="M100.139,164.524c1.143-0.028,2.381-0.122,3.656-0.378l0.133,1.039c-1.484,0.313-2.93,0.406-4.252,0.406
		h-0.773v-5.733h1.236V164.524z M105.713,159.027v8.699h-1.248v-8.699H105.713z"/>
	<path fill="#143D26" d="M108.717,164.629c1.238-0.02,2.268-0.085,3.391-0.274l0.123,1.029c-1.313,0.236-2.502,0.284-4.014,0.284
		h-0.746v-5.828h4.061v1.011h-2.814V164.629z M115.215,163.278h-1.266v4.477h-1.246v-8.718h1.246v3.211h1.266V163.278z"/>
</g>
<g>
	<circle fill="#11A95A" cx="71.146" cy="275.458" r="52.483"/>
	<g>
		<path fill="#FFFFFF" d="M49.436,249.797c0,0-2.208,11.627,5.724,13.043c0.309,0.451,1.293,1.101,1.476,3.981
			c0,0,2.622,29.496,7.734,28.588c0,0,4.751,1.401,3.394-5.009L61.342,266c0,0-0.421-3.003,0.252-3.833c0,0,3.846-2.87,3.084-6.488
			c0,0-2.271-6.732-3.906-8.449c0,0-3.56-0.792-3.145,1.181l2.754,8.004c0,0-1.691,1.043-2.283-1.751l-1.452-5.875
			c0,0-2.62-2.365-3.485,0.564l1.362,8.469c0,0-1.147,0.587-1.423-0.728l-1.326-7.276C51.774,249.819,50.75,247.973,49.436,249.797z
			"/>
		<path fill="#FFFFFF" d="M92.535,259.566c0,0-6.023,1.058-9.157,6.229c0,0-11.171,15.55-4.208,18.282c0,0,0.305,1.264-1.1,3.479
			c0,0-9.438,15.178-6.412,17.705c0,0,2.105,2.827,2.718,0.588C74.376,305.85,97.652,258.809,92.535,259.566z"/>
		<g>
			<path fill="#FFFFFF" d="M34.921,283.748c1.558,12.811,11.375,23.659,23.479,27.412c1.433,0.445,2.583-1.62,0.949-2.128
				c-11.352-3.522-20.394-13.798-21.847-25.765C37.326,281.818,34.745,282.295,34.921,283.748L34.921,283.748z"/>
		</g>
		<g>
			<path fill="#FFFFFF" d="M107.83,268.13c-1.155-12.865-10.652-23.977-22.631-28.11c-1.424-0.49-2.565,1.574-0.952,2.128
				c11.237,3.878,19.925,14.467,21.003,26.463C105.381,270.058,107.96,269.585,107.83,268.13L107.83,268.13z"/>
		</g>
		<path fill="#FFFFFF" d="M71.146,321.991c-25.659,0-46.533-20.874-46.533-46.533c0-25.657,20.874-46.531,46.533-46.531
			c25.658,0,46.533,20.875,46.533,46.531C117.68,301.117,96.805,321.991,71.146,321.991z M71.146,232.949
			c-23.44,0-42.511,19.069-42.511,42.509c0,23.442,19.071,42.513,42.511,42.513s42.512-19.07,42.512-42.513
			C113.658,252.018,94.588,232.949,71.146,232.949z"/>
	</g>
</g>
<g enable-background="new    ">
	<path fill="#143D26" d="M12.707,344.928c1.237-0.02,2.267-0.085,3.391-0.274l0.123,1.029c-1.313,0.236-2.503,0.284-4.014,0.284
		H11.46v-5.828h4.062v1.011h-2.815V344.928z M19.205,343.577h-1.266v4.477h-1.247v-8.718h1.247v3.211h1.266V343.577z"/>
	<path fill="#143D26" d="M24.638,343.038c0,1.918-0.973,3.117-2.286,3.117s-2.286-1.199-2.286-3.117
		c0-1.907,0.973-3.098,2.286-3.098S24.638,341.131,24.638,343.038z M21.266,343.038c0,1.294,0.444,1.983,1.086,1.983
		s1.086-0.689,1.086-1.983c0-1.284-0.444-1.974-1.086-1.974S21.266,341.754,21.266,343.038z M27.027,339.326v8.728h-1.247v-8.728
		H27.027z"/>
	<path fill="#143D26" d="M35.813,339.326v8.728h-1.247v-4.581h-1.445c-0.132,1.663-1.021,2.683-2.229,2.683
		c-1.294,0-2.248-1.199-2.248-3.117c0-1.907,0.954-3.098,2.248-3.098c1.171,0,2.05,0.954,2.22,2.521h1.455v-3.136H35.813z
		 M31.959,343.038c0-1.284-0.425-1.974-1.067-1.974c-0.633,0-1.058,0.689-1.058,1.974c0,1.294,0.425,1.983,1.058,1.983
		C31.534,345.021,31.959,344.332,31.959,343.038z"/>
	<path fill="#143D26" d="M45.08,346.023v1.011h-7.877v-1.011H45.08z M44.24,344.805h-6.111v-4.836h6.045v1.001h-4.779v0.916h4.581
		v0.964h-4.581v0.973h4.845V344.805z"/>
	<path fill="#143D26" d="M53.762,345.391h-3.316v2.645H49.2v-2.645h-3.315v-1.002h7.878V345.391z M47.708,340.715h-1.105v-0.991
		h6.479v0.991h-1.114v1.955h1.048v0.992h-6.356v-0.992h1.048V340.715z M50.73,340.715h-1.776v1.955h1.776V340.715z"/>
	<path fill="#143D26" d="M62.462,345.976v1.021h-7.877v-1.021H62.462z M61.622,344.342h-6.12v-4.288h6.055v1.011h-4.808v2.286h4.873
		V344.342z"/>
	<path fill="#143D26" d="M70.059,344.56c-0.954-0.313-1.605-0.936-1.975-1.72c-0.387,0.859-1.067,1.549-2.087,1.89l-0.623-0.992
		c1.426-0.463,2.049-1.605,2.049-2.701v-0.123h-1.709v-0.991h4.675v0.991h-1.69v0.113c0,1.029,0.595,2.097,1.965,2.56L70.059,344.56
		z M72.893,346.892v0.992H66.96v-2.729h1.247v1.737H72.893z M71.447,341.584v-2.248h1.246v6.347h-1.246v-3.088h-1.36v-1.011H71.447z
		"/>
	<path fill="#143D26" d="M81.98,343.634v0.982h-3.201v1.482h-1.248v-1.482h-3.428v-0.982H81.98z M76.266,346.892h4.846v0.992H75.02
		v-2.521h1.246V346.892z M80.979,342.944h-5.902v-3.24h5.902V342.944z M79.752,340.677h-3.447v1.285h3.447V340.677z"/>
	<path fill="#143D26" d="M87.441,344.219c-0.955-0.312-1.598-0.935-1.975-1.709c-0.387,0.859-1.068,1.539-2.078,1.879l-0.633-0.991
		c1.398-0.453,2.021-1.549,2.049-2.626h-1.709v-0.991h4.676v0.991H86.08c0.039,1.001,0.633,2.031,1.965,2.475L87.441,344.219z
		 M84.285,344.72h5.791v3.211h-5.791V344.72z M85.514,346.958h3.344v-1.266h-3.344V346.958z M90.076,339.336v5.024H88.83v-2.002
		h-1.314v-1.011h1.314v-2.012H90.076z"/>
	<path fill="#143D26" d="M91.59,348.479c0.727-0.273,1.133-0.746,1.133-1.294c-0.029,0-0.057,0-0.086,0
		c-0.453,0-0.869-0.293-0.869-0.821c0-0.501,0.406-0.822,0.898-0.822c0.643,0,1,0.511,1,1.37c0,1.104-0.65,1.945-1.785,2.323
		L91.59,348.479z"/>
	<path fill="#143D26" d="M98.371,340.025v2.106h1.814v-2.106h1.236v5.998h-4.287v-5.998H98.371z M98.371,345.031h1.814v-1.927
		h-1.814V345.031z M103.916,339.326v8.728h-1.246v-8.728H103.916z"/>
	<path fill="#143D26" d="M113.277,346.014v1.011H105.4v-1.011h3.307v-1.474c-1.531-0.188-2.617-1.067-2.617-2.361
		c0-1.454,1.389-2.398,3.24-2.398c1.861,0,3.25,0.944,3.25,2.398c0,1.294-1.088,2.182-2.627,2.361v1.474H113.277z M109.33,343.586
		c1.199,0,2.021-0.52,2.021-1.407s-0.822-1.407-2.021-1.407c-1.189,0-2.012,0.52-2.012,1.407S108.141,343.586,109.33,343.586z"/>
	<path fill="#143D26" d="M118.805,340.167c0,2.683-0.727,4.959-3.984,6.593l-0.662-0.982c1.416-0.708,2.314-1.511,2.824-2.475
		l-2.588,0.236l-0.16-1.049l3.145-0.179c0.086-0.359,0.15-0.737,0.189-1.152h-2.891v-0.992H118.805z M121.336,339.326v8.699h-1.256
		v-8.699H121.336z"/>
	<path fill="#143D26" d="M127.629,344.653c-0.992-0.273-1.672-0.85-2.078-1.577c-0.389,0.793-1.088,1.426-2.098,1.719l-0.586-0.963
		c1.418-0.425,2.041-1.445,2.041-2.466v-0.047h-1.758v-0.982h1.758v-0.954h1.246v0.954h1.748v0.982h-1.748v0.047
		c0,0.954,0.633,1.927,2.051,2.314L127.629,344.653z M130.225,346.892v0.992h-6.006v-2.739h1.246v1.747H130.225z M130.008,345.702
		h-1.256v-6.366h1.256V345.702z"/>
</g>
<g>
	<path fill="#11A95A" d="M123.631,453.137c0,28.985-23.496,52.483-52.482,52.483c-28.988,0-52.484-23.498-52.484-52.483
		c0-28.986,23.496-52.482,52.484-52.482C100.135,400.652,123.631,424.149,123.631,453.137z"/>
	<g>
		<g>
			<path fill="#FFFFFF" d="M71.148,499.126c-25.36,0-45.994-20.631-45.994-45.989s20.632-45.99,45.994-45.99
				c25.356,0,45.99,20.632,45.99,45.99S96.506,499.126,71.148,499.126z M71.148,411.121c-23.17,0-42.019,18.847-42.019,42.016
				c0,23.168,18.847,42.017,42.019,42.017c23.166,0,42.016-18.849,42.016-42.017C113.164,429.968,94.314,411.121,71.148,411.121z"/>
		</g>
		<g>
			<path fill="#FFFFFF" d="M92.24,453.34c-0.057,0.04-0.113,0.08-0.158,0.132c-0.156-0.019-0.324-0.007-0.5-0.022
				c-4.18-0.477-5.969,1.666-10.383,6.896c-0.172,0.202-0.258,0.471-0.229,0.732l0.006,0.048c0.037,0.234,0.153,0.45,0.336,0.605
				c0.42,0.35,1.039,0.3,1.389-0.121c3.943-4.669,4.521-6.009,7.05-4.898c-4.815,3.975-5.778,6.618-5.899,6.832
				c-0.107,0.176-0.151,0.383-0.127,0.591c0.047,0.349,0.223,0.604,0.479,0.753c0.229,0.133,0.492,0.171,0.746,0.105
				c0.257-0.068,0.47-0.234,0.601-0.456c0.035-0.062,0.876-2.075,6.081-6.685c0.305,0.149,0.807,0.527,0.898,0.604
				c-1.424,4.503-5.161,7.533-5.225,7.597c-0.222,0.212-0.326,0.51-0.295,0.809c0.034,0.249,0.129,0.435,0.275,0.588
				c0.181,0.185,0.427,0.289,0.689,0.296c0.262,0,0.514-0.096,0.7-0.28c0.229-0.222,3.479-3.042,5.806-7.635
				c0.106,0.006,0.267,0.15,0.328,0.275c1.653,3.337-4.105,8.222-4.166,8.272c-0.263,0.209-0.399,0.538-0.367,0.872
				c0.019,0.187,0.092,0.362,0.207,0.507c0.338,0.434,0.957,0.499,1.379,0.157c0.3-0.231,5.688-4.8,5.035-11.052
				c-0.054-0.528-0.162-1.051-0.322-1.556c0.939-1.058,10.144-12.021,15.506-18.109c-0.541-1.787-1.201-2.924-1.956-4.607
				C104.98,440.337,93.253,452.656,92.24,453.34z"/>
			<path fill="#FFFFFF" d="M84.938,473.215l3.106-1.917c0,0-11.86-5.36-10.997-10.793c0,0,1.688-17.264-2.921-17.503
				c0,0-1.89-0.448-2.549,3.495c0,0-0.3,3.04-3.048,2.153c0,0-2.563-1.126-3.258-5.046c0,0-1.41-7.523-7.926-7.695
				c0,0-4.657,0.344-4.106,5.034c0,0,0.428,3.139,0.979,4.79c0,0-7.405-9.843-14.698-7.532c0,0-4.656,1.907-5.125,7.133
				c0,0-0.151,5.105,4.339,6.65c0,0,5.286,0.723,6.158,2.303c0,0,0.572,1.428-0.87,2.396c0,0-3.688,2.142-1.799,6.053
				c0,0,2.284,5.127,8.161,4.59c0,0,3.47-0.288,4.588-1.679c0,0,0.86-1.547,2,0.28c0,0,0.914,1.576-1.293,2.744
				c0.083,0.037-3.859,2.065-0.397,4.592c0,0,6.083,4.856,9.987-1.054c0,0,3.115-6.073,5.404-5.769c0,0,4.999,0.747,8.011,2.817
				L84.938,473.215z M63.836,448.909c0.483-0.116,1.038,0.499,1.237,1.368c0.198,0.87-0.031,1.665-0.516,1.777
				c-0.483,0.112-1.036-0.504-1.237-1.372C63.125,449.813,63.357,449.018,63.836,448.909z M53.62,452.606
				c-0.483,0.111-1.034-0.499-1.234-1.369c-0.2-0.869,0.032-1.667,0.514-1.776c0.483-0.109,1.034,0.5,1.237,1.377
				C54.333,451.703,54.103,452.498,53.62,452.606z M66.42,458.742c-0.079,0.312-0.278,0.656-0.302,0.696l-0.012,0.016l-0.014,0.02
				c-0.85,1.094-3.349,1.29-3.604,1.31c-0.371,0.053-0.801,0.079-1.27,0.072c-1.026-0.012-1.898-0.157-1.94-0.169
				c-2.989-0.563-5.001-4.222-5.086-4.378l-0.06-0.108l0.027-0.123c0.111-0.527,0.499-0.564,0.618-0.563
				c0.246,0.002,0.462,0.155,0.503,0.182l0.053,0.048l0.038,0.059c0.358,0.63,1.26,1.685,1.27,1.694
				c1.051,1.253,2.58,1.896,4.538,1.916c1.797,0.021,3.306-0.514,3.313-0.514c1.268-0.594,0.323-2.964,0.312-2.992
				c-0.049-0.136-0.205-0.533,0.007-0.848c0.118-0.165,0.314-0.258,0.562-0.255c0.121,0,0.22,0.025,0.242,0.032l0.179,0.047
				l0.053,0.176C66.692,457.705,66.447,458.659,66.42,458.742z"/>
			<path fill="#FFFFFF" d="M84.227,451.861c0.026,0.062,0.076,0.112,0.135,0.139c0.022,0.008,0.041,0.014,0.063,0.017
				c0.027,0.006,2.655,0.475,4.195-2.504c0.041-0.083,0.032-0.181-0.011-0.264c-0.049-0.078-0.139-0.127-0.23-0.127
				c-0.111,0-2.66-0.01-4.143,2.494C84.191,451.691,84.186,451.784,84.227,451.861z"/>
			<path fill="#FFFFFF" d="M82.188,452.76c0.063,0.038,0.144,0.047,0.219,0.028c0.111-0.029,0.197-0.121,0.214-0.239
				c0.063-0.41,0.207-1.413,0.522-1.895c0.021-0.034,2.692-3.555-0.209-8.101c-0.055-0.09-0.154-0.142-0.258-0.135
				c-0.105,0.01-0.201,0.067-0.246,0.161c-0.01,0.016-0.732,1.216-1.193,2.174c-0.018,0.044-2.098,4.068,0.865,7.93
				C82.128,452.713,82.154,452.741,82.188,452.76z"/>
		</g>
	</g>
</g>
<g enable-background="new    ">
	<path fill="#143D26" d="M28.436,518.577v2.106h1.813v-2.106h1.237v5.998h-4.288v-5.998H28.436z M28.436,523.583h1.813v-1.927
		h-1.813V523.583z M33.98,517.878v8.728h-1.247v-8.728H33.98z"/>
	<path fill="#143D26" d="M43.342,524.565v1.011h-7.877v-1.011h3.306v-1.474c-1.53-0.188-2.616-1.067-2.616-2.361
		c0-1.454,1.388-2.398,3.24-2.398c1.861,0,3.249,0.944,3.249,2.398c0,1.294-1.086,2.182-2.626,2.361v1.474H43.342z M39.395,522.138
		c1.199,0,2.021-0.52,2.021-1.407s-0.822-1.407-2.021-1.407c-1.19,0-2.012,0.52-2.012,1.407S38.204,522.138,39.395,522.138z"/>
	<path fill="#143D26" d="M48.869,518.719c0,2.683-0.727,4.959-3.986,6.593l-0.661-0.982c1.417-0.708,2.314-1.511,2.824-2.475
		l-2.588,0.236l-0.161-1.049l3.145-0.179c0.085-0.359,0.151-0.737,0.189-1.152h-2.89v-0.992H48.869z M51.4,517.878v8.699h-1.256
		v-8.699H51.4z"/>
	<path fill="#143D26" d="M57.693,523.205c-0.992-0.273-1.672-0.85-2.078-1.577c-0.387,0.793-1.086,1.426-2.097,1.719l-0.585-0.963
		c1.417-0.425,2.04-1.445,2.04-2.466v-0.047h-1.757v-0.982h1.757v-0.954h1.247v0.954h1.748v0.982h-1.748v0.047
		c0,0.954,0.633,1.927,2.05,2.314L57.693,523.205z M60.291,525.443v0.992h-6.007v-2.739h1.247v1.747H60.291z M60.073,524.254h-1.256
		v-6.366h1.256V524.254z"/>
	<path fill="#143D26" d="M69.397,522.327v0.991h-7.858v-0.991H69.397z M62.322,519.938c0-1.105,1.256-1.795,3.146-1.795
		c1.898,0,3.155,0.689,3.155,1.795c0,1.104-1.256,1.794-3.155,1.794C63.579,521.731,62.322,521.042,62.322,519.938z M63.739,525.443
		h4.779v0.992h-6.026v-2.531h1.247V525.443z M63.607,519.938c0,0.538,0.699,0.803,1.861,0.803c1.171,0,1.87-0.265,1.87-0.803
		c0-0.529-0.699-0.813-1.87-0.813C64.306,519.125,63.607,519.408,63.607,519.938z"/>
	<path fill="#143D26" d="M75.736,520.23c0,1.416,0.699,2.918,2.154,3.522l-0.68,0.982c-1.012-0.435-1.701-1.284-2.088-2.333
		c-0.387,1.134-1.086,2.088-2.105,2.551l-0.709-0.992c1.455-0.651,2.162-2.248,2.162-3.73v-0.482h-1.813v-1.029h4.873v1.029h-1.795
		V520.23z M79.582,517.888v8.699h-1.248v-8.699H79.582z"/>
	<path fill="#143D26" d="M88.934,522.101v0.991h-7.867v-0.991h3.295v-1.124h1.248v1.124H88.934z M88.045,521.477
		c-1.463-0.207-2.521-0.812-3.068-1.681c-0.549,0.859-1.605,1.474-3.061,1.681l-0.463-0.973c1.955-0.236,2.891-1.228,2.891-2.21
		v-0.255h1.275v0.255c0,1.011,0.916,1.974,2.881,2.21L88.045,521.477z M81.936,523.706h6.045v2.89h-1.248v-1.907h-4.797V523.706z"/>
	<path fill="#143D26" d="M95.32,522.469c-1.852,0.33-3.863,0.358-5.375,0.368l-0.17-0.963c0.672,0,1.436,0,2.221-0.029v-0.67h-1.492
		v-2.891h4.184v0.992H91.75v0.916h2.984v0.982h-1.492v0.613c0.68-0.028,1.352-0.085,1.984-0.179L95.32,522.469z M95.783,523.281
		h1.229v3.201h-5.885v-3.201h1.236v0.651h3.42V523.281z M95.783,524.877h-3.42v0.633h3.42V524.877z M97.012,517.888v5.044h-1.248
		v-5.044H97.012z"/>
	<path fill="#143D26" d="M100.139,523.375c1.143-0.028,2.379-0.122,3.654-0.378l0.133,1.039c-1.482,0.313-2.928,0.406-4.25,0.406
		H98.9v-5.733h1.238V523.375z M105.711,517.878v8.699h-1.246v-8.699H105.711z"/>
	<path fill="#143D26" d="M108.717,523.479c1.236-0.02,2.266-0.085,3.391-0.274l0.123,1.029c-1.313,0.236-2.504,0.284-4.016,0.284
		h-0.746v-5.828h4.063v1.011h-2.814V523.479z M115.215,522.129h-1.266v4.477h-1.246v-8.718h1.246v3.211h1.266V522.129z"/>
</g>
</svg>
