<?xml version="1.0" encoding="utf-8"?>
<!-- Generator: Adobe Illustrator 16.0.0, SVG Export Plug-In . SVG Version: 6.00 Build 0)  -->
<!DOCTYPE svg PUBLIC "-//W3C//DTD SVG 1.1//EN" "http://www.w3.org/Graphics/SVG/1.1/DTD/svg11.dtd">
<svg version="1.1" id="Layer_1" xmlns="http://www.w3.org/2000/svg" xmlns:xlink="http://www.w3.org/1999/xlink" x="0px" y="0px"
	 width="1100px" height="326px" viewBox="0 0 1100 326" enable-background="new 0 0 1100 326" xml:space="preserve">
<g>
	<rect x="339.368" y="126.594" fill="#11A95A" width="40.328" height="10.934"/>
	<path fill="#11A95A" d="M367.585,115.572l11.396,15.603l-11.396,16.364c0.192-0.311,34.296-9.537,34.471-16.143
		C402.25,124.098,367.585,115.572,367.585,115.572"/>
</g>
<g>
	<rect x="697.736" y="126.594" fill="#11A95A" width="40.328" height="10.934"/>
	<path fill="#11A95A" d="M725.954,115.572l11.396,15.603l-11.396,16.364c0.191-0.311,34.297-9.537,34.471-16.143
		C760.618,124.098,725.954,115.572,725.954,115.572"/>
</g>
<g>
	<g>
		<circle fill="#11A95A" cx="191.528" cy="131.556" r="101.116"/>
		<path fill="#FFFFFF" d="M154.082,92.273c0,0,0.261-1.961,4.015-1.378c0,0,2.82,0.65,2.986-2.277c0,0-0.113-2.824-3.375-4.705
			c0,0-6.231-3.686-4.116-10.022c0,0,1.929-4.393,5.933-2.409c0,0,2.652,1.382,3.936,2.42c0,0-6.213-10.187-1.608-16.509
			c0,0,3.326-3.903,8.157-2.744c0,0,4.615,1.433,4.434,6.242c0,0-1.197,5.326-0.087,6.657c0,0,1.076,0.992,2.447-0.099
			c0,0,3.197-2.899,6.031,0.128c0,0,3.79,3.784,1.262,9.296c0,0-1.467,3.261-3.099,3.911c0,0-1.685,0.353-0.448,2.015
			c0,0,1.094,1.364,2.903-0.402c0.004,0.096,3.191-3.085,4.244,1.033c0,0,2.22,7.373-4.426,9.318c0,0-6.511,1.13-7.037,3.432
			c0,0-1.074,5.056-0.274,8.602l1.598,9.581l-2.607-0.067c0,0-1.09-12.953-6.247-13.798
			C168.704,100.497,152.693,96.794,154.082,92.273z"/>
		<path fill="#FFFFFF" d="M167.997,164.337c0,0,13.51-10.252,2.176-34.281c0,0-7.803-15.151-20.122-13.845
			c0,0-9.036,3.205-12.428,0.129c0,0-4.011-3.043-5.885-1.251c0,0-0.839,0.755-0.407,2.527c0.199,0.813,1.481,2.905,1.6,4.09
			c0,0,0.954,3.004-2.538,8.349c0,0-8.018,9.043,3.371,24.492C133.764,154.547,146.558,178.006,167.997,164.337z"/>
		<g>
			<g>
				<path fill="#FFFFFF" d="M179.197,196.718c-6.762,0-14.601-3.833-23.296-11.391c-0.391-0.34-0.581-0.856-0.506-1.368
					c0.077-0.513,0.409-0.95,0.883-1.162l44.042-19.638c0.494-0.22,1.071-0.16,1.509,0.159c0.438,0.319,0.673,0.848,0.616,1.388
					C202.305,166.013,198.79,196.718,179.197,196.718z M159.722,184.584c7.376,6.041,13.919,9.1,19.475,9.1
					c13.816,0,18.544-19.392,19.826-26.625L159.722,184.584z"/>
			</g>
			<g>
				<path fill="#FFFFFF" d="M175.952,186.338c-0.047,0-0.095-0.003-0.144-0.01c-0.553-0.078-0.938-0.589-0.859-1.143l0.745-5.283
					c0.079-0.555,0.594-0.937,1.144-0.86c0.553,0.078,0.938,0.59,0.859,1.143l-0.745,5.284
					C176.88,185.974,176.448,186.338,175.952,186.338z"/>
			</g>
			<g>
				<path fill="#FFFFFF" d="M183.504,184.688c-0.284,0-0.564-0.119-0.766-0.35l-3.494-4.033c-0.365-0.421-0.32-1.061,0.103-1.426
					c0.422-0.366,1.061-0.319,1.426,0.103l3.494,4.033c0.367,0.422,0.32,1.061-0.101,1.426
					C183.974,184.607,183.737,184.688,183.504,184.688z"/>
			</g>
			<g>
				<path fill="#FFFFFF" d="M188.264,179.106c-0.123,0-0.249-0.022-0.369-0.07l-4.967-1.946c-0.521-0.203-0.776-0.79-0.572-1.311
					c0.203-0.519,0.79-0.778,1.309-0.571l4.969,1.946c0.52,0.203,0.776,0.79,0.573,1.31
					C189.048,178.862,188.667,179.106,188.264,179.106z"/>
			</g>
		</g>
		<path fill="#FFFFFF" d="M249.674,166.505l4.838-1.238c0,0,0.518-0.623-0.29-0.664l-4.298,0.844c0,0-1.823-1.601-4.793-2.551
			c1.043-0.831,2.783-2.461,2.528-3.961l3.294-2.059c0,0,0.241-0.583-0.37-0.423l-2.988,1.639c0,0-2.986-1.307-6.612-0.494
			c0.614-1.033,1.203-2.279,1.722-3.806c0,0,1.043-4.226-0.66-5.541l1.023-3.746c0,0-0.221-0.59-0.561-0.059l-1.081,3.229
			c0,0-5.417,1.876-6.805,7.79c-0.176-0.751-0.395-1.541-0.701-2.396c0,0-1.809-3.958-3.958-3.93l-1.53-3.568
			c0,0-0.539-0.326-0.476,0.3l1.163,3.203c0,0-1.234,1.942-1.483,4.76c-1.308-1.159-3.306-2.563-4.93-2.067l-3.167-3.859
			c0,0-0.784-0.208-0.48,0.544l2.583,3.536c0,0-0.952,3.274,0.06,7.21c-1.521-0.579-3.991-1.255-5.313-0.182l-4.076-2.208
			c0,0-0.747,0.096-0.224,0.635l3.46,2.138c0,0,1.098,10.618,13.21,11.613c-0.604,1.243-1.199,2.549-1.76,3.873
			c-1.388,3.302-2.557,6.696-3.227,9.328c-0.357,1.308-0.586,2.425-0.734,3.213s-0.2,1.252-0.2,1.252s0.296-0.361,0.754-1.019
			c0.462-0.655,1.1-1.602,1.786-2.771c1.416-2.318,3.025-5.526,4.418-8.827c0.584-1.394,1.125-2.802,1.613-4.165
			c1.483,1.836,4.578,4.207,10.919,5.032c0,0,5.326,0.233,6.494-2.128l4.744,0.321c0,0,0.658-0.407-0.063-0.688l-4.139-0.518
			c0,0-1.258-2.135-3.835-3.92C247.15,169.5,249.427,168.251,249.674,166.505z"/>
		<path fill="#FFFFFF" d="M260.603,92.086c-0.675-6.101-5.688-4.821-5.688-4.821c-10.495,2.115-7.799-1.965-7.799-1.965
			c7.807-7.556,5.551-10.74,5.551-10.74c-6.608-10.108-13.439,5.861-13.439,5.861c-5.626,12.784-9.754,15.774-9.754,15.774
			c-8.994,7.727-7.155-0.389-7.155-0.389c12.612-12.468,8.079-15.839,8.079-15.839c-5.026-4.917-8.048,3.304-8.048,3.304
			c-1.406-1.633,0.531-5.004,0.531-5.004c3.51-7.593-3.365-8.142-3.365-8.142c-6.059-1.057-4.295,16.428-4.295,16.428
			c-2.63-11.02-10.508-8.591-10.508-8.591c-6.444,1.607,1.157,10.943,1.157,10.943c7.386,7.566,2.55,15.683,0.025,18.928
			c0.289,0.229,0.593,0.462,0.891,0.716c0.322,0.273,0.646,0.56,1.019,0.815c0.363,0.262,0.719,0.544,1.074,0.824
			c0.338,0.302,0.721,0.552,1.088,0.814c0.37,0.259,0.723,0.53,1.065,0.797c0.347,0.256,0.649,0.559,0.985,0.775
			c0.328,0.231,0.628,0.466,0.906,0.687c1.116,0.867,1.805,1.618,1.805,1.618s-0.979-0.136-2.364-0.6
			c-0.348-0.113-0.723-0.238-1.114-0.389c-0.397-0.132-0.772-0.366-1.177-0.574c-0.401-0.218-0.812-0.449-1.221-0.699
			c-0.417-0.24-0.825-0.502-1.203-0.823c-0.379-0.312-0.76-0.623-1.12-0.944c-0.377-0.3-0.695-0.665-0.996-1.023
			c-0.233-0.272-0.44-0.534-0.646-0.797c-0.162,0.176-0.257,0.269-0.257,0.269c-0.456,0.448-0.891,0.893-1.306,1.333
			c0.209,0.164,0.419,0.324,0.628,0.503c0.322,0.274,0.646,0.561,1.021,0.814c0.361,0.263,0.717,0.544,1.072,0.825
			c0.338,0.302,0.721,0.552,1.088,0.813c0.369,0.259,0.723,0.529,1.064,0.796c0.347,0.257,0.649,0.56,0.985,0.775
			c0.328,0.231,0.628,0.467,0.906,0.687c1.116,0.867,1.805,1.619,1.805,1.619s-0.979-0.136-2.364-0.601
			c-0.346-0.113-0.723-0.238-1.112-0.388c-0.399-0.132-0.774-0.367-1.179-0.575c-0.399-0.218-0.812-0.448-1.221-0.698
			c-0.415-0.24-0.825-0.502-1.201-0.822c-0.381-0.312-0.76-0.623-1.122-0.943c-0.375-0.301-0.695-0.665-0.996-1.023
			c-0.167-0.196-0.312-0.384-0.466-0.576c-0.531,0.609-1.015,1.208-1.469,1.798c0.12,0.119,0.249,0.24,0.395,0.362
			c0.263,0.227,0.543,0.469,0.819,0.735c0.308,0.245,0.638,0.496,0.96,0.769s0.646,0.56,1.019,0.815
			c0.363,0.263,0.719,0.544,1.074,0.824c0.338,0.302,0.721,0.552,1.088,0.814c0.369,0.26,0.723,0.53,1.064,0.797
			c0.348,0.256,0.649,0.559,0.985,0.775c0.328,0.231,0.628,0.466,0.907,0.687c1.116,0.867,1.805,1.618,1.805,1.618
			s-0.979-0.136-2.364-0.6c-0.348-0.113-0.723-0.238-1.114-0.388c-0.399-0.133-0.772-0.367-1.177-0.575
			c-0.401-0.218-0.812-0.449-1.22-0.699c-0.417-0.24-0.826-0.502-1.203-0.822c-0.379-0.313-0.76-0.624-1.122-0.944
			c-0.375-0.3-0.695-0.665-0.993-1.023c-0.302-0.354-0.589-0.699-0.844-1.039c-0.231-0.368-0.43-0.724-0.61-1.05
			c-0.043-0.068-0.071-0.14-0.107-0.21c-8.47,11.769-2.275,19.682-2.275,19.682c13.877,15.903,21.815-11.496,21.815-11.496
			c1.781-8.844,13.712-0.912,13.712-0.912c15.539,9.181,11.812-7.591,11.812-7.591c-1.627-7.105-10.228-2.723-10.228-2.723
			c-8.988,4.053-2.57-6.96-2.57-6.96c4.744-6.637,8.733-0.257,8.733-0.257c5.417,8.89,9.663,2.044,7.821-1.816
			c-2.698-7.341,1.517-6.422,1.517-6.422C261.649,98.702,260.603,92.086,260.603,92.086z"/>
	</g>
	<text transform="matrix(1 0 0 1 105.2563 283.2891)" font-family="'NotoSansKR-Bold-KSCpc-EUC-H'" font-size="18.2008">다이어트는 지속됩니다</text>
</g>
<g>
	<g>
		<circle fill="#11A95A" cx="549.896" cy="131.556" r="101.115"/>
		<g>
			<path fill="#FFFFFF" d="M508.071,82.114c0,0-4.259,22.404,11.024,25.132c0.593,0.867,2.493,2.121,2.845,7.669
				c0,0,5.052,56.83,14.9,55.082c0,0,9.155,2.699,6.541-9.652l-12.376-47.01c0,0-0.811-5.787,0.486-7.383
				c0,0,7.411-5.533,5.942-12.502c0,0-4.374-12.969-7.523-16.275c0,0-6.861-1.527-6.059,2.271l5.303,15.422
				c0,0-3.256,2.01-4.395-3.374l-2.797-11.318c0,0-5.047-4.557-6.716,1.087l2.626,16.318c0,0-2.214,1.129-2.746-1.403l-2.553-14.02
				C512.573,82.157,510.6,78.603,508.071,82.114z"/>
			<path fill="#FFFFFF" d="M591.105,100.936c0,0-11.605,2.038-17.645,12.002c0,0-21.524,29.958-8.107,35.223
				c0,0,0.586,2.435-2.119,6.702c0,0-18.181,29.245-12.35,34.107c0,0,4.057,5.449,5.232,1.136
				C556.117,190.106,600.966,99.478,591.105,100.936z"/>
			<g>
				<path fill="#FFFFFF" d="M480.105,147.525c2.999,24.683,21.912,45.578,45.23,52.814c2.759,0.855,4.975-3.126,1.829-4.103
					c-21.871-6.786-39.288-26.583-42.09-49.64C484.736,143.811,479.764,144.729,480.105,147.525L480.105,147.525z"/>
			</g>
			<g>
				<path fill="#FFFFFF" d="M620.57,117.438c-2.227-24.785-20.526-46.195-43.603-54.158c-2.74-0.945-4.938,3.03-1.831,4.102
					c21.652,7.471,38.389,27.871,40.464,50.984C615.851,121.152,620.821,120.239,620.57,117.438L620.57,117.438z"/>
			</g>
			<path fill="#FFFFFF" d="M549.896,221.205c-49.433,0-89.649-40.215-89.649-89.649c0-49.433,40.216-89.65,89.649-89.65
				c49.434,0,89.649,40.217,89.649,89.65C639.546,180.99,599.33,221.205,549.896,221.205z M549.896,49.653
				c-45.161,0-81.902,36.741-81.902,81.903s36.741,81.901,81.902,81.901s81.901-36.739,81.901-81.901S595.058,49.653,549.896,49.653
				z"/>
		</g>
	</g>
	<text transform="matrix(1 0 0 1 433.4849 283.2891)" font-family="'NotoSansKR-Bold-KSCpc-EUC-H'" font-size="18.2008">다이어트푸드 전문점, 비오키친</text>
</g>
<g>
	<g>
		<circle fill="#11A95A" cx="908.266" cy="131.555" r="101.116"/>
		<g>
			<g>
				<path fill="#FFFFFF" d="M908.266,220.161c-48.857,0-88.606-39.747-88.606-88.606c0-48.857,39.749-88.606,88.606-88.606
					s88.606,39.749,88.606,88.606C996.872,180.414,957.123,220.161,908.266,220.161z M908.266,50.605
					c-44.636,0-80.949,36.313-80.949,80.95s36.313,80.949,80.949,80.949c44.637,0,80.949-36.313,80.949-80.949
					S952.902,50.605,908.266,50.605z"/>
			</g>
			<g>
				<path fill="#FFFFFF" d="M948.901,131.946c-0.105,0.079-0.215,0.155-0.301,0.254c-0.303-0.036-0.625-0.013-0.964-0.044
					c-8.053-0.917-11.5,3.209-20.005,13.289c-0.328,0.391-0.492,0.906-0.437,1.412l0.008,0.093c0.075,0.45,0.299,0.864,0.648,1.163
					c0.81,0.675,2.004,0.577,2.675-0.232c7.597-8.997,8.713-11.576,13.581-9.437c-9.278,7.66-11.133,12.75-11.365,13.164
					c-0.208,0.337-0.295,0.738-0.249,1.138c0.093,0.669,0.433,1.16,0.925,1.45c0.44,0.255,0.951,0.33,1.44,0.204
					c0.49-0.132,0.9-0.452,1.156-0.881c0.064-0.116,1.684-3.994,11.713-12.875c0.587,0.289,1.55,1.014,1.731,1.166
					c-2.74,8.675-9.944,14.513-10.066,14.635c-0.424,0.409-0.625,0.98-0.567,1.554c0.07,0.48,0.247,0.839,0.53,1.132
					c0.35,0.359,0.823,0.557,1.331,0.573c0.505,0,0.989-0.186,1.35-0.541c0.441-0.427,6.704-5.861,11.185-14.708
					c0.204,0.01,0.511,0.289,0.633,0.529c3.187,6.431-7.909,15.842-8.027,15.941c-0.507,0.405-0.771,1.035-0.706,1.681
					c0.034,0.355,0.175,0.699,0.396,0.978c0.655,0.83,1.847,0.959,2.661,0.304c0.574-0.447,10.954-9.251,9.697-21.295
					c-0.102-1.019-0.311-2.025-0.62-2.996c1.809-2.036,19.54-23.162,29.874-34.891c-1.046-3.442-2.315-5.634-3.771-8.878
					C973.454,106.894,950.854,130.629,948.901,131.946z"/>
				<path fill="#FFFFFF" d="M934.839,170.237l5.981-3.691c0,0-22.85-10.329-21.186-20.795c0,0,3.251-33.26-5.63-33.722
					c0,0-3.639-0.863-4.907,6.735c0,0-0.579,5.856-5.873,4.146c0,0-4.939-2.168-6.279-9.72c0,0-2.715-14.497-15.27-14.827
					c0,0-8.973,0.662-7.91,9.699c0,0,0.825,6.047,1.888,9.227c0,0-14.268-18.958-28.32-14.512c0,0-8.968,3.678-9.873,13.743
					c0,0-0.29,9.837,8.36,12.813c0,0,10.184,1.393,11.863,4.438c0,0,1.101,2.749-1.676,4.619c0,0-7.106,4.124-3.467,11.658
					c0,0,4.397,9.877,15.722,8.843c0,0,6.688-0.557,8.84-3.233c0,0,1.657-2.979,3.854,0.539c0,0,1.758,3.037-2.493,5.287
					c0.163,0.071-7.436,3.982-0.764,8.85c0,0,11.716,9.354,19.24-2.032c0,0,6.002-11.698,10.408-11.113
					c0,0,9.635,1.438,15.434,5.429L934.839,170.237z M894.183,123.411c0.929-0.225,1.996,0.962,2.382,2.635
					c0.381,1.677-0.059,3.208-0.993,3.428c-0.931,0.214-1.996-0.976-2.382-2.645C892.809,125.152,893.255,123.622,894.183,123.411z
					 M874.497,130.534c-0.929,0.216-1.989-0.964-2.376-2.639c-0.386-1.674,0.062-3.211,0.99-3.42
					c0.929-0.213,1.991,0.964,2.381,2.652C875.872,128.792,875.429,130.326,874.497,130.534z M899.158,142.354
					c-0.149,0.603-0.535,1.266-0.581,1.341l-0.024,0.034l-0.022,0.036c-1.64,2.105-6.453,2.488-6.945,2.519
					c-0.716,0.102-1.544,0.153-2.445,0.142c-1.98-0.021-3.658-0.301-3.741-0.322c-5.757-1.087-9.635-8.136-9.8-8.436l-0.112-0.212
					l0.051-0.236c0.213-1.017,0.961-1.088,1.19-1.084c0.473,0.006,0.891,0.299,0.972,0.347l0.102,0.092l0.072,0.113
					c0.688,1.214,2.426,3.246,2.444,3.269c2.023,2.413,4.974,3.649,8.745,3.69c3.461,0.039,6.368-0.991,6.38-0.991
					c2.446-1.144,0.623-5.708,0.602-5.765c-0.094-0.258-0.393-1.027,0.014-1.627c0.229-0.323,0.607-0.499,1.081-0.495
					c0.237,0,0.426,0.049,0.467,0.063l0.347,0.09l0.104,0.342C899.682,140.356,899.21,142.195,899.158,142.354z"/>
				<path fill="#FFFFFF" d="M933.464,129.098c0.05,0.12,0.147,0.218,0.261,0.266c0.042,0.018,0.08,0.029,0.122,0.034
					c0.051,0.009,5.116,0.913,8.078-4.826c0.083-0.16,0.069-0.346-0.019-0.505c-0.09-0.15-0.264-0.245-0.441-0.245
					c-0.219,0-5.125-0.02-7.981,4.803C933.398,128.769,933.386,128.95,933.464,129.098z"/>
				<path fill="#FFFFFF" d="M929.539,130.83c0.119,0.072,0.271,0.09,0.415,0.054c0.22-0.058,0.382-0.234,0.417-0.461
					c0.119-0.791,0.395-2.722,1.003-3.65c0.045-0.065,5.19-6.845-0.396-15.604c-0.107-0.174-0.302-0.272-0.499-0.261
					c-0.205,0.02-0.387,0.13-0.475,0.312c-0.017,0.03-1.412,2.343-2.298,4.187c-0.037,0.087-4.044,7.837,1.664,15.279
					C929.418,130.74,929.475,130.793,929.539,130.83z"/>
			</g>
		</g>
	</g>
	<text transform="matrix(1 0 0 1 821.9941 283.2881)" font-family="'NotoSansKR-Bold-KSCpc-EUC-H'" font-size="18.2008">비오키친은 지속됩니다</text>
</g>
</svg>
