<?xml version="1.0" encoding="utf-8"?>
<!-- Generator: Adobe Illustrator 16.0.0, SVG Export Plug-In . SVG Version: 6.00 Build 0)  -->
<!DOCTYPE svg PUBLIC "-//W3C//DTD SVG 1.1//EN" "http://www.w3.org/Graphics/SVG/1.1/DTD/svg11.dtd">
<svg version="1.1" id="Layer_1" xmlns="http://www.w3.org/2000/svg" xmlns:xlink="http://www.w3.org/1999/xlink" x="0px" y="0px"
	 width="1100px" height="326px" viewBox="0 0 1100 326" enable-background="new 0 0 1100 326" xml:space="preserve">
<g>
	<rect x="339.367" y="126.594" fill="#11A95A" width="40.328" height="10.934"/>
	<path fill="#11A95A" d="M367.585,115.572l11.396,15.603l-11.396,16.364c0.191-0.311,34.296-9.537,34.471-16.143
		C402.25,124.098,367.585,115.572,367.585,115.572"/>
</g>
<g>
	<rect x="697.736" y="126.594" fill="#11A95A" width="40.328" height="10.934"/>
	<path fill="#11A95A" d="M725.953,115.572l11.396,15.603l-11.396,16.364c0.191-0.311,34.297-9.537,34.472-16.143
		C760.617,124.098,725.953,115.572,725.953,115.572"/>
</g>
<g>
	<circle fill="#11A95A" cx="191.528" cy="131.556" r="101.116"/>
	<path fill="#FFFFFF" d="M154.082,92.273c0,0,0.261-1.961,4.015-1.378c0,0,2.82,0.65,2.986-2.277c0,0-0.113-2.824-3.375-4.705
		c0,0-6.231-3.686-4.116-10.022c0,0,1.929-4.393,5.933-2.409c0,0,2.652,1.382,3.937,2.42c0,0-6.213-10.187-1.608-16.509
		c0,0,3.326-3.903,8.157-2.744c0,0,4.615,1.433,4.434,6.242c0,0-1.196,5.326-0.087,6.657c0,0,1.076,0.992,2.447-0.099
		c0,0,3.197-2.899,6.031,0.128c0,0,3.79,3.784,1.262,9.296c0,0-1.467,3.261-3.099,3.911c0,0-1.686,0.353-0.448,2.015
		c0,0,1.094,1.364,2.903-0.402c0.004,0.096,3.19-3.085,4.243,1.033c0,0,2.221,7.373-4.426,9.318c0,0-6.511,1.13-7.037,3.432
		c0,0-1.073,5.056-0.273,8.602l1.598,9.581l-2.606-0.067c0,0-1.091-12.953-6.247-13.798
		C168.704,100.497,152.693,96.794,154.082,92.273z"/>
	<path fill="#FFFFFF" d="M167.997,164.337c0,0,13.51-10.252,2.176-34.281c0,0-7.803-15.151-20.122-13.845
		c0,0-9.036,3.205-12.428,0.129c0,0-4.012-3.043-5.886-1.251c0,0-0.839,0.755-0.406,2.527c0.198,0.813,1.48,2.905,1.6,4.09
		c0,0,0.954,3.004-2.538,8.349c0,0-8.018,9.043,3.371,24.492C133.764,154.547,146.558,178.006,167.997,164.337z"/>
	<g>
		<g>
			<path fill="#FFFFFF" d="M179.197,196.718c-6.762,0-14.601-3.833-23.296-11.391c-0.391-0.341-0.581-0.856-0.506-1.368
				c0.077-0.514,0.409-0.95,0.883-1.162l44.042-19.638c0.494-0.22,1.071-0.16,1.51,0.159c0.438,0.319,0.673,0.848,0.615,1.388
				C202.305,166.014,198.79,196.718,179.197,196.718z M159.722,184.584c7.376,6.041,13.919,9.1,19.475,9.1
				c13.816,0,18.545-19.392,19.826-26.625L159.722,184.584z"/>
		</g>
		<g>
			<path fill="#FFFFFF" d="M175.952,186.338c-0.048,0-0.096-0.003-0.145-0.01c-0.553-0.078-0.938-0.589-0.858-1.143l0.744-5.283
				c0.079-0.555,0.595-0.938,1.145-0.86c0.553,0.078,0.938,0.59,0.858,1.144l-0.744,5.283
				C176.88,185.975,176.448,186.338,175.952,186.338z"/>
		</g>
		<g>
			<path fill="#FFFFFF" d="M183.504,184.688c-0.284,0-0.564-0.119-0.767-0.35l-3.493-4.033c-0.365-0.421-0.32-1.061,0.103-1.426
				c0.422-0.365,1.062-0.318,1.426,0.104l3.494,4.033c0.367,0.422,0.32,1.061-0.101,1.426
				C183.974,184.607,183.737,184.688,183.504,184.688z"/>
		</g>
		<g>
			<path fill="#FFFFFF" d="M188.264,179.105c-0.123,0-0.249-0.021-0.369-0.069l-4.967-1.946c-0.521-0.203-0.776-0.79-0.572-1.311
				c0.203-0.52,0.79-0.778,1.31-0.571l4.969,1.946c0.52,0.203,0.776,0.789,0.573,1.31
				C189.048,178.861,188.667,179.105,188.264,179.105z"/>
		</g>
	</g>
	<path fill="#FFFFFF" d="M249.674,166.505l4.838-1.237c0,0,0.518-0.623-0.29-0.664l-4.298,0.844c0,0-1.823-1.602-4.793-2.551
		c1.043-0.831,2.783-2.461,2.528-3.961l3.294-2.059c0,0,0.24-0.583-0.37-0.423l-2.988,1.639c0,0-2.986-1.307-6.612-0.494
		c0.614-1.033,1.203-2.279,1.723-3.806c0,0,1.043-4.226-0.66-5.541l1.022-3.746c0,0-0.221-0.59-0.561-0.059l-1.081,3.229
		c0,0-5.417,1.876-6.805,7.79c-0.177-0.751-0.396-1.541-0.701-2.396c0,0-1.81-3.958-3.958-3.93l-1.53-3.568
		c0,0-0.539-0.326-0.476,0.3l1.163,3.203c0,0-1.234,1.942-1.483,4.76c-1.308-1.159-3.306-2.563-4.93-2.067l-3.167-3.859
		c0,0-0.784-0.208-0.48,0.544l2.583,3.536c0,0-0.952,3.274,0.061,7.21c-1.521-0.579-3.991-1.255-5.313-0.182l-4.076-2.208
		c0,0-0.747,0.096-0.224,0.635l3.46,2.138c0,0,1.098,10.618,13.21,11.612c-0.604,1.244-1.199,2.55-1.76,3.873
		c-1.389,3.303-2.558,6.697-3.228,9.328c-0.356,1.309-0.586,2.426-0.733,3.213c-0.148,0.789-0.2,1.252-0.2,1.252
		s0.296-0.36,0.754-1.019c0.462-0.655,1.1-1.602,1.786-2.771c1.416-2.318,3.024-5.526,4.418-8.827
		c0.584-1.394,1.125-2.802,1.613-4.165c1.482,1.836,4.577,4.207,10.919,5.031c0,0,5.325,0.233,6.493-2.127l4.744,0.32
		c0,0,0.658-0.406-0.063-0.688l-4.14-0.518c0,0-1.258-2.136-3.835-3.921C247.15,169.5,249.427,168.251,249.674,166.505z"/>
	<path fill="#FFFFFF" d="M260.603,92.086c-0.675-6.101-5.688-4.821-5.688-4.821c-10.495,2.115-7.799-1.965-7.799-1.965
		c7.807-7.556,5.551-10.74,5.551-10.74c-6.608-10.108-13.439,5.861-13.439,5.861c-5.626,12.784-9.754,15.774-9.754,15.774
		c-8.994,7.727-7.155-0.389-7.155-0.389c12.612-12.468,8.079-15.839,8.079-15.839c-5.025-4.917-8.048,3.304-8.048,3.304
		c-1.406-1.633,0.531-5.004,0.531-5.004c3.51-7.593-3.365-8.142-3.365-8.142c-6.059-1.057-4.295,16.428-4.295,16.428
		c-2.63-11.02-10.508-8.591-10.508-8.591c-6.444,1.607,1.157,10.943,1.157,10.943c7.386,7.566,2.55,15.683,0.024,18.928
		c0.289,0.229,0.593,0.462,0.892,0.716c0.321,0.273,0.646,0.56,1.019,0.815c0.363,0.262,0.719,0.544,1.074,0.824
		c0.338,0.302,0.721,0.552,1.088,0.814c0.37,0.259,0.723,0.53,1.065,0.797c0.347,0.256,0.648,0.559,0.984,0.775
		c0.328,0.231,0.628,0.466,0.906,0.687c1.116,0.867,1.805,1.618,1.805,1.618s-0.979-0.136-2.364-0.6
		c-0.348-0.113-0.723-0.238-1.113-0.389c-0.397-0.132-0.772-0.366-1.178-0.574c-0.4-0.218-0.812-0.449-1.221-0.699
		c-0.417-0.24-0.825-0.502-1.203-0.823c-0.379-0.312-0.76-0.623-1.12-0.944c-0.377-0.3-0.694-0.665-0.995-1.023
		c-0.233-0.272-0.44-0.534-0.646-0.797c-0.162,0.176-0.257,0.269-0.257,0.269c-0.456,0.448-0.892,0.893-1.306,1.333
		c0.209,0.164,0.419,0.324,0.628,0.503c0.321,0.274,0.646,0.561,1.021,0.814c0.361,0.263,0.717,0.544,1.072,0.825
		c0.338,0.302,0.721,0.552,1.088,0.813c0.369,0.259,0.723,0.529,1.063,0.796c0.348,0.257,0.649,0.56,0.985,0.775
		c0.328,0.231,0.628,0.467,0.906,0.687c1.116,0.867,1.805,1.619,1.805,1.619s-0.979-0.136-2.364-0.601
		c-0.346-0.113-0.723-0.238-1.111-0.388c-0.399-0.132-0.774-0.367-1.18-0.575c-0.398-0.218-0.812-0.448-1.221-0.698
		c-0.415-0.24-0.825-0.502-1.201-0.822c-0.381-0.312-0.76-0.623-1.122-0.943c-0.375-0.301-0.694-0.665-0.995-1.023
		c-0.168-0.196-0.313-0.384-0.467-0.576c-0.53,0.609-1.015,1.208-1.469,1.798c0.12,0.119,0.249,0.24,0.396,0.362
		c0.263,0.227,0.543,0.469,0.818,0.735c0.309,0.245,0.639,0.496,0.96,0.769c0.322,0.273,0.646,0.56,1.02,0.815
		c0.362,0.263,0.719,0.544,1.073,0.824c0.339,0.302,0.722,0.552,1.089,0.814c0.368,0.26,0.723,0.53,1.063,0.797
		c0.348,0.256,0.649,0.559,0.985,0.775c0.328,0.231,0.628,0.466,0.907,0.687c1.115,0.867,1.805,1.618,1.805,1.618
		s-0.979-0.136-2.364-0.6c-0.348-0.113-0.723-0.238-1.114-0.388c-0.398-0.133-0.771-0.367-1.177-0.575
		c-0.4-0.218-0.812-0.449-1.22-0.699c-0.417-0.24-0.826-0.502-1.203-0.822c-0.379-0.313-0.76-0.624-1.122-0.944
		c-0.375-0.3-0.695-0.665-0.993-1.023c-0.302-0.354-0.589-0.699-0.844-1.039c-0.231-0.368-0.43-0.724-0.61-1.05
		c-0.043-0.068-0.07-0.14-0.106-0.21c-8.471,11.769-2.275,19.682-2.275,19.682c13.877,15.903,21.815-11.496,21.815-11.496
		c1.78-8.844,13.712-0.912,13.712-0.912c15.539,9.181,11.812-7.591,11.812-7.591c-1.627-7.105-10.228-2.723-10.228-2.723
		c-8.988,4.053-2.57-6.96-2.57-6.96c4.744-6.637,8.733-0.257,8.733-0.257c5.417,8.89,9.663,2.044,7.82-1.816
		c-2.697-7.341,1.518-6.422,1.518-6.422C261.649,98.702,260.603,92.086,260.603,92.086z"/>
</g>
<g>
	<path fill="#143D26" d="M109.079,278.865c2.385-0.036,4.369-0.163,6.535-0.527l0.237,1.984c-2.53,0.455-4.824,0.546-7.737,0.546
		h-1.438v-11.231h7.828v1.947h-5.425V278.865z M121.603,276.263h-2.439v8.628h-2.403v-16.802h2.403v6.189h2.439V276.263z"/>
	<path fill="#143D26" d="M132.068,275.225c0,3.695-1.875,6.008-4.406,6.008c-2.53,0-4.405-2.313-4.405-6.008
		c0-3.677,1.875-5.971,4.405-5.971C130.193,269.254,132.068,271.548,132.068,275.225z M125.569,275.225
		c0,2.494,0.855,3.823,2.093,3.823c1.238,0,2.094-1.329,2.094-3.823c0-2.476-0.855-3.805-2.094-3.805
		C126.424,271.42,125.569,272.749,125.569,275.225z M136.673,268.07v16.82h-2.403v-16.82H136.673z"/>
	<path fill="#143D26" d="M153.6,268.07v16.82h-2.403v-8.828h-2.785c-0.255,3.203-1.966,5.17-4.296,5.17
		c-2.494,0-4.333-2.313-4.333-6.008c0-3.677,1.838-5.971,4.333-5.971c2.257,0,3.95,1.839,4.278,4.86h2.803v-6.044H153.6z
		 M146.173,275.225c0-2.476-0.819-3.805-2.057-3.805c-1.22,0-2.039,1.329-2.039,3.805c0,2.494,0.819,3.823,2.039,3.823
		C145.353,279.048,146.173,277.719,146.173,275.225z"/>
	<path fill="#143D26" d="M171.455,280.978v1.947h-15.182v-1.947H171.455z M169.835,278.629h-11.778v-9.32h11.65v1.93h-9.211v1.766
		h8.829v1.856h-8.829v1.875h9.339V278.629z"/>
	<path fill="#143D26" d="M188.199,276.244v1.93h-15.182v-1.93H188.199z M177.15,282.579h9.466v1.93h-11.887v-5.006h2.421V282.579z
		 M186.525,274.533h-11.632v-5.844h2.402v3.933h9.229V274.533z"/>
	<path fill="#143D26" d="M200.374,272.604c0,2.73,1.347,5.625,4.15,6.79l-1.311,1.894c-1.948-0.838-3.277-2.477-4.023-4.497
		c-0.746,2.185-2.094,4.023-4.06,4.915l-1.365-1.911c2.804-1.256,4.169-4.332,4.169-7.19v-0.929h-3.495v-1.984h9.393v1.984h-3.458
		V272.604z M207.782,268.089v16.766h-2.402v-16.766H207.782z"/>
	<path fill="#143D26" d="M225.802,276.208v1.911h-15.163v-1.911h6.353v-2.166h2.403v2.166H225.802z M224.091,275.007
		c-2.821-0.401-4.86-1.566-5.916-3.241c-1.056,1.657-3.095,2.84-5.898,3.241l-0.892-1.875c3.768-0.455,5.57-2.367,5.57-4.26v-0.492
		h2.457v0.492c0,1.947,1.766,3.805,5.553,4.26L224.091,275.007z M212.313,279.303h11.65v5.57h-2.402v-3.678h-9.248V279.303z"/>
	<path fill="#143D26" d="M238.106,276.918c-3.568,0.637-7.445,0.691-10.358,0.71l-0.327-1.857c1.292,0,2.767,0,4.277-0.054v-1.293
		h-2.876v-5.57h8.064v1.911h-5.661v1.766h5.752v1.894h-2.876v1.184c1.311-0.055,2.604-0.164,3.822-0.347L238.106,276.918z
		 M238.997,278.483h2.367v6.171h-11.342v-6.171h2.385v1.256h6.59V278.483z M238.997,281.56h-6.59v1.22h6.59V281.56z
		 M241.365,268.089v9.721h-2.403v-9.721H241.365z"/>
	<path fill="#143D26" d="M247.386,278.665c2.203-0.055,4.588-0.236,7.045-0.728l0.255,2.002c-2.857,0.601-5.643,0.783-8.191,0.783
		h-1.493v-11.05h2.385V278.665z M258.126,268.07v16.766h-2.402V268.07H258.126z"/>
	<path fill="#143D26" d="M263.913,278.865c2.384-0.036,4.368-0.163,6.535-0.527l0.236,1.984c-2.53,0.455-4.824,0.546-7.736,0.546
		h-1.438v-11.231h7.827v1.947h-5.424V278.865z M276.437,276.263h-2.439v8.628h-2.402v-16.802h2.402v6.189h2.439V276.263z"/>
</g>
<g>
	<circle fill="#11A95A" cx="549.896" cy="131.556" r="101.115"/>
	<g>
		<path fill="#FFFFFF" d="M508.071,82.114c0,0-4.259,22.404,11.024,25.132c0.593,0.867,2.493,2.121,2.845,7.669
			c0,0,5.052,56.83,14.9,55.082c0,0,9.154,2.698,6.541-9.652l-12.376-47.01c0,0-0.812-5.787,0.485-7.383
			c0,0,7.411-5.533,5.942-12.502c0,0-4.374-12.969-7.523-16.275c0,0-6.86-1.527-6.059,2.271l5.303,15.422
			c0,0-3.256,2.01-4.395-3.374l-2.797-11.318c0,0-5.048-4.557-6.717,1.087l2.626,16.318c0,0-2.214,1.129-2.745-1.403l-2.554-14.02
			C512.573,82.157,510.6,78.603,508.071,82.114z"/>
		<path fill="#FFFFFF" d="M591.105,100.936c0,0-11.604,2.038-17.646,12.002c0,0-21.523,29.958-8.106,35.223
			c0,0,0.586,2.435-2.119,6.702c0,0-18.181,29.245-12.35,34.107c0,0,4.057,5.449,5.231,1.136
			C556.116,190.105,600.966,99.478,591.105,100.936z"/>
		<g>
			<path fill="#FFFFFF" d="M480.105,147.525c2.999,24.683,21.912,45.579,45.23,52.814c2.759,0.854,4.975-3.126,1.828-4.103
				c-21.87-6.786-39.287-26.584-42.09-49.64C484.736,143.811,479.764,144.729,480.105,147.525L480.105,147.525z"/>
		</g>
		<g>
			<path fill="#FFFFFF" d="M620.57,117.438c-2.227-24.785-20.525-46.195-43.603-54.158c-2.74-0.945-4.938,3.03-1.831,4.102
				c21.651,7.471,38.389,27.871,40.464,50.984C615.851,121.152,620.821,120.239,620.57,117.438L620.57,117.438z"/>
		</g>
		<path fill="#FFFFFF" d="M549.896,221.205c-49.433,0-89.649-40.215-89.649-89.649c0-49.433,40.217-89.65,89.649-89.65
			c49.434,0,89.649,40.217,89.649,89.65C639.546,180.99,599.329,221.205,549.896,221.205z M549.896,49.653
			c-45.161,0-81.902,36.741-81.902,81.903c0,45.162,36.741,81.901,81.902,81.901s81.901-36.739,81.901-81.901
			C631.797,86.394,595.058,49.653,549.896,49.653z"/>
	</g>
</g>
<g>
	<path fill="#143D26" d="M437.307,278.865c2.385-0.036,4.369-0.163,6.535-0.527l0.237,1.984c-2.53,0.455-4.824,0.546-7.737,0.546
		h-1.438v-11.231h7.828v1.947h-5.425V278.865z M449.832,276.263h-2.439v8.628h-2.403v-16.802h2.403v6.189h2.439V276.263z"/>
	<path fill="#143D26" d="M460.296,275.225c0,3.695-1.875,6.008-4.406,6.008c-2.53,0-4.405-2.313-4.405-6.008
		c0-3.677,1.875-5.971,4.405-5.971C458.421,269.254,460.296,271.548,460.296,275.225z M453.797,275.225
		c0,2.494,0.855,3.823,2.093,3.823c1.238,0,2.094-1.329,2.094-3.823c0-2.476-0.855-3.805-2.094-3.805
		C454.653,271.42,453.797,272.749,453.797,275.225z M464.902,268.07v16.82h-2.403v-16.82H464.902z"/>
	<path fill="#143D26" d="M481.828,268.07v16.82h-2.403v-8.828h-2.785c-0.255,3.203-1.966,5.17-4.296,5.17
		c-2.494,0-4.333-2.313-4.333-6.008c0-3.677,1.838-5.971,4.333-5.971c2.257,0,3.95,1.839,4.278,4.86h2.803v-6.044H481.828z
		 M474.401,275.225c0-2.476-0.819-3.805-2.057-3.805c-1.22,0-2.039,1.329-2.039,3.805c0,2.494,0.819,3.823,2.039,3.823
		C473.582,279.048,474.401,277.719,474.401,275.225z"/>
	<path fill="#143D26" d="M499.684,280.978v1.947h-15.182v-1.947H499.684z M498.064,278.629h-11.778v-9.32h11.65v1.93h-9.211v1.766
		h8.829v1.856h-8.829v1.875h9.339V278.629z"/>
	<path fill="#143D26" d="M516.409,279.758h-6.39v5.097h-2.402v-5.097h-6.39v-1.93h15.182V279.758z M504.741,270.747h-2.13v-1.912
		h12.487v1.912h-2.148v3.768h2.021v1.911H502.72v-1.911h2.021V270.747z M510.567,270.747h-3.423v3.768h3.423V270.747z"/>
	<path fill="#143D26" d="M533.173,280.886v1.967h-15.182v-1.967H533.173z M531.553,277.737h-11.796v-8.265h11.668v1.947h-9.266
		v4.405h9.394V277.737z"/>
	<path fill="#143D26" d="M547.805,278.155c-1.839-0.601-3.095-1.802-3.805-3.313c-0.746,1.656-2.057,2.985-4.022,3.641l-1.202-1.911
		c2.749-0.893,3.95-3.095,3.95-5.207v-0.236h-3.295v-1.911h9.012v1.911h-3.259v0.219c0,1.984,1.146,4.041,3.786,4.933
		L547.805,278.155z M553.266,282.652v1.911h-11.432v-5.261h2.403v3.35H553.266z M550.481,272.422v-4.333h2.403v12.233h-2.403v-5.953
		h-2.621v-1.947H550.481z"/>
	<path fill="#143D26" d="M570.776,276.372v1.893h-6.171v2.858h-2.403v-2.858h-6.607v-1.893H570.776z M559.763,282.652h9.338v1.911
		H557.36v-4.86h2.403V282.652z M568.846,275.043h-11.377v-6.244h11.377V275.043z M566.48,270.674h-6.645v2.476h6.645V270.674z"/>
	<path fill="#143D26" d="M581.294,277.5c-1.839-0.601-3.076-1.802-3.805-3.295c-0.746,1.657-2.057,2.968-4.005,3.623l-1.22-1.911
		c2.694-0.874,3.896-2.986,3.95-5.062h-3.295v-1.911h9.012v1.911h-3.259c0.072,1.93,1.22,3.914,3.786,4.77L581.294,277.5z
		 M575.214,278.465h11.159v6.189h-11.159V278.465z M577.58,282.779h6.444v-2.439h-6.444V282.779z M586.373,268.089v9.685h-2.403
		v-3.859h-2.53v-1.947h2.53v-3.878H586.373z"/>
	<path fill="#143D26" d="M589.283,285.71c1.401-0.527,2.185-1.438,2.185-2.494c-0.055,0-0.109,0-0.164,0
		c-0.874,0-1.675-0.563-1.675-1.583c0-0.965,0.783-1.584,1.729-1.584c1.238,0,1.93,0.983,1.93,2.64c0,2.13-1.256,3.75-3.44,4.478
		L589.283,285.71z"/>
	<path fill="#143D26" d="M602.351,269.418v4.06h3.495v-4.06h2.385v11.56h-8.265v-11.56H602.351z M602.351,279.065h3.495v-3.713
		h-3.495V279.065z M613.036,268.07v16.82h-2.402v-16.82H613.036z"/>
	<path fill="#143D26" d="M631.074,280.959v1.948h-15.182v-1.948h6.371v-2.84c-2.949-0.364-5.043-2.057-5.043-4.551
		c0-2.804,2.676-4.624,6.244-4.624c3.586,0,6.262,1.82,6.262,4.624c0,2.494-2.093,4.205-5.061,4.551v2.84H631.074z M623.465,276.28
		c2.312,0,3.896-1.001,3.896-2.712s-1.584-2.713-3.896-2.713c-2.294,0-3.877,1.002-3.877,2.713S621.171,276.28,623.465,276.28z"/>
	<path fill="#143D26" d="M641.721,269.69c0,5.17-1.401,9.558-7.682,12.707l-1.274-1.894c2.73-1.365,4.46-2.913,5.443-4.77
		l-4.988,0.455l-0.31-2.021l6.062-0.346c0.164-0.691,0.292-1.42,0.364-2.221h-5.57v-1.912H641.721z M646.6,268.07v16.766h-2.421
		V268.07H646.6z"/>
	<path fill="#143D26" d="M658.72,278.338c-1.911-0.528-3.222-1.639-4.005-3.04c-0.746,1.529-2.093,2.749-4.041,3.313l-1.129-1.856
		c2.73-0.819,3.933-2.785,3.933-4.751v-0.091h-3.386v-1.894h3.386v-1.839h2.402v1.839h3.368v1.894h-3.368v0.091
		c0,1.839,1.22,3.714,3.95,4.46L658.72,278.338z M663.726,282.652v1.911h-11.577v-5.279h2.402v3.368H663.726z M663.308,280.358
		h-2.422v-12.27h2.422V280.358z"/>
</g>
<g>
	<circle fill="#11A95A" cx="908.266" cy="131.555" r="101.116"/>
	<g>
		<g>
			<path fill="#FFFFFF" d="M908.266,220.161c-48.857,0-88.606-39.747-88.606-88.606c0-48.857,39.749-88.606,88.606-88.606
				c48.856,0,88.605,39.749,88.605,88.606C996.871,180.414,957.122,220.161,908.266,220.161z M908.266,50.605
				c-44.636,0-80.949,36.313-80.949,80.95c0,44.636,36.313,80.949,80.949,80.949c44.637,0,80.949-36.313,80.949-80.949
				S952.902,50.605,908.266,50.605z"/>
		</g>
		<g>
			<path fill="#FFFFFF" d="M948.901,131.946c-0.104,0.079-0.215,0.155-0.301,0.254c-0.303-0.036-0.625-0.013-0.964-0.044
				c-8.054-0.917-11.5,3.209-20.005,13.289c-0.328,0.391-0.492,0.906-0.438,1.412l0.008,0.093c0.075,0.45,0.299,0.864,0.648,1.163
				c0.81,0.675,2.004,0.577,2.675-0.232c7.597-8.997,8.713-11.576,13.581-9.437c-9.278,7.66-11.133,12.75-11.365,13.164
				c-0.208,0.337-0.295,0.738-0.249,1.138c0.093,0.669,0.434,1.16,0.925,1.45c0.44,0.255,0.951,0.33,1.44,0.204
				c0.49-0.132,0.9-0.452,1.156-0.881c0.063-0.116,1.684-3.994,11.713-12.875c0.587,0.289,1.55,1.014,1.73,1.166
				c-2.739,8.675-9.943,14.513-10.065,14.635c-0.424,0.409-0.625,0.98-0.567,1.554c0.07,0.48,0.247,0.839,0.53,1.132
				c0.35,0.359,0.823,0.557,1.331,0.573c0.505,0,0.989-0.186,1.35-0.541c0.441-0.427,6.704-5.861,11.186-14.708
				c0.204,0.01,0.511,0.289,0.633,0.529c3.187,6.431-7.909,15.842-8.027,15.941c-0.507,0.405-0.771,1.035-0.706,1.681
				c0.034,0.355,0.176,0.699,0.396,0.978c0.655,0.83,1.847,0.959,2.661,0.305c0.573-0.448,10.954-9.252,9.696-21.296
				c-0.102-1.019-0.311-2.025-0.619-2.996c1.809-2.036,19.54-23.162,29.874-34.891c-1.046-3.442-2.315-5.634-3.771-8.878
				C973.453,106.894,950.854,130.629,948.901,131.946z"/>
			<path fill="#FFFFFF" d="M934.839,170.236l5.98-3.69c0,0-22.85-10.329-21.186-20.795c0,0,3.251-33.26-5.63-33.722
				c0,0-3.64-0.863-4.907,6.735c0,0-0.579,5.856-5.873,4.146c0,0-4.939-2.168-6.279-9.72c0,0-2.715-14.497-15.27-14.827
				c0,0-8.974,0.662-7.91,9.699c0,0,0.825,6.047,1.888,9.227c0,0-14.268-18.958-28.319-14.512c0,0-8.969,3.678-9.873,13.743
				c0,0-0.29,9.837,8.359,12.813c0,0,10.185,1.393,11.863,4.438c0,0,1.101,2.749-1.676,4.619c0,0-7.106,4.124-3.468,11.658
				c0,0,4.397,9.877,15.723,8.843c0,0,6.688-0.557,8.84-3.233c0,0,1.657-2.979,3.854,0.539c0,0,1.759,3.037-2.492,5.287
				c0.163,0.071-7.437,3.982-0.765,8.85c0,0,11.717,9.354,19.24-2.031c0,0,6.002-11.699,10.408-11.114c0,0,9.635,1.438,15.434,5.429
				L934.839,170.236z M894.183,123.411c0.929-0.225,1.996,0.962,2.382,2.635c0.381,1.677-0.059,3.208-0.993,3.428
				c-0.931,0.214-1.996-0.976-2.382-2.645C892.809,125.152,893.255,123.622,894.183,123.411z M874.496,130.534
				c-0.929,0.216-1.988-0.964-2.376-2.639c-0.386-1.674,0.063-3.211,0.99-3.42c0.929-0.213,1.991,0.964,2.381,2.652
				C875.871,128.792,875.429,130.326,874.496,130.534z M899.157,142.354c-0.148,0.603-0.534,1.266-0.581,1.341l-0.023,0.034
				l-0.022,0.036c-1.64,2.105-6.453,2.488-6.944,2.519c-0.717,0.102-1.544,0.153-2.445,0.142c-1.98-0.021-3.658-0.301-3.741-0.322
				c-5.757-1.087-9.635-8.136-9.8-8.436l-0.112-0.212l0.052-0.236c0.213-1.017,0.961-1.088,1.189-1.084
				c0.473,0.006,0.891,0.299,0.972,0.347l0.103,0.092l0.072,0.113c0.688,1.214,2.426,3.246,2.443,3.269
				c2.023,2.413,4.975,3.649,8.745,3.69c3.461,0.039,6.368-0.991,6.38-0.991c2.446-1.144,0.623-5.708,0.603-5.765
				c-0.095-0.258-0.394-1.027,0.014-1.627c0.229-0.323,0.606-0.499,1.081-0.495c0.237,0,0.426,0.049,0.467,0.063l0.347,0.09
				l0.104,0.342C899.682,140.356,899.21,142.195,899.157,142.354z"/>
			<path fill="#FFFFFF" d="M933.464,129.098c0.05,0.12,0.146,0.218,0.261,0.266c0.042,0.018,0.08,0.029,0.122,0.034
				c0.051,0.009,5.116,0.913,8.078-4.826c0.083-0.16,0.068-0.346-0.02-0.505c-0.09-0.15-0.264-0.245-0.44-0.245
				c-0.22,0-5.125-0.021-7.981,4.803C933.398,128.769,933.386,128.95,933.464,129.098z"/>
			<path fill="#FFFFFF" d="M929.538,130.83c0.119,0.072,0.271,0.09,0.415,0.054c0.221-0.058,0.383-0.234,0.417-0.461
				c0.119-0.791,0.396-2.722,1.003-3.65c0.045-0.065,5.19-6.845-0.396-15.604c-0.107-0.174-0.302-0.272-0.499-0.261
				c-0.205,0.02-0.387,0.13-0.475,0.312c-0.018,0.03-1.412,2.343-2.299,4.187c-0.036,0.087-4.044,7.837,1.664,15.279
				C929.418,130.74,929.475,130.793,929.538,130.83z"/>
		</g>
	</g>
</g>
<g>
	<path fill="#143D26" d="M825.981,269.417v4.06h3.495v-4.06h2.384v11.56h-8.264v-11.56H825.981z M825.981,279.064h3.495v-3.713
		h-3.495V279.064z M836.666,268.069v16.82h-2.402v-16.82H836.666z"/>
	<path fill="#143D26" d="M854.703,280.958v1.948h-15.182v-1.948h6.371v-2.84c-2.949-0.364-5.043-2.057-5.043-4.551
		c0-2.804,2.676-4.624,6.244-4.624c3.586,0,6.262,1.82,6.262,4.624c0,2.494-2.094,4.205-5.061,4.551v2.84H854.703z M847.094,276.279
		c2.313,0,3.896-1.001,3.896-2.712s-1.583-2.713-3.896-2.713c-2.293,0-3.877,1.002-3.877,2.713S844.801,276.279,847.094,276.279z"/>
	<path fill="#143D26" d="M865.35,269.689c0,5.17-1.402,9.558-7.682,12.707l-1.275-1.894c2.73-1.365,4.461-2.913,5.443-4.77
		l-4.988,0.455l-0.309-2.021l6.062-0.346c0.163-0.691,0.291-1.42,0.364-2.221h-5.57v-1.912H865.35z M870.229,268.069v16.766h-2.422
		v-16.766H870.229z"/>
	<path fill="#143D26" d="M882.35,278.337c-1.912-0.528-3.223-1.639-4.006-3.04c-0.746,1.529-2.092,2.749-4.041,3.313l-1.129-1.856
		c2.73-0.819,3.934-2.785,3.934-4.751v-0.091h-3.387v-1.894h3.387v-1.839h2.402v1.839h3.367v1.894h-3.367v0.091
		c0,1.839,1.219,3.714,3.949,4.46L882.35,278.337z M887.356,282.651v1.911h-11.578v-5.279h2.402v3.368H887.356z M886.938,280.357
		h-2.422v-12.27h2.422V280.357z"/>
	<path fill="#143D26" d="M904.901,276.644v1.911h-15.145v-1.911H904.901z M891.266,272.038c0-2.13,2.422-3.459,6.063-3.459
		c3.658,0,6.08,1.329,6.08,3.459s-2.422,3.459-6.08,3.459C893.688,275.497,891.266,274.168,891.266,272.038z M893.996,282.651h9.211
		v1.911h-11.613v-4.879h2.402V282.651z M893.742,272.038c0,1.038,1.346,1.548,3.586,1.548c2.256,0,3.604-0.51,3.604-1.548
		c0-1.02-1.348-1.565-3.604-1.565C895.088,270.473,893.742,271.019,893.742,272.038z"/>
	<path fill="#143D26" d="M917.112,272.603c0,2.73,1.348,5.625,4.15,6.79l-1.311,1.894c-1.947-0.838-3.277-2.477-4.023-4.497
		c-0.746,2.185-2.094,4.023-4.059,4.915l-1.365-1.911c2.803-1.256,4.168-4.332,4.168-7.19v-0.929h-3.494v-1.984h9.393v1.984h-3.459
		V272.603z M924.52,268.088v16.766h-2.402v-16.766H924.52z"/>
	<path fill="#143D26" d="M942.539,276.207v1.911h-15.162v-1.911h6.352v-2.166h2.404v2.166H942.539z M940.828,275.006
		c-2.82-0.401-4.859-1.566-5.916-3.241c-1.055,1.657-3.094,2.84-5.898,3.241l-0.891-1.875c3.768-0.455,5.57-2.367,5.57-4.26v-0.492
		h2.457v0.492c0,1.947,1.766,3.805,5.553,4.26L940.828,275.006z M929.051,279.302h11.65v5.57h-2.402v-3.678h-9.248V279.302z"/>
	<path fill="#143D26" d="M954.844,276.917c-3.568,0.637-7.445,0.691-10.359,0.71l-0.326-1.857c1.291,0,2.766,0,4.277-0.054v-1.293
		h-2.877v-5.57h8.064v1.911h-5.66v1.766h5.752v1.894h-2.877v1.184c1.311-0.055,2.604-0.164,3.822-0.347L954.844,276.917z
		 M955.735,278.482h2.367v6.171H946.76v-6.171h2.385v1.256h6.59V278.482z M955.735,281.559h-6.59v1.22h6.59V281.559z
		 M958.102,268.088v9.721h-2.402v-9.721H958.102z"/>
	<path fill="#143D26" d="M964.123,278.664c2.203-0.055,4.588-0.236,7.045-0.728l0.256,2.002c-2.857,0.601-5.643,0.783-8.191,0.783
		h-1.494v-11.05h2.385V278.664z M974.864,268.069v16.766h-2.402v-16.766H974.864z"/>
	<path fill="#143D26" d="M980.651,278.864c2.385-0.036,4.369-0.163,6.535-0.527l0.236,1.984c-2.529,0.455-4.824,0.546-7.736,0.546
		h-1.438v-11.231h7.826v1.947h-5.424V278.864z M993.174,276.262h-2.439v8.628h-2.402v-16.802h2.402v6.189h2.439V276.262z"/>
</g>
</svg>
