<?xml version="1.0" encoding="utf-8"?>
<!-- Generator: Adobe Illustrator 16.0.0, SVG Export Plug-In . SVG Version: 6.00 Build 0)  -->
<!DOCTYPE svg PUBLIC "-//W3C//DTD SVG 1.1//EN" "http://www.w3.org/Graphics/SVG/1.1/DTD/svg11.dtd">
<svg version="1.1" id="Layer_1" xmlns="http://www.w3.org/2000/svg" xmlns:xlink="http://www.w3.org/1999/xlink" x="0px" y="0px"
	 width="200px" height="200px" viewBox="111.5 197 200 200" enable-background="new 111.5 197 200 200" xml:space="preserve">
<g>
	<circle fill="#11A95A" cx="1258.83" cy="273.378" r="117.002"/>
	<g>
		<g>
			<rect x="1280.219" y="258.507" fill="#FFFFFF" width="36.23" height="31.033"/>
			<rect x="1240.181" y="224.712" fill="#FFFFFF" width="38.038" height="31.795"/>
			<rect x="1240.181" y="258.507" fill="#FFFFFF" width="38.038" height="31.033"/>
			<rect x="1280.219" y="224.712" fill="#FFFFFF" width="36.23" height="31.795"/>
		</g>
		<path fill="#FFFFFF" d="M1326.334,272.271h-90.382v-40.194h-26.313l-18.306,29.745c0,0,0.567,38.655,0,43.475
			c-0.088,0.751,7.108,1.153,18.209,1.329c-0.136,0.84-0.226,1.696-0.226,2.574c0,8.847,7.17,16.018,16.017,16.018
			c8.848,0,16.018-7.171,16.018-16.018c0-0.859-0.087-1.696-0.218-2.519c12.418-0.086,25.686-0.262,37.974-0.459
			c-0.182,0.967-0.287,1.959-0.287,2.979c0,8.847,7.17,16.017,16.018,16.017c8.847,0,16.017-7.17,16.017-16.017
			c0-1.225-0.149-2.41-0.409-3.557c9.705-0.199,15.891-0.349,15.891-0.349v-33.025H1326.334z M1203.922,256.104l9.151-16.017
			l14.491,0.38v15.637H1203.922z M1225.334,318.924c-5.371,0-9.725-4.354-9.725-9.725s4.354-9.725,9.725-9.725
			c5.372,0,9.726,4.354,9.726,9.725S1230.707,318.924,1225.334,318.924z M1294.837,318.925c-5.372,0-9.726-4.353-9.726-9.725
			s4.354-9.726,9.726-9.726s9.725,4.354,9.725,9.726S1300.209,318.925,1294.837,318.925z"/>
	</g>
</g>
<g>
	<circle fill="#11A95A" cx="212.5" cy="298" r="100"/>
	<g>
		<path fill="#FFFFFF" d="M214.54,324.35c-0.067,0-0.134-0.006-0.201-0.017c-0.7-0.11-1.177-0.767-1.067-1.467
			c0.567-3.592-1.569-7.452-1.59-7.49c-0.347-0.618-0.127-1.399,0.489-1.746c0.617-0.346,1.399-0.128,1.745,0.49
			c0.107,0.189,2.593,4.684,1.889,9.146C215.705,323.898,215.16,324.35,214.54,324.35z"/>
	</g>
	<g>
		<path fill="#FFFFFF" d="M219.661,321.116c-0.09,0-0.184-0.011-0.275-0.03c-0.692-0.152-1.129-0.837-0.978-1.527
			c0.993-4.509-2.32-7.884-2.354-7.918c-0.501-0.5-0.501-1.312-0.001-1.813c0.501-0.501,1.313-0.501,1.814,0
			c0.177,0.177,4.337,4.415,3.045,10.281C220.781,320.708,220.251,321.116,219.661,321.116z"/>
	</g>
	<g>
		<path fill="#FFFFFF" d="M225.534,317.947c-0.069,0-0.141-0.005-0.211-0.017c-0.698-0.117-1.172-0.776-1.055-1.476
			c0.819-4.95-3.371-9.064-3.414-9.104c-0.509-0.492-0.522-1.304-0.031-1.813c0.493-0.51,1.305-0.523,1.813-0.032
			c0.213,0.205,5.199,5.104,4.162,11.369C226.694,317.502,226.151,317.947,225.534,317.947z"/>
	</g>
	<path fill="#FFFFFF" d="M209.485,328.521c-1.478,0-2.921-0.53-4.293-1.575c-0.058-0.045-0.108-0.086-0.156-0.131
		c-0.127-0.119-2.935-2.783-2.757-6.861c-1.839-1.698-6.938-6.071-12.156-7.552c-1.442-0.181-7.832-1.237-11.112-5.969
		c-0.373-0.119-0.985-0.255-1.841-0.255c-1.133,0-2.384,0.232-3.718,0.692c-0.227,0.076-0.46,0.115-0.696,0.115
		c-0.46,0-0.899-0.144-1.267-0.415c-0.567-0.419-0.891-1.089-0.867-1.79l0.705-21.455c0.038-1.157,0.973-2.065,2.13-2.067
		l7.945-0.022c0.909-0.146,3.878-0.56,8.095-0.56c5.19,0,12.972,0.659,20.564,3.793l1.345,0.556l-1.141,0.905
		c-0.685,0.543-1.389,1.154-2.151,1.871l-0.389,0.365l-0.499-0.188c-6.61-2.503-13.29-3.028-17.729-3.028
		c-4.316,0-7.228,0.473-7.544,0.527c-0.117,0.021-0.241,0.032-0.368,0.032l-6.055,0.018l-0.544,16.56
		c0.748-0.12,1.478-0.182,2.185-0.182c2.651,0,4.139,0.841,4.41,1.01c0.289,0.179,0.534,0.429,0.709,0.722
		c2.282,3.829,8.404,4.532,8.466,4.538c0.116,0.013,0.231,0.034,0.341,0.063c7.68,2.097,14.65,9.104,14.942,9.4
		c0.487,0.496,0.705,1.2,0.58,1.885c-0.402,2.191,0.964,3.782,1.269,4.103c0.57,0.414,1.107,0.624,1.595,0.624
		c1.62,0,3.145-2.191,3.596-3.036c0.367-0.707,1.094-1.149,1.896-1.149c0.261,0,0.516,0.048,0.762,0.142
		c0.119,0.045,0.228,0.065,0.344,0.065c1.034,0,2.438-1.571,2.961-2.412c0.274-0.442,0.698-0.768,1.195-0.918
		c3.97-1.201,4.811-2.571,4.958-2.894c-0.022-0.59,0.23-0.996,0.464-1.29c0.465-0.591,1.154-0.654,1.485-0.684
		c0.807-0.075,1.239-0.293,1.375-0.472c0.092-0.122,0.11-0.308,0.106-0.435c-2.405-7.705-6.54-13.83-12.291-18.202l-1.292-0.983
		l1.543-0.509c1.094-0.36,2.104-0.542,3.003-0.542c0.337,0,0.661,0.024,0.968,0.075l0.243,0.04l0.184,0.161
		c4.423,3.89,7.887,8.85,10.297,14.74l0.655,1.603l-1.671-0.454c-0.036-0.01-0.073-0.015-0.111-0.015
		c-0.167,0-0.319,0.099-0.388,0.25c-0.063,0.141-0.031,0.266-0.008,0.327c0.022,0.063,0.084,0.174,0.225,0.237
		c0.497,0.221,1.051,0.359,1.646,0.411l0.557,0.05l0.301,0.886c0.095,0.277,0.191,0.554,0.278,0.841
		c0.019,0.057,0.034,0.119,0.047,0.177c0.046,0.213,0.418,2.145-0.84,3.862c-0.695,0.945-1.699,1.601-2.991,1.951
		c-0.741,1.446-2.531,3.307-6.78,4.726c-0.956,1.287-3.167,3.742-6.118,3.743c-0.022,0-0.046,0-0.065-0.001
		C214.827,326.19,212.599,328.521,209.485,328.521z"/>
	<path fill="#FFFFFF" d="M232.055,309.045c-0.24,0-0.48-0.012-0.719-0.031l-0.56-0.049l-0.178-0.531
		c-0.346-1.036-0.688-1.963-1.046-2.834l-0.658-1.612l1.679,0.464c0.106,0.03,0.209,0.062,0.309,0.105
		c0.329,0.146,0.729,0.222,1.188,0.222c2.598-0.002,6.458-2.317,8.418-3.873c0.028-0.022,0.067-0.053,0.105-0.08
		c2.468-1.701,6.526-2.347,9.215-2.593l-2.022-14.576c-0.927,0.109-1.768,0.163-2.507,0.163c-0.53,0-1.011-0.029-1.426-0.087
		c-0.224-0.03-0.438-0.095-0.639-0.194c-0.239-0.115-5.997-2.848-13.566-2.848c-6.265,0-11.955,1.836-16.912,5.462l-0.42,0.307
		l-0.466-0.231c-0.817-0.408-1.689-0.805-2.589-1.177l-1.343-0.556l1.14-0.903c5.916-4.688,12.836-7.065,20.566-7.065
		c7.641,0,13.652,2.38,15.085,3c0.182,0.015,0.375,0.02,0.579,0.02c1.382,0,3.156-0.279,3.901-0.426
		c0.138-0.026,0.274-0.039,0.41-0.039c0.45,0,0.88,0.137,1.242,0.396c0.477,0.339,0.797,0.868,0.877,1.446l2.639,19.008
		c0.086,0.604-0.095,1.218-0.493,1.684c-0.397,0.465-0.978,0.736-1.588,0.746c-2.51,0.042-7.233,0.608-9.22,1.953
		C242.101,305.075,236.834,309.045,232.055,309.045z"/>
	<path fill="#FFFFFF" d="M230.81,295.033c-3.643,0-7.38-1.274-8.092-1.529c-0.131-0.044-0.295-0.07-0.458-0.097l-0.244-0.039
		l-0.185-0.163c-0.937-0.824-2.754-1.227-3.757-1.937l-0.748-1.496l1.894-0.412c0.837-0.182,1.646-0.275,2.401-0.275
		c0.882,0,1.717,0.127,2.479,0.375c1.272,0.455,4.289,1.3,6.771,1.3c1.011,0,1.811-0.138,2.379-0.41
		c0.425-0.203,0.664-0.457,0.799-0.846c0.298-0.86,1.107-1.438,2.016-1.438c0.239,0,0.477,0.041,0.704,0.12
		c0.537,0.185,0.972,0.57,1.221,1.085c0.249,0.514,0.284,1.093,0.097,1.633c-0.516,1.487-1.521,2.599-2.992,3.302
		C233.942,294.755,232.501,295.033,230.81,295.033L230.81,295.033z"/>
	<path fill="#FFFFFF" d="M228.985,306.985c-0.288,0.646,0.003,1.404,0.649,1.691c0.611,0.271,1.255,0.424,1.919,0.481
		c-0.333-0.994-0.687-1.961-1.065-2.886C229.89,306.109,229.245,306.399,228.985,306.985z"/>
	<polygon fill="#FFFFFF" points="274.576,308.384 271.825,272.515 250.369,276.44 251.007,279.857 247.114,280.477 250.626,305.562 
		255.737,305.198 256.502,309.291 	"/>
	<polygon fill="#FFFFFF" points="176.723,279.077 171.091,279.165 171.44,274.164 148.304,272.442 145.373,311.421 168.717,313.138 
		169.075,308.019 175.095,308.25 	"/>
	<g>
		<path fill="#FFFFFF" d="M210.828,296.717c-0.062,0-0.125,0-0.186-0.001c-2.947-0.068-4.589-1.753-4.767-1.945l-0.197-0.215
			l-0.117-0.268c-1.836-4.25,3.792-9.778,4.938-10.843l2.328,2.504c-2.008,1.87-4.445,5.105-4.207,6.698
			c0.839,0.623,3.721,2.021,8.708-2.892l2.399,2.437C216.679,295.196,213.686,296.717,210.828,296.717z"/>
	</g>
</g>
</svg>
