<?xml version="1.0" encoding="utf-8"?>
<!-- Generator: Adobe Illustrator 16.0.0, SVG Export Plug-In . SVG Version: 6.00 Build 0)  -->
<!DOCTYPE svg PUBLIC "-//W3C//DTD SVG 1.1//EN" "http://www.w3.org/Graphics/SVG/1.1/DTD/svg11.dtd">
<svg version="1.1" id="Layer_1" xmlns="http://www.w3.org/2000/svg" xmlns:xlink="http://www.w3.org/1999/xlink" x="0px" y="0px"
	 width="10px" height="10px" viewBox="0 0 10 10" enable-background="new 0 0 10 10" xml:space="preserve">
<path fill="#016735" d="M8.837,3.851c-0.493,0.556-1.075,1.303-1.161,1.4c0.014,0.045,0.023,0.092,0.029,0.141
	c0.059,0.567-0.431,0.983-0.457,1.003C7.209,6.426,7.152,6.42,7.121,6.381c-0.01-0.013-0.016-0.029-0.019-0.045
	C7.1,6.304,7.112,6.274,7.137,6.257c0.005-0.006,0.528-0.449,0.379-0.752c-0.007-0.013-0.02-0.025-0.031-0.025
	c-0.21,0.417-0.505,0.673-0.527,0.693c-0.016,0.017-0.04,0.025-0.063,0.025c-0.025,0-0.047-0.01-0.063-0.027
	C6.818,6.157,6.81,6.141,6.807,6.118C6.805,6.091,6.813,6.063,6.833,6.045c0.006-0.006,0.346-0.281,0.475-0.689
	C7.299,5.349,7.254,5.313,7.227,5.301c-0.473,0.417-0.55,0.6-0.553,0.606c-0.012,0.02-0.031,0.034-0.054,0.04
	C6.596,5.955,6.572,5.95,6.552,5.938c-0.022-0.013-0.04-0.037-0.045-0.069C6.506,5.852,6.51,5.832,6.521,5.817
	c0.011-0.02,0.099-0.26,0.534-0.621c-0.229-0.101-0.28,0.021-0.64,0.445C6.384,5.681,6.328,5.685,6.289,5.652
	c-0.017-0.014-0.027-0.034-0.03-0.055V5.594C6.256,5.568,6.263,5.545,6.279,5.526c0.399-0.476,0.564-0.67,0.943-0.627
	c0.015,0.002,0.031,0.002,0.044,0.003c0.005-0.006,0.01-0.009,0.015-0.012c0.094-0.063,0.913-0.995,1.377-1.513
	c-0.676-1.49-2.229-2.473-3.954-2.345C2.493,1.198,0.836,3.125,1,5.334c0.165,2.21,2.092,3.868,4.301,3.703
	c2.21-0.166,3.868-2.092,3.704-4.302C8.981,4.429,8.923,4.133,8.837,3.851z M6.932,4.507c0.009,0,0.015,0.005,0.021,0.012
	c0.003,0.007,0.004,0.016,0,0.023C6.813,4.813,6.574,4.77,6.572,4.77C6.57,4.769,6.568,4.769,6.566,4.768
	C6.562,4.766,6.556,4.761,6.554,4.756C6.55,4.749,6.551,4.74,6.555,4.733C6.69,4.506,6.921,4.507,6.932,4.507z M6.282,4.11
	c0.043-0.087,0.106-0.196,0.108-0.197c0.004-0.008,0.014-0.015,0.023-0.015c0.009,0,0.018,0.003,0.023,0.012
	C6.7,4.323,6.457,4.643,6.456,4.646C6.426,4.689,6.414,4.78,6.408,4.817c-0.001,0.011-0.009,0.02-0.02,0.021
	c-0.008,0.003-0.015,0.002-0.02-0.002C6.366,4.835,6.363,4.833,6.361,4.831C6.092,4.479,6.281,4.114,6.282,4.11z M6.619,6.694
	L6.051,6.336C5.777,6.147,5.323,6.081,5.323,6.081C5.115,6.053,4.832,6.604,4.832,6.604C4.477,7.141,3.926,6.699,3.926,6.699
	C3.611,6.47,3.969,6.287,3.962,6.282c0.199-0.106,0.117-0.25,0.117-0.25C3.976,5.867,3.897,6.008,3.897,6.008
	C3.796,6.134,3.479,6.16,3.479,6.16C2.947,6.209,2.738,5.742,2.738,5.742c-0.17-0.354,0.164-0.548,0.164-0.548
	c0.131-0.088,0.079-0.219,0.079-0.219C2.902,4.833,2.423,4.767,2.423,4.767C2.014,4.628,2.029,4.162,2.029,4.162
	c0.042-0.473,0.464-0.647,0.464-0.647c0.662-0.21,1.336,0.685,1.336,0.685C3.779,4.048,3.74,3.764,3.74,3.764
	C3.69,3.338,4.112,3.308,4.112,3.308c0.593,0.015,0.721,0.697,0.721,0.697c0.062,0.357,0.295,0.459,0.295,0.459
	c0.25,0.081,0.278-0.195,0.278-0.195C5.465,3.91,5.637,3.95,5.637,3.95c0.418,0.022,0.265,1.59,0.265,1.59
	c-0.079,0.494,1,0.981,1,0.981L6.619,6.694z"/>
<g>
	<path fill="#016735" d="M4.758,4.79c-0.05,0-0.1-0.059-0.118-0.138c-0.021-0.09,0.005-0.169,0.06-0.181
		c0.005-0.001,0.009-0.001,0.015-0.001c0.05,0,0.098,0.056,0.117,0.138c0.021,0.09-0.006,0.168-0.06,0.182
		C4.767,4.79,4.763,4.79,4.758,4.79L4.758,4.79z"/>
	
		<ellipse transform="matrix(-0.9736 0.2284 -0.2284 -0.9736 10.4029 8.056)" fill="#016735" cx="4.735" cy="4.63" rx="0.081" ry="0.147"/>
	<path fill="#016735" d="M3.763,4.842c-0.049,0-0.098-0.058-0.116-0.14C3.633,4.646,3.639,4.59,3.661,4.556
		c0.011-0.018,0.027-0.03,0.044-0.034C3.71,4.521,3.714,4.52,3.72,4.52c0.051,0,0.099,0.06,0.117,0.14
		c0.014,0.057,0.008,0.111-0.015,0.146C3.812,4.824,3.796,4.835,3.778,4.839C3.773,4.841,3.77,4.842,3.763,4.842L3.763,4.842z"/>
	
		<ellipse transform="matrix(-0.9752 0.2214 -0.2214 -0.9752 8.4268 8.4179)" fill="#016735" cx="3.742" cy="4.681" rx="0.082" ry="0.147"/>
	<path fill="#016735" d="M4.465,5.59c-0.101-0.001-0.18-0.016-0.181-0.017c-0.271-0.051-0.453-0.37-0.473-0.406L3.803,5.151
		l0.005-0.017c0.01-0.047,0.043-0.064,0.07-0.064c0.027,0.001,0.048,0.015,0.056,0.019l0.008,0.007l0.007,0.01
		c0.026,0.046,0.087,0.12,0.112,0.149c0.092,0.11,0.227,0.167,0.401,0.169H4.47c0.138,0,0.253-0.033,0.286-0.045l0,0
		c0.098-0.048,0.019-0.248,0.019-0.25C4.769,5.114,4.754,5.071,4.777,5.037c0.014-0.02,0.036-0.03,0.063-0.03
		c0.014,0,0.025,0.002,0.029,0.004l0.022,0.006l0.009,0.024c0.077,0.245,0.056,0.334,0.052,0.345
		c-0.008,0.032-0.03,0.066-0.03,0.066C4.838,5.563,4.607,5.58,4.581,5.583C4.55,5.586,4.514,5.59,4.476,5.59H4.465z"/>
	<path fill="#016735" d="M4.465,5.573c0.043,0,0.082-0.003,0.115-0.008c0.022-0.001,0.251-0.02,0.328-0.118l0.001-0.001V5.443
		C4.912,5.44,4.93,5.408,4.936,5.381c0.003-0.009,0.025-0.095-0.051-0.334L4.88,5.03L4.864,5.026
		C4.862,5.024,4.853,5.022,4.842,5.022c-0.021,0-0.04,0.009-0.051,0.024c-0.02,0.028-0.005,0.064-0.002,0.075
		c0.003,0.003,0.088,0.219-0.026,0.272l0,0c-0.001,0-0.138,0.048-0.301,0.047C4.283,5.439,4.144,5.381,4.05,5.268
		C4.047,5.267,3.966,5.17,3.935,5.114L3.93,5.108L3.926,5.104C3.922,5.101,3.902,5.088,3.879,5.088c-0.01,0-0.045,0.003-0.057,0.05
		L3.821,5.149l0.005,0.01c0.008,0.015,0.19,0.347,0.461,0.398C4.293,5.559,4.371,5.571,4.465,5.573z"/>
</g>
<g>
	<path fill="#016735" d="M5,10.002c-2.758,0-5-2.244-5-5.001S2.242,0,5,0c2.757,0,5,2.244,5,5.001S7.757,10.002,5,10.002z M5,0.558
		c-2.451,0-4.444,1.993-4.444,4.443S2.549,9.444,5,9.444c2.45,0,4.442-1.993,4.442-4.443S7.45,0.558,5,0.558z"/>
</g>
</svg>
