<?xml version="1.0" encoding="utf-8"?>
<!-- Generator: Adobe Illustrator 16.0.0, SVG Export Plug-In . SVG Version: 6.00 Build 0)  -->
<!DOCTYPE svg PUBLIC "-//W3C//DTD SVG 1.1//EN" "http://www.w3.org/Graphics/SVG/1.1/DTD/svg11.dtd">
<svg version="1.1" id="Layer_1" xmlns="http://www.w3.org/2000/svg" xmlns:xlink="http://www.w3.org/1999/xlink" x="0px" y="0px"
	 width="200px" height="200px" viewBox="112.5 198 200 200" enable-background="new 112.5 198 200 200" xml:space="preserve">
<g>
	<circle fill="#11A95A" cx="213.5" cy="298" r="100"/>
	<g>
		<g>
			<rect x="231.78" y="285.291" fill="#FFFFFF" width="30.967" height="26.524"/>
			<rect x="197.56" y="256.406" fill="#FFFFFF" width="32.51" height="27.175"/>
			<rect x="197.56" y="285.291" fill="#FFFFFF" width="32.51" height="26.524"/>
			<rect x="231.78" y="256.406" fill="#FFFFFF" width="30.967" height="27.175"/>
		</g>
		<path fill="#FFFFFF" d="M271.196,297.055h-77.249v-34.354h-22.49l-15.645,25.422c0,0,0.484,33.039,0,37.158
			c-0.075,0.643,6.075,0.986,15.563,1.137c-0.116,0.717-0.193,1.449-0.193,2.199c0,7.561,6.128,13.689,13.69,13.689
			c7.561,0,13.689-6.129,13.689-13.689c0-0.734-0.074-1.449-0.187-2.152c10.614-0.074,21.954-0.225,32.456-0.393
			c-0.154,0.826-0.244,1.674-0.244,2.547c0,7.561,6.129,13.688,13.689,13.688s13.689-6.127,13.689-13.688
			c0-1.047-0.127-2.061-0.35-3.041c8.295-0.17,13.582-0.297,13.582-0.297v-28.226H271.196z M166.571,283.237l7.822-13.69
			l12.385,0.325v13.365H166.571z M184.872,336.928c-4.591,0-8.313-3.721-8.313-8.311c0-4.592,3.721-8.313,8.313-8.313
			s8.312,3.721,8.312,8.313C193.183,333.207,189.463,336.928,184.872,336.928z M244.274,336.93c-4.59,0-8.313-3.721-8.313-8.313
			s3.723-8.313,8.313-8.313c4.592,0,8.313,3.721,8.313,8.313S248.865,336.93,244.274,336.93z"/>
	</g>
</g>
</svg>
