<?xml version="1.0" encoding="utf-8"?>
<!-- Generator: Adobe Illustrator 16.0.0, SVG Export Plug-In . SVG Version: 6.00 Build 0)  -->
<!DOCTYPE svg PUBLIC "-//W3C//DTD SVG 1.1//EN" "http://www.w3.org/Graphics/SVG/1.1/DTD/svg11.dtd">
<svg version="1.1" id="Layer_1" xmlns="http://www.w3.org/2000/svg" xmlns:xlink="http://www.w3.org/1999/xlink" x="0px" y="0px"
	 width="600px" height="100px" viewBox="-88.5 7.05 600 100" enable-background="new -88.5 7.05 600 100" xml:space="preserve">
<g enable-background="new    ">
	<path fill="#016735" d="M-80.06,51.051h17.349V25.964h8.439v64.867H-88.5V25.964h8.44V51.051z M-62.711,83.482V58.398H-80.06
		v25.084H-62.711z M-31.917,24.714v70.882h-8.518V24.714H-31.917z"/>
	<path fill="#016735" d="M-13.782,46.36c0-6.488,2.579-11.489,6.956-15.005c5.235-4.22,13.051-6.174,22.43-6.174
		c9.455,0,17.271,1.954,22.508,6.174c4.3,3.516,6.954,8.518,6.954,15.005c0,6.643-2.654,11.567-6.954,15.084
		c-4.378,3.519-10.63,5.471-18.13,6.02v17.661H47.02v7.348h-62.91v-7.348h27.43V67.464c-7.581-0.473-13.911-2.424-18.366-6.02
		C-11.202,57.927-13.782,53.003-13.782,46.36z M-5.263,46.36c0,4.144,1.562,7.191,4.377,9.459c3.674,3.047,9.455,4.375,16.491,4.375
		c7.034,0,12.895-1.328,16.569-4.375c2.814-2.268,4.375-5.315,4.375-9.459c0-3.987-1.564-7.112-4.375-9.457
		c-3.674-2.97-9.535-4.298-16.569-4.298c-7.036,0-12.817,1.328-16.491,4.298C-3.701,39.248-5.263,42.375-5.263,46.36z"/>
	<path fill="#016735" d="M87.196,41.282v-7.816H61.561v-7.502h33.997v14.301c0,26.963-10.001,44.94-34.466,51.112v-7.969
		c12.973-3.751,20.711-12.271,24.073-24.777c-3.127,0.941-7.896,1.485-13.677,1.485H61.094v-7.424h10.709
		c6.486,0,11.721-0.546,14.848-1.642C87.04,48.003,87.196,44.719,87.196,41.282z M118.143,24.714v70.882h-8.518V24.714H118.143z"/>
	<path fill="#016735" d="M136.047,39.171v-7.347h14.068v-9.144h8.44v9.144h14.068v7.347h-14.068v1.093
		c0,12.113,6.563,17.742,15.396,19.696v7.503c-8.518-1.486-15.787-5.864-19.46-11.96c-3.674,6.096-11.099,11.487-19.694,12.895
		v-7.502c8.986-1.952,15.318-8.285,15.318-20.634v-1.093h-14.068V39.171z M194.584,95.91h-54.239V72.619h8.518v15.942h45.72v7.349
		H194.584z M193.333,74.493h-8.518v-49.78h8.518V74.493z"/>
</g>
<g enable-background="new    ">
	<path fill="#CC3D3D" d="M243.467,15.555c1.398,1.291,1.289,3.442,1.074,5.7c-0.105,0.862-0.105,1.614-0.105,2.263
		c0,0.752-0.219,1.829-0.432,2.69c-0.215,1.184-0.537,2.472-0.537,4.085l-0.863,0.647c-0.537,0.429-0.965,0.647-1.076,1.507
		c0.324-0.321,0.758-0.754,1.615-0.754c0.756-0.431,2.475-1.183,3.123-1.614v-0.431c0,0,2.473,0,3.332-0.859h3.23l-0.967,0.859
		h0.859l2.475,3.982c-0.217,2.152-1.615,4.304-3.012,6.027c-1.186,1.614-2.262,3.228-3.229,5.702l-3.875,6.78
		c-0.215,0,0.324,0.538,0.324,0.538v0.429h0.32c1.719,0.86,1.076,1.936,0.643,3.012c-0.213,0.645-0.426,1.4,0.539,1.833
		l-0.215,0.645c1.291,0.107,0.969,1.614,0.539,2.798c-0.107,0.216-0.215,0.431,0.109,0.431c0,7.21,0,14.419-0.973,21.091
		c-3.547,1.722-4.949-0.754-4.949-0.754c-1.074-2.152-1.932-6.027-1.074-8.07V58.376c-0.539,0.324-1.076,0.539-1.723,0.65
		c-0.107,1.075-0.43,3.009-2.045,3.766v1.396l-2.045,0.109c0,0-0.213,0.321-0.32,0.538c-0.105,0.108-0.105,0.321-0.105,0.429
		c0,0.218,0,0.646-2.584,2.37c-0.756,0.215-1.398,0.215-1.398,0.215s-0.32-0.322-2.369-1.507c0.859-1.076,1.936-3.01,1.936-4.086
		c1.293-2.152,3.014-4.415,4.416-6.456c3.441-4.953,6.775-10.007,8.822-15.713c-1.076,0.324-2.045,0.969-3.014,1.507
		c-2.26,1.292-4.73,2.583-7.209,2.583c-1.828,0-3.336-0.538-4.951-2.152c-2.152-3.23,0-3.014,1.615-4.197
		c0.754-0.431,1.076-0.754,1.613-0.754c0.646-0.754,1.936-1.292,2.689-1.507c0.217-0.107,0.648-0.321,0.859-0.859l-0.213-0.216
		c-0.109-0.752,0.322-1.184,0.752-1.829c0.217-0.216,0.43-0.647,0.43-1.507c0-0.324,0.107-1.076,0.432-1.831
		c0.324-0.967,0.645-2.042,0.645-3.119l0.107-0.324h-0.32c0.432-2.045,1.076-3.766,1.83-5.594c0.861-1.938,1.832-4.09,1.832-6.567
		c0-0.857-0.219-1.936-0.537-3.012l1.828-0.321c0.322,0.645,0.646,1.183,1.076,1.721C243.143,13.294,244.004,14.154,243.467,15.555z
		 M266.924,73.123c0,3.121,0,6.027,0.859,8.93c-0.539,0.647-0.969,1.186-0.859,1.186l0.428,0.859
		c-0.428,0.217-0.428,2.045-0.428,3.766c0,0.969-0.859,2.045-1.938,3.336c-0.752,0.861-1.828,2.37-2.258,3.551
		c-1.076,1.184-2.584,0.862-3.875,0.538c-0.428-0.106-0.537-0.214-1.504-0.214c-2.154-2.152-3.338-5.918-3.338-9.258
		c0-1.721,0.322-3.335,0.967-4.842c-0.859-1.722-0.43-3.335,0.217-4.304c0.32-0.753,0.754-1.397,0.754-2.69l3.229-3.118
		c0.537-0.97,1.504-1.831,2.367-2.477l0.967-1.075c2.371,1.292,2.584,2.261,2.801,3.228c0.215,1.076,0.537,1.831,0.967,2.152
		L266.924,73.123z M261.653,74.521c-0.537,0.109-0.109,0.109-0.646,0.109l-1.938,10.113l0.537,2.151
		c0.109-0.107,0.324-0.319,0.434-0.319c0.967-2.261,1.613-5.166,2.043-7.751c0.215-1.183,0.32-2.58,0.646-3.873
		C262.619,74.413,262.192,74.413,261.653,74.521z M276.393,28.574c-0.213,0.216,0,0.324,0.109,0.431
		c0.43,0.322,1.076,0.752,1.076,1.721h-0.859c0.215,1.076,0.322,2.152,0.322,3.228c0,2.69-0.648,5.597-1.186,8.501
		c0.109-0.107,0.217-0.107,0.43-0.107l3.768-1.076l-0.539,0.107l1.076-1.076h3.23l0.537,0.647c0.539,0,1.076-0.538,1.83-0.862
		c0.537-0.214,1.504-0.645,1.938-0.645h0.967l2.045,1.183c0.105-0.107,1.395-1.614,1.613-1.076c0-0.107,0.107-0.217,0.107-0.322
		h2.045c0,0.859,0,1.723,1.291,2.583l-5.273,3.657v-0.86c-0.32,0.217-0.754,0.322-0.967,0.538c-0.648,0.538-1.398,0.969-2.043,1.186
		v-0.107c-0.109,0.107-0.219,0.107-0.969,0.857c-1.4,0.538-3.336,1.186-5.059,1.723h0.109l-5.811,2.474l-0.539,2.476
		c-1.076,0.538-0.969,1.721-0.861,2.797v-0.107c0.109,0.857,0.109,2.044-0.215,3.009c-0.109,2.045-1.938,2.045-3.336,1.726h-0.967
		v-0.109h-0.648c-2.262-0.109-1.83-1.185-1.83-2.474c0.107-0.756,0.217-1.614-0.107-2.044V44.717
		c0.215-2.045,0.645-4.09,1.076-6.135c0.969-4.735,1.83-9.577,1.83-14.745h3.119c0,0.862,0.432,1.295,0.861,1.721
		c0.752,0.757,1.506,1.507,1.936,2.476L276.393,28.574z"/>
	<path fill="#CC3D3D" d="M308.672,13.294c0.859-0.538,1.396,0,2.152,0.967h-0.107c0.213,0.219,0.322,0.538,0.645,0.757l-0.32-0.109
		c2.367,1.185,3.549,4.413,3.549,6.565c-0.857,0.858,0.107,1.829,1.076,2.69c0,5.056,0,7.963-2.152,12.157l0.107-0.107
		c-0.539,2.906-3.117,5.38-4.949,7.101c-0.32,0.324-0.857,0.754-1.076,1.076c-2.26,1.076-5.598,2.045-7.963,1.076
		c-1.506,0-1.398-0.214-1.076-0.859h-0.43c-1.506-2.042-2.045-3.873-2.045-5.487c0-2.583,0.861-4.842,1.508-7.212v0.109
		c0.428-1.397,0.857-2.474,1.184-3.657c2.045-3.228,4.195-6.349,8.717-7.856c0.324,1.183,0.752,1.829,0.967,2.045l0.859,1.076
		c-0.426-2.259-1.291-4.304-2.689-6.242v-0.107c-0.859,0.214-1.723,0.322-1.936-0.323h-1.076V14.91c0.537,0,0.969,0.109,1.293,0.109
		c0.43-0.647,1.074-0.862,1.721-1.076L308.672,13.294z M309.641,28.467c0,0.107-0.109,0.214-0.109,0.322
		c-2.258,0-3.012-0.86-3.334-1.831l-0.971-1.4c-0.107,0.219-0.217,0.431-0.217,0.541c-1.184,2.906-2.689,6.456-2.689,9.793
		c0,2.043,0.432,3.982,1.938,5.487c1.721-0.429,3.014-2.69,3.98-4.949c0.432-0.969,0.754-1.614,1.293-2.261
		c0-0.754,0.109-2.261,0.109-3.119V28.467z M341.278,52.354h-1.076v0.969h1.719c-1.076,1.076-0.967,1.614-0.859,2.152
		c0.109,0.752,0.109,1.721-0.645,2.367l1.504,1.507h-1.076c0.324,0.647,0.217,1.185,0.217,1.832
		c-0.107,0.429-0.217,0.967,0.322,1.505c-1.182,0.647-0.859,1.076-0.43,1.724c0.324,0.645,0.645,1.29,0.217,2.471l0.109-0.214v1.507
		h-0.646c0,0.107,0.107,0.107,0.107,0.107c0.215,0.431,0.43,0.754,0.645,0.754l-0.105,0.538v0.646l2.043-1.184v-0.109h0.109
		c0.107,0,0.107,0,0.215-0.106l0.105,0.106h1.615c0-0.645-0.107-1.29-0.752-0.645l-0.324,0.431v-1.507
		c2.152,0,2.475-0.217,2.908-0.324c0.645-0.106,1.076-0.214,2.043,0c-0.217-0.429-0.217-0.966,0.754-1.933
		c1.398,0.752,2.152,0.645,2.689,0.538c0.861-0.109,1.723-0.324,2.371-0.109c0.857-0.86,1.504-0.322,2.152,0.538
		c0.107,0.108,0.107,0.321,0.107,0.321h1.184l0.322,0.861c-1.832,0.646-2.908,1.397-4.088,2.043
		c-1.291,0.754-2.584,1.614-4.197,2.152l0.107-0.107c-2.041,1.076-4.088,2.043-6.025,3.121h0.217l-1.725,1.721l-1.936,1.614
		l-1.184,3.335c-0.217,0-0.217,0.109-0.217,0.109c0,0.538,0.107,0.859-0.43,1.505c0,0.538,0.217,1.294,0.43,1.723
		c0.432,1.505,1.074,3.119,0.322,5.164c-0.322,0.431-0.322,0.646-0.322,0.757c0,0.214,0.107,0.537-0.43,1.183v0.969
		c0,0-0.428,0.427-0.859,0.319l-0.107,0.432l0.967,0.969l-0.752,1.721c-0.434,1.076-0.434,1.507-1.615,2.797h0.322
		c0,0,0,1.938-2.908,2.045c-0.215,0.217-0.539,0.538-1.076,0.755c-0.105,0.321-1.184,2.152-4.086,4.625v-0.321
		c-0.541,0.321-1.186,0.321-2.156-0.216h-2.041l-2.582,2.799v-1.076l-0.859-0.538v0.859c-2.262,0-3.121-0.969-3.121-0.969h-0.859
		v0.432c-2.152-1.831-3.982-5.702-4.09-6.888c-0.857-1.721-0.217-3.549,0.646-5.38c0.43-1.613,0.861-2.366,1.506-3.335
		c1.076-1.507,2.152-3.121,4.197-4.522h-0.107c2.473-2.69,2.473-2.904,3.766-3.119c0.217-0.321,0.754-0.859,1.184-1.185h-0.107
		c0.322-0.32,0.754-0.753,0.754-1.184c0-2.045,2.043-2.368,3.445-2.474l0.752-0.647c0.432-0.321,0.756-0.645,0.756-2.259h1.506
		c1.504-1.184,1.723-3.982,1.938-6.994c0.105-1.397,0.32-3.23,0.537-4.413v-4.735c-0.537-1.828-0.109-3.659,0.215-5.487
		c0.324-1.183,0.646-2.476,0.646-3.552c0-0.538,0.539-0.857,1.396-1.396h-0.105l1.182-1.076c2.047,0,2.262,0.429,2.584,1.076h-0.109
		c0.215,0.319,0.539,0.752,1.186,1.396v1.511H341.278z M320.401,56.227c0.43,1.614,0.537,3.014,0.537,4.415
		c0,1.291-0.107,2.69-0.213,3.98c-0.111,1.076-0.217,2.152-0.217,3.552h-0.539c0,0.215,0.322,0.321,0,0.321
		c0.539,0.538,0.105,1.397-0.217,2.26c-0.105,0.321-0.217,0.538-0.217,0.859c0,0.217,0.107,0.538,0.217,0.861
		c0.217,0.967,0.432,2.369-0.43,3.229c0,0,0.215,0.967-0.754,1.936c-0.109,2.045-0.861,1.183-2.262,0.107
		c-0.32-0.215-0.857-0.646-1.076-0.646c-2.26-0.859-2.043-1.831-1.506-3.012c0.322-0.755,0.756-1.507-0.215-2.368
		c0.43-0.969,0.215-2.045,0-3.012c-0.217-0.969-0.432-1.938,0.107-3.229c0.322-0.756,0.322-1.832,0.322-2.799
		c0-0.859,0-1.724,0.539-2.906c0-1.938,0-4.735,1.289-7.318l1.834,0.218c0,0.214-0.109,0.214-0.219,0.214
		c0.756,0,1.506-0.214,1.506,0.217l0.432,0.429h-0.107c0.318,0.324,0.428,0.756,0.967,2.69H320.401z M348.809,11.787
		c-0.646,0.754-0.537,2.369-0.43,3.659c0.107,0.966,0.107,2.152-0.539,3.444l0.432,0.431c-1.076,1.076-1.076,1.076-1.076,2.045
		v2.041c-0.539,0.538-0.539,1.4-0.539,2.371c0,0.859,0.107,1.721-0.537,2.474v0.967c0,1.294,0.428,1.507-0.861,1.507
		c0.324,1.292,0.645,2.906,0.969,3.982h-0.861c0,0,0,0.109,0.109,0.109c0.646,0.752,1.186,1.614-0.217,1.828
		c0.217,0.969,0.107,1.723,0,2.476c-0.215,0.967-0.322,1.831-0.107,2.69c0.537,0.967,0.107,2.152-0.432,3.119
		c-0.213,0.431-0.43,2.044-0.43,4.197c-3.549-5.059-5.059-10.006-5.059-14.098c0-2.69,0-5.701,0.646-9.253h-0.215
		c-5.164,2.259-10.654,4.735-15.822,6.887l0.324-0.109c-0.537,0.647,0.537,1.614,0.537,1.614s-7.207,4.304-7.207-1.505h0.965
		c0.219-3.337,2.584-4.951,4.953-4.951c0.32-0.967,1.289-1.186,2.473-1.505c0.539-0.109,1.182-0.431,2.043-1.938
		c0.969,0.538,1.076,0.431,1.076,0.324c0.537-0.649,1.076-1.188,2.262-0.431l0.754-0.645l0.645-0.756h0.756
		c1.076,0,1.613-0.214,2.043-0.538c0.322-0.107,0.754-0.32,0.861-0.32c0.428-1.187,2.904-1.076,2.904-1.076l1.508-1.076
		c0.32-1.294,0.43-2.909,0.539-4.522c0.215-3.121,0.428-6.025,3.334-8.177c2.473,0,3.121,1.291,3.66,2.581
		c0.213,0.647,0.428,1.292,0.537,1.398v0.758H348.809z M319.11,32.664h0.322v-0.323L319.11,32.664z M327.61,98.842
		c2.262-3.12,3.877-7.643,3.877-11.838l-0.756,0.967l-8.502,9.577l0.219-0.107c-0.322,0.969-0.432,1.614-0.756,2.476
		c0.971,0.215,1.725,0.319,2.369,0.319C325.242,100.238,326.533,99.699,327.61,98.842z"/>
	<path fill="#CC3D3D" d="M383.237,23.3c1.076,2.371,0,4.842-0.859,7.212c-0.857,2.152-1.83,4.411-1.291,7.208
		c-1.293,0.754-1.506,2.261-1.615,3.659c-0.105,1.076-0.217,2.045-0.967,3.55h-0.752c0.426,3.551-0.756,6.136-1.832,8.719
		c-0.859,2.041-1.615,4.085-1.615,6.456c0,0-0.859,2.26-1.936,2.26l0.322,1.614c0,0.321,0,0.969-0.541,1.721
		c0,0.538-0.318,1.184-0.643,1.724c-0.324,0.429-0.537,1.076-0.537,2.042h-4.199c0-1.721-0.32-2.259-0.539-2.904
		c-0.537-1.613-1.395-3.552-0.537-5.599c0.324-0.645,0.219-1.828,0.109-2.689c-0.215-1.183-0.109-2.69,0.967-3.98
		c0.109-3.984,1.398-8.827,2.475-12.483c0.754-2.369,1.398-4.627,1.83-6.565c1.184-0.966,2.369-3.119,2.369-4.304
		c0-0.429,0.43-1.186,0.967-1.936h-0.107c0.539-1.076,1.293-2.259,1.076-2.907l-9.361,3.657c0.646,0.324,0.537,0.647,1.076,1.076
		c0.32,0.431,0.752,0.756,1.184,0.756l0.43,0.967l-4.305,1.936v-0.752c-0.428,0.107-0.754,0.107-1.184,0v1.291
		c-2.369-1.614-2.689-1.505-3.012-1.397c-0.322,0.109-0.971,0.216-1.398,0.216c-1.83,0-2.045-3.335-2.152-5.596v-0.538l0.217-0.217
		c1.291-0.859,2.367-0.969,2.367-0.969c0.756-0.752,2.369-1.614,4.521-1.721h0.539c0-0.323-0.219-0.214-0.432-0.107l0.969-0.862
		c1.076,0,1.613,0.107,1.934,0.219c0-0.219,0.537-1.4,3.014-1.4v0.214c0.215-0.107,0.646-0.214,1.291-0.214
		c0.432,0,0.432-0.431,0.537-0.861c0.109-0.427-0.32-0.965,2.262-0.965c0,2.152,0.646,0.107,0.646,0.107
		c0-0.219,0.217-1.4,4.307-3.447c0,1.938,0.537,1.833,1.076,1.938C381.84,19.752,383.885,20.29,383.237,23.3z M398.41,64.408
		c0.322-0.431,0.646-0.538,1.723-0.538c1.184,0,1.291,0.538,1.723,1.076c0.32,0.538,0.859,1.183,1.506,1.183
		c2.043,0,1.4,0.753,1.184,1.507c-0.107,0.321,0,0.753,1.076,0.753c0,1.938,0.32,2.261,0.537,3.12l-0.107-0.106
		c0.215,0.538,0.324,0.859,0.43,1.397l1.293,0.538c-0.32,0.969-0.539,2.045-0.539,3.011c0,2.369,0.969,4.626,1.936,6.565
		l-0.643,0.107c0.643,0.431,1.182,0.646,0.32,1.614c-0.857,2.045-1.076,4.628-1.076,6.779l-2.152,1.076
		c-0.107,1.184-1.508,2.366-3.982,3.659c-1.293,1.396-4.09,1.29-5.705,0h-0.859c-3.547-3.447-7.098-11.622-6.133-17.328
		c-0.539-0.752-0.215-1.183,0.217-1.828c0.539-0.647,0.857-1.614,0.969-2.476c-0.648-0.859-0.322-1.614,0.107-2.474
		c0.32-0.646,0.217-0.969,0.539-2.045c0.537-2.043,1.293-1.936,1.611-3.121c0.322-1.183,0.432-2.471,3.338-4.518L398.41,64.408z
		 M402.285,76.782c-0.43-1.186-0.43-2.152-0.537-3.121c-0.324-2.368-0.432-4.842-2.047-5.272l-0.967,1.83l0.109-0.107
		c-2.152,6.563-3.121,12.698-3.229,19.049l1.613-1.614h-0.109l1.186-1.294c0.32,0,0.646,0,0.857,0.106
		c-0.105-0.319-0.105-0.537-0.105-0.752c1.506-2.368,2.043-4.197,2.473-6.349C401.748,78.503,401.959,77.642,402.285,76.782z
		 M434.242,30.619l-0.754,1.076c-0.105,0-0.217,0-0.645,0.431l-1.188,1.076c-1.182,1.183-2.15,0.752-3.117,0.429v0.86h-1.725
		c-2.58,0.969-5.27,2.368-7.961,3.444c-0.217,0.538-0.756,0.969-1.398,1.507l-2.797,1.076c-0.969,0.538-2.801,1.398-2.801,0.431
		c-0.645,0.645-0.967,1.614-1.396,2.581c0,0,0,0.109-0.107,0.322h1.291c-1.504,1.723-1.504,3.014-1.504,4.413h-1.613
		c0.105,0.216,0.426,0.538,0.643,0.754c0.648,0.645,1.293,1.397,0.971,2.045v1.183c-1.725,1.721-3.445,1.829-6.566,0.107
		c0,0-1.291-3.55-1.291-4.626v-6.456c-1.076-0.755-0.969-2.583-0.969-3.766c2.475-1.292,2.475-3.228,2.369-5.38
		c0-1.4-0.109-2.909,0.859-4.414c-0.754-1.831-0.432-2.799-0.217-3.657c0.109-0.324,0.217-0.649,0.217-0.969
		c0.537-0.538,0.32-0.862,0.219-1.183l0.105,0.107c-0.322-0.645-0.43-1.183,0.646-1.399c-0.646-1.721-0.432-3.335-0.109-4.735
		c0.434-1.291,0.971-1.721,2.262,4.522c0,0,0.107-9.365,0.215-9.365c1.074,0.109,2.475,0.538,3.227,2.262v0.429
		c0,1.185,0,2.583,1.188,3.766c-0.648,2.583-0.648,4.416-0.648,6.242c0,1.938,0,3.766-0.428,5.704
		c0.645,0.214,0.428,0.538,0.428,0.967h0.537v1.292c0.539,0.107,1.076-0.107,1.727-0.431l3.008-1.076l1.078-1.183
		c0,0,0.539,0,0.967,0.107c1.83-1.291,3.768-1.614,5.166-1.721c0.646-0.107,1.076-0.107,1.615-0.646h3.441l0.217,0.107
		c0.646-0.431,1.293-0.754,1.936-0.324c1.613-2.583,5.059-0.429,6.352,0.756L434.242,30.619z"/>
	<path fill="#CC3D3D" d="M451.131,52.679c0,0.319-0.322,2.366-3.012,5.38v-0.862c-0.32,0.324-0.539,0.757-0.754,1.184v-0.107
		c-0.217,0.431-0.322,0.862-0.648,1.184c0.756,0.218-0.537,1.399-0.752,1.615c-0.645,0.538-1.184,1.186-2.691,1.398l-1.076,2.151
		c-3.012-3.121-1.936-4.411-1.076-5.811c0.322-0.538,0.646-1.076,0.754-1.396c0.109-2.152,2.152-6.242,4.414-8.394
		c0.109-0.107,0.32-0.754,0.537-1.4c0.43-1.29,1.398-2.904,3.229-4.411c-0.322-1.183,0.217-1.936,0.859-2.583
		c0.324-0.322,0.648-0.538,0.217-1.398l1.613-0.538c-0.537-0.538-0.537-0.755-0.537-0.755c0.432-0.429,0.537-0.966,0.646-1.504
		c0.107-0.862,0.215-1.724,1.504-1.938c0.539-1.614,1.615-3.335,2.908-5.164c1.074-1.504,2.258-3.337,2.797-5.382
		c-0.857,0.219-2.58,0.862-3.551,1.188c-0.859,0.214-1.719,0.538-2.58,0.967l-1.938,0.538c-2.578,0.754-5.488,1.724-6.348,2.581
		v-0.107c-1.291,1.292-6.994,2.583-6.994-0.321c0-2.581,1.396-2.581,3.119-2.369h-0.109c0.648,0,0.434,0.431,1.295,0
		c0.217-0.538,1.184-1.076,2.369-1.507c0.752-0.214,1.504-0.431,2.365-0.857c0.432,0,0.863-0.219,1.293-0.431
		c0.648-0.324,1.613-0.538,2.906-0.538c0.432-0.324,1.076-0.645,1.615-0.969h-0.107c1.504-0.862,3.227-1.938,5.594-2.152
		c0.861-0.969,1.938-1.183,3.123-1.507c1.076-0.321,2.152-0.752,3.012-3.121c3.766,1.507,3.01,3.121,2.045,4.304
		c-0.217,0.323-0.432,0.538-0.432,0.861v4.519c-1.506,0-1.936,1.08-2.258,2.156l-0.863,1.721c-0.105,3.009-2.041,7.101-4.195,9.253
		v0.969l-3.01,4.197v1.076c-0.539,0.538,0,0.967,0.643,1.291c0.754,0.647,1.51,1.185,1.51,1.616c0,2.581,0.318,5.164,0.645,7.639
		c0.432,3.445,0.645,6.674,0.215,9.146v0.431c0.645,1.076,0.537,1.507,0.43,2.045c-0.213,1.076-0.43,2.152-5.271,2.152l0.32-0.324
		c-0.428-0.319-0.537-1.076-0.537-1.934c-0.105-0.861-0.217-2.045-0.967-2.37c-0.539-1.076-0.432-2.259-0.324-3.442
		c0.217-1.938,0.432-4.197-0.859-5.918c0.537-1.186,0.322-1.938,0.109-2.476c-0.109-0.107-0.109-0.107-0.215-0.107
		c-0.111-0.109-0.219,0-0.219,0.107L451.131,52.679z M489.547,61.931v0.537h0.646c1.076,1.293,1.293,3.767,0.43,5.812
		c-0.539,0.431-0.539,0.969-0.539,1.613c0,4.088-1.506,5.273-2.582,8.07v1.724l-0.107,0.967c0.539-0.107,1.293-0.429,1.725-0.538
		c0.537,0.538,0.859,0.216,1.182-0.217c0.756-0.752,1.615-1.505,2.475-1.614l3.766,0.432l0.324-0.322l2.258-0.754
		c0.322-0.217,0.646-0.322,1.398-0.646l0.537,0.538c0.217-0.323,0.859-0.431,2.045-0.431h1.506l0.109-0.107h-0.969
		c0,0,2.369-2.689,4.521-0.647l0.43-0.429h1.723l0.215,1.076c0.217-0.109,0.324,0.107,0.428,0.321
		c0.109,0.322,0.434,1.184,0.434,1.184l-3.229,3.23l-0.756-0.862c-0.645,0.538-1.396,0.862-2.369,1.076
		c0,0.431-0.215,0.969-0.967,1.722c-1.723-0.646-2.045-0.429-2.262-0.215c-0.537,0.431-0.645,0.752-1.828,0.752
		c0,0-0.322,0.109-0.43,0.219h0.217c-0.432,0.319-0.859,0.538-1.398,0.429c-0.537,0.429-1.293,0.538-2.152,0.538
		c-0.322,0-0.537,0-0.648,0.859h-3.117c-1.076,0.432-2.582,0.969-3.766,1.507c-2.152,1.4-3.447,1.829-5.813,2.152l-3.768,0.646
		v-0.431l-1.076-0.753c-3.227,0-0.859-0.214-3.01-2.906c-0.861-0.967-1.398-1.614,0.32-3.338c5.701,0,6.027-4.518,6.352-8.822
		c0.215-2.368,0.215-4.413,1.395-6.134v-0.217c-0.43,0.217-1.076,0.217-2.15-0.431c-0.971,0-1.615,0-2.045-0.107
		c-0.215,0.755-0.965,1.293-3.012,1.293c-0.217,0-0.217,0.537-0.322,0.859c-0.217,0.645-0.32,1.183-1.721,1.183h-1.076
		c0.107,0,0.107,1.614,0.107,3.338c0.217,0.321,0.43,0.645-0.539,0.859c0.432,0.646,0.217,1.292,0.217,1.936
		c-0.109,0.538-0.217,1.076-0.859,2.152c0,0.754,0.107,1.292,0.217,2.044c0.215,2.152,0.428,3.982-1.076,5.702
		c0.215,0.538,0.428,1.183,0.428,1.507c0,0.538,0,0.969,0.539,1.507c0,0-2.906,1.721-4.844,1.721
		c-1.719-2.259-2.041-3.98-2.041-5.811c0-1.29,0.107-2.474,0.215-3.55c0.213-1.185,0.43-2.474,0.43-3.766l2.045-14.526l5.381,0.538
		c0.215-0.109,0.537-0.431,0.967-0.861c0.646-0.646,1.396-1.614,3.012-1.397c2.906-0.647,3.123-0.755,3.443-0.967
		c0.539-0.431,0.109-0.862,2.152-0.862c0.219,0.217,0.756-0.106,0.969-0.214c0.861-0.649,2.045-1.399,4.627-0.431L489.547,61.931z
		 M494.713,28.251c0.428,0,0.537,0.109,0.645,0.216c0.107,0.431,0.432,1.076,0.432,1.291v1.076c0.537,0.756-0.109,1.076-0.861,1.399
		h0.215c-0.105,0.107-0.32,0.107,0.861,0.645c-1.184,0.755-0.967,1.076-0.754,1.4v-0.109c0.322,0.538,0.539,1.076-0.43,1.831
		l0.969,0.969c-0.539,1.614-0.539,3.012-0.539,4.195c0,1.292,0,2.583-0.646,4.304l0.109-0.107c0,2.045,0,5.38-5.273,8.827
		c0-4.735,0-9.579-1.076-13.669h0.432l-0.219-0.216v-7.854h-0.107c-0.107,0-0.432,0.107-0.969,0.322
		c-0.537,0.216-1.395,0.538-2.26,0.645c-0.43,1.185-2.689,1.831-4.734,1.938c-0.107,0.107-0.537,0.429-0.645,0.429
		c-2.045,1.076-4.088,2.474-6.887,2.799v1.076h-1.615l-1.936,1.936c-1.295,0-0.969,0.107-1.076,0.216h0.217
		c-0.859,0.538-1.508,0.967-2.906-0.647c0-0.538,0-1.076-0.107-1.504c-0.217-1.614-0.43-3.014,1.936-4.197h1.719
		c0.65-0.86,2.047-1.614,3.447-2.045h-0.107c0.646-0.214,1.291-0.538,1.828-1.076c0.861,0,1.615,0,1.615-0.431l1.83-0.429
		l0.32,0.321l0.434-0.431h0.43c0.109-0.538,1.076-0.752,2.15-1.183c0.322-0.107,0.967-0.431,1.398-0.752l1.293-1.614
		c0.537,0.319,0.537,0.107,0.537,0.107l1.615-0.645l0.754,0.645c3.658-2.476,4.734-6.994,4.734-10.653
		c0.215,0.214,1.291,0.431,1.506,0.752c2.15,3.014,4.412,6.78,2.582,10.008L494.713,28.251z M487.395,72.585
		c0,0.969,0.754,0.107,0.754,0.107L487.395,72.585z"/>
</g>
</svg>
