<?xml version="1.0" encoding="utf-8"?>
<!-- Generator: Adobe Illustrator 16.0.0, SVG Export Plug-In . SVG Version: 6.00 Build 0)  -->
<!DOCTYPE svg PUBLIC "-//W3C//DTD SVG 1.1//EN" "http://www.w3.org/Graphics/SVG/1.1/DTD/svg11.dtd">
<svg version="1.1" id="Layer_1" xmlns="http://www.w3.org/2000/svg" xmlns:xlink="http://www.w3.org/1999/xlink" x="0px" y="0px"
	 width="200px" height="200px" viewBox="111.5 197 200 200" enable-background="new 111.5 197 200 200" xml:space="preserve">
<g>
	<circle fill="#11A95A" cx="212.5" cy="297" r="100"/>
	<g>
		<path fill="#FFFFFF" d="M243.026,323.771l4.196-2.588c0,0-16.029-7.248-14.862-14.591c0,0,2.28-23.333-3.95-23.658
			c0,0-2.552-0.606-3.442,4.725c0,0-0.407,4.109-4.119,2.908c0,0-3.466-1.52-4.406-6.818c0,0-1.905-10.171-10.713-10.402
			c0,0-6.294,0.464-5.549,6.805c0,0,0.579,4.242,1.324,6.473c0,0-10.009-13.301-19.868-10.181c0,0-6.292,2.581-6.927,9.641
			c0,0-0.205,6.901,5.864,8.99c0,0,7.144,0.978,8.323,3.114c0,0,0.772,1.93-1.176,3.24c0,0-4.985,2.893-2.433,8.179
			c0,0,3.085,6.931,11.03,6.204c0,0,4.692-0.391,6.202-2.268c0,0,1.163-2.09,2.703,0.378c0,0,1.234,2.131-1.747,3.709
			c0.113,0.051-5.218,2.794-0.538,6.209c0,0,8.221,6.563,13.499-1.425c0,0,4.211-8.208,7.302-7.797c0,0,6.76,1.009,10.829,3.809
			L243.026,323.771z M214.502,290.921c0.652-0.159,1.401,0.674,1.671,1.847c0.269,1.178-0.04,2.251-0.695,2.405
			c-0.652,0.151-1.4-0.685-1.671-1.855C213.538,292.141,213.853,291.068,214.502,290.921z M200.693,295.917
			c-0.652,0.152-1.396-0.676-1.667-1.851c-0.271-1.174,0.043-2.253,0.694-2.4c0.653-0.15,1.399,0.676,1.671,1.861
			C201.657,294.696,201.346,295.771,200.693,295.917z M217.993,304.211c-0.104,0.422-0.374,0.888-0.407,0.94l-0.017,0.024
			l-0.018,0.024c-1.15,1.477-4.527,1.745-4.873,1.767c-0.502,0.07-1.083,0.107-1.715,0.1c-1.39-0.015-2.567-0.211-2.625-0.227
			c-4.038-0.763-6.758-5.708-6.874-5.919l-0.08-0.148l0.036-0.166c0.148-0.713,0.674-0.764,0.835-0.761
			c0.332,0.005,0.624,0.21,0.681,0.243l0.072,0.063l0.051,0.08c0.482,0.852,1.702,2.278,1.715,2.293
			c1.419,1.691,3.489,2.561,6.137,2.589c2.428,0.026,4.468-0.695,4.475-0.695c1.716-0.802,0.438-4.005,0.422-4.043
			c-0.066-0.182-0.275-0.721,0.009-1.144c0.161-0.227,0.427-0.349,0.76-0.346c0.166,0,0.3,0.035,0.327,0.045l0.244,0.063
			l0.072,0.238C218.362,302.809,218.031,304.099,217.993,304.211z"/>
		<path fill="#FFFFFF" d="M242.061,294.911c0.036,0.084,0.104,0.152,0.184,0.186c0.029,0.014,0.056,0.021,0.086,0.023
			c0.036,0.006,3.59,0.64,5.669-3.386c0.058-0.112,0.048-0.242-0.015-0.355c-0.063-0.104-0.185-0.171-0.308-0.171
			c-0.154,0-3.597-0.014-5.601,3.37C242.017,294.679,242.008,294.806,242.061,294.911z"/>
		<path fill="#FFFFFF" d="M239.309,296.125c0.083,0.051,0.19,0.063,0.291,0.038c0.154-0.04,0.269-0.164,0.293-0.323
			c0.084-0.554,0.277-1.91,0.703-2.561c0.032-0.046,3.642-4.803-0.278-10.948c-0.074-0.123-0.211-0.191-0.348-0.183
			c-0.146,0.014-0.272,0.091-0.335,0.219c-0.012,0.021-0.992,1.644-1.612,2.938c-0.025,0.061-2.837,5.5,1.167,10.719
			C239.224,296.062,239.264,296.098,239.309,296.125z"/>
	</g>
	<path fill="#FFFFFF" d="M280.833,313.836c-1.379,29.468-29.995,44.938-30.288,45.093l-1.562,0.826l4.978,6.108l-26.795-0.315
		l13.169-21.222l4.438,5.836l1.202-0.408c21.199-7.3,26.182-31.346,27.173-38.059L280.833,313.836z"/>
	<path fill="#FFFFFF" d="M200.313,373.075c-29.457-1.605-44.706-30.341-44.857-30.634l-0.814-1.567l-6.145,4.931l0.521-26.792
		l21.12,13.331l-5.87,4.395l0.396,1.206c7.138,21.253,31.145,26.422,37.851,27.464L200.313,373.075z"/>
	<path fill="#FFFFFF" d="M142.864,284.804c1.296-29.471,29.871-45.022,30.164-45.176l1.559-0.831l-4.996-6.093l26.797,0.24
		l-13.111,21.257l-4.456-5.823l-1.199,0.409c-21.179,7.36-26.094,31.42-27.068,38.137L142.864,284.804z"/>
	<path fill="#FFFFFF" d="M234.534,229.083c29.307,3.375,42.799,32.976,42.932,33.279l0.72,1.613l6.43-4.551l-2.133,26.711
		l-20.278-14.579l6.123-4.033l-0.323-1.227c-5.846-21.645-29.498-28.249-36.129-29.693L234.534,229.083z"/>
</g>
<g>
	<circle fill="#11A95A" cx="1258.83" cy="273.378" r="117.002"/>
	<g>
		<g>
			<rect x="1280.219" y="258.507" fill="#FFFFFF" width="36.23" height="31.033"/>
			<rect x="1240.181" y="224.712" fill="#FFFFFF" width="38.038" height="31.795"/>
			<rect x="1240.181" y="258.507" fill="#FFFFFF" width="38.038" height="31.033"/>
			<rect x="1280.219" y="224.712" fill="#FFFFFF" width="36.23" height="31.795"/>
		</g>
		<path fill="#FFFFFF" d="M1326.334,272.271h-90.382v-40.194h-26.313l-18.306,29.745c0,0,0.567,38.655,0,43.475
			c-0.088,0.751,7.108,1.153,18.209,1.329c-0.136,0.84-0.226,1.696-0.226,2.574c0,8.847,7.17,16.018,16.017,16.018
			c8.848,0,16.018-7.171,16.018-16.018c0-0.859-0.087-1.696-0.218-2.519c12.418-0.086,25.686-0.262,37.974-0.459
			c-0.182,0.967-0.287,1.959-0.287,2.979c0,8.847,7.17,16.017,16.018,16.017c8.847,0,16.017-7.17,16.017-16.017
			c0-1.225-0.149-2.41-0.409-3.557c9.705-0.199,15.891-0.349,15.891-0.349v-33.025H1326.334z M1203.922,256.104l9.151-16.017
			l14.491,0.38v15.637H1203.922z M1225.334,318.924c-5.371,0-9.725-4.354-9.725-9.725s4.354-9.725,9.725-9.725
			c5.372,0,9.726,4.354,9.726,9.725S1230.707,318.924,1225.334,318.924z M1294.837,318.925c-5.372,0-9.726-4.353-9.726-9.725
			s4.354-9.726,9.726-9.726s9.725,4.354,9.725,9.726S1300.209,318.925,1294.837,318.925z"/>
	</g>
</g>
<g>
	<circle fill="#11A95A" cx="817.854" cy="280.376" r="117.002"/>
	<g>
		<path fill="#FFFFFF" d="M820.24,311.205c-0.078,0-0.155-0.006-0.234-0.02c-0.818-0.129-1.377-0.896-1.248-1.716
			c0.663-4.202-1.837-8.719-1.861-8.764c-0.406-0.724-0.149-1.638,0.573-2.043c0.722-0.404,1.637-0.149,2.042,0.573
			c0.125,0.223,3.033,5.48,2.209,10.701C821.604,310.678,820.966,311.205,820.24,311.205z"/>
	</g>
	<g>
		<path fill="#FFFFFF" d="M826.233,307.422c-0.105,0-0.215-0.012-0.323-0.035c-0.81-0.178-1.32-0.979-1.143-1.787
			c1.162-5.275-2.715-9.224-2.755-9.264c-0.586-0.585-0.586-1.535-0.001-2.121c0.586-0.586,1.536-0.586,2.122,0
			c0.207,0.207,5.074,5.166,3.563,12.029C827.543,306.945,826.923,307.422,826.233,307.422z"/>
	</g>
	<g>
		<path fill="#FFFFFF" d="M833.104,303.715c-0.081,0-0.164-0.006-0.247-0.02c-0.817-0.137-1.37-0.908-1.234-1.727
			c0.959-5.792-3.943-10.605-3.993-10.653c-0.597-0.576-0.612-1.525-0.037-2.121c0.577-0.596,1.525-0.612,2.121-0.037
			c0.249,0.24,6.083,5.973,4.868,13.302C834.46,303.193,833.823,303.715,833.104,303.715z"/>
	</g>
	<path fill="#FFFFFF" d="M814.324,316.087c-1.729,0-3.418-0.62-5.022-1.843c-0.067-0.053-0.126-0.102-0.184-0.153
		c-0.148-0.14-3.434-3.257-3.226-8.028c-2.152-1.987-8.118-7.104-14.223-8.835c-1.688-0.212-9.163-1.447-13.002-6.984
		c-0.437-0.14-1.152-0.298-2.154-0.298c-1.325,0-2.789,0.272-4.352,0.81c-0.265,0.09-0.538,0.136-0.813,0.136
		c-0.538,0-1.052-0.169-1.483-0.487c-0.663-0.49-1.042-1.273-1.014-2.094l0.824-25.102c0.044-1.354,1.139-2.416,2.492-2.419
		l9.296-0.026c1.063-0.17,4.538-0.655,9.472-0.655c6.073,0,15.178,0.771,24.06,4.438l1.574,0.65l-1.335,1.059
		c-0.802,0.635-1.625,1.351-2.517,2.188l-0.455,0.428l-0.583-0.221c-7.734-2.928-15.551-3.542-20.744-3.542
		c-5.05,0-8.456,0.554-8.827,0.616c-0.137,0.025-0.283,0.039-0.431,0.039l-7.084,0.02l-0.638,19.375
		c0.875-0.141,1.73-0.212,2.558-0.212c3.101,0,4.843,0.983,5.159,1.181c0.339,0.209,0.625,0.501,0.83,0.844
		c2.67,4.48,9.833,5.303,9.905,5.311c0.136,0.014,0.271,0.039,0.4,0.074c8.984,2.453,17.14,10.65,17.481,10.998
		c0.571,0.58,0.825,1.404,0.68,2.205c-0.472,2.564,1.128,4.426,1.483,4.801c0.667,0.484,1.295,0.729,1.867,0.729
		c1.895,0,3.679-2.563,4.207-3.553c0.429-0.827,1.279-1.345,2.218-1.345c0.307,0,0.605,0.057,0.893,0.166
		c0.139,0.053,0.267,0.076,0.401,0.076c1.21,0,2.854-1.838,3.464-2.822c0.321-0.517,0.818-0.897,1.399-1.073
		c4.645-1.405,5.628-3.009,5.801-3.386c-0.025-0.69,0.271-1.166,0.542-1.51c0.544-0.691,1.352-0.765,1.739-0.8
		c0.943-0.088,1.45-0.343,1.608-0.552c0.106-0.142,0.13-0.359,0.125-0.507c-2.814-9.016-7.652-16.182-14.381-21.298l-1.513-1.151
		l1.807-0.594c1.278-0.422,2.462-0.636,3.514-0.636c0.393,0,0.772,0.03,1.132,0.089l0.284,0.046l0.215,0.189
		c5.174,4.552,9.227,10.354,12.047,17.247l0.768,1.875l-1.955-0.531c-0.042-0.012-0.086-0.018-0.131-0.018
		c-0.194,0-0.373,0.115-0.452,0.293c-0.073,0.164-0.037,0.311-0.011,0.383c0.027,0.072,0.1,0.203,0.264,0.277
		c0.582,0.258,1.229,0.42,1.927,0.481l0.651,0.058l0.352,1.037c0.111,0.324,0.223,0.648,0.326,0.984
		c0.021,0.066,0.039,0.139,0.054,0.207c0.054,0.249,0.489,2.509-0.981,4.519c-0.813,1.106-1.988,1.873-3.5,2.283
		c-0.867,1.692-2.963,3.868-7.935,5.528c-1.118,1.507-3.705,4.379-7.158,4.38c-0.024,0-0.052,0-0.077-0.001
		C820.575,313.359,817.969,316.087,814.324,316.087z"/>
	<path fill="#FFFFFF" d="M840.734,293.299c-0.282,0-0.563-0.014-0.842-0.037l-0.654-0.057l-0.208-0.622
		c-0.404-1.212-0.806-2.296-1.224-3.316l-0.771-1.886l1.964,0.543c0.125,0.035,0.245,0.072,0.362,0.124
		c0.385,0.171,0.854,0.258,1.391,0.258c3.04-0.001,7.557-2.71,9.85-4.531c0.033-0.026,0.079-0.061,0.123-0.093
		c2.888-1.99,7.636-2.746,10.782-3.033l-2.367-17.055c-1.084,0.127-2.067,0.191-2.934,0.191c-0.62,0-1.182-0.034-1.668-0.102
		c-0.261-0.035-0.512-0.111-0.748-0.227c-0.278-0.135-7.016-3.332-15.871-3.332c-7.33,0-13.988,2.149-19.788,6.391l-0.491,0.359
		l-0.545-0.271c-0.957-0.478-1.978-0.941-3.029-1.377l-1.572-0.65l1.334-1.057c6.922-5.485,15.02-8.266,24.064-8.266
		c8.938,0,15.973,2.785,17.648,3.51c0.212,0.017,0.439,0.023,0.678,0.023c1.616,0,3.692-0.326,4.564-0.498
		c0.162-0.031,0.321-0.046,0.48-0.046c0.525,0,1.028,0.16,1.454,0.463c0.558,0.397,0.932,1.015,1.024,1.692l3.088,22.24
		c0.101,0.707-0.11,1.426-0.577,1.97c-0.466,0.544-1.144,0.862-1.857,0.874c-2.938,0.048-8.463,0.711-10.787,2.285
		C852.488,288.655,846.324,293.299,840.734,293.299z"/>
	<path fill="#FFFFFF" d="M839.277,276.905c-4.262,0-8.635-1.491-9.468-1.79c-0.153-0.051-0.345-0.082-0.536-0.113l-0.285-0.045
		l-0.217-0.191c-1.096-0.964-3.222-1.435-4.396-2.266l-0.875-1.75l2.216-0.482c0.979-0.213,1.926-0.322,2.81-0.322
		c1.031,0,2.008,0.148,2.901,0.438c1.487,0.532,5.018,1.52,7.921,1.52c1.183,0,2.119-0.16,2.784-0.479
		c0.496-0.238,0.775-0.535,0.935-0.99c0.347-1.006,1.295-1.683,2.357-1.683c0.279,0,0.558,0.048,0.823,0.14
		c0.63,0.218,1.138,0.669,1.43,1.27c0.291,0.602,0.332,1.279,0.112,1.911c-0.603,1.739-1.779,3.04-3.502,3.863
		C842.941,276.579,841.255,276.905,839.277,276.905L839.277,276.905z"/>
	<path fill="#FFFFFF" d="M837.141,290.888c-0.337,0.757,0.003,1.644,0.76,1.98c0.714,0.317,1.468,0.496,2.245,0.564
		c-0.39-1.164-0.803-2.295-1.246-3.378C838.198,289.864,837.446,290.203,837.141,290.888z"/>
	<polygon fill="#FFFFFF" points="890.485,292.526 887.265,250.558 862.16,255.151 862.906,259.149 858.352,259.874 862.462,289.223 
		868.442,288.798 869.337,293.587 	"/>
	<polygon fill="#FFFFFF" points="775.992,258.236 769.404,258.339 769.813,252.487 742.742,250.473 739.314,296.078 
		766.625,298.087 767.045,292.098 774.089,292.368 	"/>
	<g>
		<path fill="#FFFFFF" d="M815.898,278.875c-0.073,0-0.146,0-0.218-0.002c-3.448-0.08-5.369-2.051-5.577-2.275l-0.231-0.252
			l-0.136-0.313c-2.148-4.973,4.437-11.44,5.777-12.687l2.724,2.931c-2.35,2.188-5.202,5.973-4.922,7.837
			c0.982,0.729,4.354,2.365,10.188-3.383l2.808,2.85C822.742,277.096,819.24,278.875,815.898,278.875z"/>
	</g>
</g>
</svg>
