<?xml version="1.0" encoding="utf-8"?>
<!-- Generator: Adobe Illustrator 16.0.0, SVG Export Plug-In . SVG Version: 6.00 Build 0)  -->
<!DOCTYPE svg PUBLIC "-//W3C//DTD SVG 1.1//EN" "http://www.w3.org/Graphics/SVG/1.1/DTD/svg11.dtd">
<svg version="1.1" id="Layer_1" xmlns="http://www.w3.org/2000/svg" xmlns:xlink="http://www.w3.org/1999/xlink" x="0px" y="0px"
	 width="211px" height="65px" viewBox="0 0 211 65" enable-background="new 0 0 211 65" xml:space="preserve">
<path fill="#016735" d="M92.048,48.792V19.204h3.908v29.588H92.048z M72.257,46.829v-27.11h3.876v10.33h6.744v-10.33h3.876v27.11
	H72.257z M82.877,43.403v-9.929h-6.744v9.929H82.877z"/>
<path fill="#016735" d="M103.148,47.505V44.08h11.296v-6.886c-3.183-0.224-5.701-1.067-7.488-2.51
	c-1.95-1.566-2.939-3.708-2.939-6.366c0-2.599,1.017-4.79,2.94-6.334c2.129-1.717,5.279-2.587,9.361-2.587
	c4.104,0,7.264,0.871,9.394,2.587c1.922,1.573,2.938,3.763,2.938,6.334c0,2.629-0.988,4.771-2.937,6.365
	c-1.755,1.41-4.241,2.254-7.394,2.509v6.888h11.135v3.425H103.148z M116.318,22.854c-3.008,0-5.25,0.58-6.665,1.725
	c-1.146,0.956-1.729,2.215-1.729,3.739c0,1.578,0.565,2.8,1.729,3.738c1.405,1.167,3.647,1.757,6.665,1.757
	c3.037,0,5.289-0.591,6.694-1.755c1.164-0.938,1.729-2.161,1.729-3.74c0-1.526-0.581-2.784-1.729-3.741
	C121.618,23.451,119.302,22.854,116.318,22.854z"/>
<path fill="#016735" d="M155.825,48.792V19.204h3.908v29.588H155.825z M135.841,43.422l0.145-0.042
	c4.977-1.439,8.232-4.71,9.68-9.723c-1.323,0.34-3.2,0.525-5.343,0.525h-4.481v-3.458h4.61c2.63,0,4.676-0.216,5.931-0.625
	c0.141-1.14,0.209-2.408,0.209-3.873v-3.019h-10.557v-3.489h14.4v6.089c0,11.856-4.692,18.805-14.345,21.241l-0.249,0.063V43.422z"
	/>
<path fill="#016735" d="M169.468,48.921v-9.99h3.908v6.564h18.826v3.426H169.468z M187.778,40.104V19.204h3.908v20.899H187.778z
	 M167.183,34.143l0.157-0.034c2.807-0.61,6.151-2.545,6.151-8.301v-0.25h-5.793v-3.426h5.793v-3.765h3.875v3.765h5.793v3.426h-5.793
	v0.25c0,4.344,2.08,7.007,6.183,7.915l0.157,0.035v3.487l-0.234-0.041c-3.456-0.603-6.411-2.366-7.979-4.745
	c-1.691,2.6-4.825,4.599-8.078,5.132l-0.232,0.038V34.143z"/>
<g>
	<path fill="#016735" d="M34.955,8.197c-14.153,0-25.667,11.514-25.667,25.667c0,14.151,11.514,25.665,25.667,25.665
		c14.152,0,25.666-11.514,25.666-25.665C60.621,19.711,49.107,8.197,34.955,8.197z M34.955,56.861c-12.683,0-23-10.315-23-22.997
		c0-12.683,10.317-23,23-23c9.551,0,17.759,5.854,21.23,14.162c-3.139,3.441-8.625,9.186-9.141,9.535
		c-0.031,0.022-0.063,0.045-0.087,0.073c-0.088-0.011-0.181-0.004-0.279-0.014c-2.333-0.267-3.332,0.93-5.795,3.851
		c-0.095,0.112-0.142,0.262-0.126,0.408l0.002,0.027c0.021,0.13,0.086,0.25,0.188,0.337c0.234,0.194,0.58,0.166,0.775-0.068
		c2.2-2.604,2.523-3.354,3.934-2.731c-2.688,2.219-3.225,3.692-3.292,3.813c-0.06,0.098-0.085,0.215-0.072,0.33
		c0.027,0.193,0.125,0.336,0.269,0.42c0.126,0.074,0.274,0.096,0.417,0.059c0.142-0.037,0.261-0.131,0.334-0.256
		c0.02-0.033,0.488-1.156,3.394-3.729c0.169,0.084,0.448,0.294,0.5,0.338c-0.793,2.514-2.879,4.203-2.915,4.238
		c-0.123,0.119-0.181,0.285-0.164,0.451c0.02,0.139,0.072,0.242,0.154,0.328c0.101,0.104,0.238,0.16,0.385,0.166
		c0.146,0,0.287-0.056,0.391-0.158c0.128-0.123,1.942-1.697,3.24-4.26c0.06,0.002,0.148,0.084,0.184,0.151
		c0.923,1.863-2.291,4.59-2.325,4.619c-0.147,0.116-0.224,0.299-0.205,0.485c0.01,0.104,0.051,0.203,0.115,0.283
		c0.19,0.24,0.534,0.277,0.771,0.088c0.167-0.129,3.174-2.68,2.809-6.168c-0.029-0.295-0.09-0.586-0.179-0.867
		c0.47-0.53,4.653-5.51,7.669-8.982c0.531,1.935,0.82,3.969,0.82,6.071C57.954,46.546,47.637,56.861,34.955,56.861z"/>
	<path fill="#016735" d="M38.568,38.559c0,0,0.941-9.634-1.631-9.769c0,0-1.054-0.25-1.422,1.951c0,0-0.167,1.697-1.701,1.202
		c0,0-1.43-0.628-1.819-2.816c0,0-0.787-4.199-4.422-4.294c0,0-2.6,0.191-2.292,2.81c0,0,0.239,1.751,0.547,2.672
		c0,0-4.133-5.492-8.204-4.204c0,0-2.597,1.065-2.86,3.981c0,0-0.083,2.849,2.422,3.713c0,0,2.949,0.402,3.436,1.284
		c0,0,0.319,0.797-0.485,1.338c0,0-2.059,1.195-1.005,3.378c0,0,1.274,2.86,4.554,2.563c0,0,1.937-0.162,2.561-0.938
		c0,0,0.479-0.863,1.116,0.155c0,0,0.509,0.881-0.722,1.531c0.047,0.021-2.153,1.153-0.221,2.563c0,0,3.394,2.709,5.574-0.589
		c0,0,1.738-3.39,3.015-3.22c0,0,2.791,0.416,4.471,1.572l3.493,2.207l1.731-1.068C44.704,44.583,38.085,41.591,38.568,38.559z
		 M31.195,32.087c0.269-0.065,0.578,0.278,0.689,0.763c0.11,0.486-0.017,0.929-0.287,0.993c-0.27,0.062-0.578-0.282-0.69-0.766
		C30.796,32.592,30.925,32.148,31.195,32.087z M25.492,34.15c-0.269,0.063-0.576-0.278-0.688-0.765
		c-0.111-0.485,0.018-0.93,0.287-0.991c0.269-0.062,0.577,0.279,0.69,0.769C25.89,33.646,25.763,34.091,25.492,34.15z
		 M32.636,37.575c-0.043,0.174-0.155,0.366-0.168,0.388l-0.006,0.01l-0.007,0.012c-0.475,0.608-1.869,0.721-2.012,0.729
		c-0.208,0.028-0.447,0.044-0.708,0.041c-0.574-0.006-1.06-0.087-1.083-0.093c-1.668-0.315-2.791-2.356-2.839-2.443l-0.033-0.063
		l0.015-0.067c0.062-0.294,0.279-0.313,0.345-0.313c0.137,0.002,0.258,0.088,0.281,0.102l0.03,0.025l0.02,0.033
		c0.2,0.352,0.704,0.938,0.708,0.946c0.587,0.699,1.44,1.058,2.534,1.068c1.002,0.012,1.844-0.287,1.848-0.287
		c0.708-0.331,0.18-1.653,0.173-1.67c-0.027-0.074-0.114-0.298,0.004-0.472c0.066-0.094,0.175-0.145,0.313-0.144
		c0.068,0,0.123,0.015,0.135,0.019l0.1,0.026l0.03,0.099C32.788,36.996,32.651,37.527,32.636,37.575z"/>
	<path fill="#016735" d="M42.573,33.734c0.014,0.035,0.042,0.063,0.076,0.076c0.012,0.006,0.023,0.01,0.035,0.01
		c0.014,0.004,1.482,0.266,2.34-1.397c0.023-0.046,0.02-0.1-0.005-0.146c-0.026-0.044-0.077-0.071-0.128-0.071
		c-0.063,0-1.484-0.005-2.312,1.392C42.554,33.641,42.551,33.691,42.573,33.734z"/>
	<path fill="#016735" d="M41.436,34.236c0.034,0.021,0.079,0.025,0.12,0.016c0.063-0.018,0.111-0.066,0.121-0.134
		c0.035-0.229,0.115-0.788,0.291-1.058c0.013-0.02,1.503-1.982-0.115-4.521c-0.031-0.05-0.087-0.079-0.144-0.076
		c-0.06,0.006-0.112,0.038-0.138,0.09c-0.005,0.009-0.409,0.679-0.666,1.213c-0.011,0.025-1.171,2.27,0.482,4.426
		C41.401,34.21,41.418,34.227,41.436,34.236z"/>
</g>
</svg>
