<?xml version="1.0" encoding="utf-8"?>
<!-- Generator: Adobe Illustrator 16.0.0, SVG Export Plug-In . SVG Version: 6.00 Build 0)  -->
<!DOCTYPE svg PUBLIC "-//W3C//DTD SVG 1.1//EN" "http://www.w3.org/Graphics/SVG/1.1/DTD/svg11.dtd">
<svg version="1.1" id="Layer_1" xmlns="http://www.w3.org/2000/svg" xmlns:xlink="http://www.w3.org/1999/xlink" x="0px" y="0px"
	 width="211px" height="65px" viewBox="0 0 211 65" enable-background="new 0 0 211 65" xml:space="preserve">
<text transform="matrix(1 0 0 1 68.9824 46.6934)" fill="#016735" font-family="'S-CoreDream-5Medium'" font-size="32.1784" letter-spacing="1">비오키친</text>
<g>
	<path fill="#016735" d="M34.955,8.197c-14.153,0-25.667,11.514-25.667,25.667c0,14.152,11.514,25.666,25.667,25.666
		c14.152,0,25.666-11.514,25.666-25.666C60.621,19.711,49.107,8.197,34.955,8.197z M34.955,56.862c-12.683,0-23-10.316-23-22.998
		c0-12.683,10.317-23,23-23c9.551,0,17.759,5.854,21.23,14.162c-3.139,3.441-8.625,9.186-9.141,9.535
		c-0.031,0.022-0.063,0.045-0.087,0.073c-0.088-0.011-0.181-0.004-0.279-0.014c-2.333-0.266-3.332,0.93-5.795,3.85
		c-0.095,0.113-0.142,0.263-0.126,0.409l0.002,0.027c0.021,0.13,0.086,0.25,0.188,0.337c0.234,0.195,0.58,0.166,0.775-0.068
		c2.2-2.605,2.523-3.354,3.934-2.732c-2.688,2.219-3.225,3.693-3.292,3.813c-0.06,0.098-0.085,0.214-0.072,0.33
		c0.027,0.193,0.125,0.336,0.269,0.42c0.126,0.074,0.274,0.096,0.417,0.059c0.142-0.038,0.261-0.131,0.334-0.256
		c0.02-0.033,0.488-1.156,3.394-3.729c0.169,0.084,0.448,0.294,0.5,0.338c-0.793,2.513-2.879,4.203-2.915,4.238
		c-0.123,0.119-0.181,0.285-0.164,0.451c0.02,0.139,0.072,0.242,0.154,0.328c0.101,0.104,0.238,0.161,0.385,0.166
		c0.146,0,0.287-0.055,0.391-0.158c0.128-0.123,1.942-1.697,3.24-4.26c0.06,0.002,0.148,0.084,0.184,0.152
		c0.923,1.863-2.291,4.59-2.325,4.619c-0.147,0.117-0.224,0.299-0.205,0.486c0.01,0.104,0.051,0.203,0.115,0.283
		c0.19,0.24,0.534,0.277,0.771,0.088c0.167-0.129,3.174-2.68,2.809-6.168c-0.029-0.295-0.09-0.587-0.179-0.868
		c0.47-0.53,4.653-5.51,7.669-8.982c0.531,1.935,0.82,3.969,0.82,6.071C57.954,46.546,47.637,56.862,34.955,56.862z"/>
	<path fill="#016735" d="M38.568,38.559c0,0,0.941-9.634-1.631-9.769c0,0-1.054-0.25-1.422,1.951c0,0-0.167,1.697-1.701,1.202
		c0,0-1.43-0.628-1.819-2.816c0,0-0.787-4.199-4.422-4.294c0,0-2.6,0.191-2.292,2.81c0,0,0.239,1.751,0.547,2.672
		c0,0-4.133-5.492-8.204-4.204c0,0-2.597,1.065-2.86,3.981c0,0-0.083,2.849,2.422,3.712c0,0,2.949,0.403,3.436,1.285
		c0,0,0.319,0.797-0.485,1.338c0,0-2.059,1.195-1.005,3.377c0,0,1.274,2.861,4.554,2.563c0,0,1.937-0.162,2.561-0.938
		c0,0,0.479-0.863,1.116,0.156c0,0,0.509,0.881-0.722,1.531c0.047,0.021-2.153,1.154-0.221,2.563c0,0,3.394,2.71,5.574-0.588
		c0,0,1.738-3.39,3.015-3.22c0,0,2.791,0.416,4.471,1.572l3.493,2.207l1.731-1.068C44.704,44.583,38.085,41.591,38.568,38.559z
		 M31.195,32.087c0.269-0.065,0.578,0.278,0.689,0.763c0.11,0.486-0.017,0.93-0.287,0.993c-0.27,0.062-0.578-0.282-0.69-0.766
		C30.796,32.592,30.925,32.148,31.195,32.087z M25.492,34.151c-0.269,0.063-0.576-0.279-0.688-0.765
		c-0.111-0.485,0.018-0.93,0.287-0.991c0.269-0.062,0.577,0.279,0.69,0.769C25.89,33.646,25.763,34.091,25.492,34.151z
		 M32.636,37.575c-0.043,0.174-0.155,0.366-0.168,0.388l-0.006,0.01l-0.007,0.011c-0.475,0.609-1.869,0.721-2.012,0.729
		c-0.208,0.028-0.447,0.044-0.708,0.041c-0.574-0.006-1.06-0.087-1.083-0.093c-1.668-0.315-2.791-2.357-2.839-2.443l-0.033-0.063
		l0.015-0.068c0.062-0.294,0.279-0.314,0.345-0.314c0.137,0.002,0.258,0.088,0.281,0.102l0.03,0.026l0.02,0.032
		c0.2,0.352,0.704,0.939,0.708,0.947c0.587,0.699,1.44,1.057,2.534,1.068c1.002,0.012,1.844-0.287,1.848-0.287
		c0.708-0.331,0.18-1.653,0.173-1.67c-0.027-0.074-0.114-0.297,0.004-0.471c0.066-0.094,0.175-0.145,0.313-0.144
		c0.068,0,0.123,0.015,0.135,0.019l0.1,0.026l0.03,0.099C32.788,36.996,32.651,37.528,32.636,37.575z"/>
	<path fill="#016735" d="M42.573,33.735c0.014,0.034,0.042,0.063,0.076,0.076c0.012,0.006,0.023,0.009,0.035,0.01
		c0.014,0.003,1.482,0.265,2.34-1.398c0.023-0.046,0.02-0.1-0.005-0.146c-0.026-0.044-0.077-0.071-0.128-0.071
		c-0.063,0-1.484-0.005-2.312,1.392C42.554,33.64,42.551,33.692,42.573,33.735z"/>
	<path fill="#016735" d="M41.436,34.236c0.034,0.021,0.079,0.026,0.12,0.016c0.063-0.017,0.111-0.067,0.121-0.134
		c0.035-0.229,0.115-0.788,0.291-1.057c0.013-0.02,1.503-1.983-0.115-4.521c-0.031-0.05-0.087-0.079-0.144-0.076
		c-0.06,0.006-0.112,0.038-0.138,0.09c-0.005,0.009-0.409,0.679-0.666,1.213c-0.011,0.025-1.171,2.27,0.482,4.426
		C41.401,34.21,41.418,34.226,41.436,34.236z"/>
</g>
</svg>
