<?xml version="1.0" encoding="utf-8"?>
<!-- Generator: Adobe Illustrator 16.0.0, SVG Export Plug-In . SVG Version: 6.00 Build 0)  -->
<!DOCTYPE svg PUBLIC "-//W3C//DTD SVG 1.1//EN" "http://www.w3.org/Graphics/SVG/1.1/DTD/svg11.dtd">
<svg version="1.1" id="Layer_1" xmlns="http://www.w3.org/2000/svg" xmlns:xlink="http://www.w3.org/1999/xlink" x="0px" y="0px"
	 width="85px" height="85px" viewBox="0 0 85 85" enable-background="new 0 0 85 85" xml:space="preserve">
<g>
	<path fill="#11A95A" d="M35.905,39.419c0.064-0.011,0.13-0.018,0.197-0.019c0,0,0.255-0.009,0.678-0.058
		c2.365-0.272,8.01-1.502,9.437-7.019c0.053-0.267,0.755-4.046-1.269-6.92c-1.3-1.849-3.5-2.99-6.538-3.395
		c-0.055-0.008-3.043-0.449-6.503-0.051c-4.585,0.53-7.724,2.193-9.33,4.945c-2.102,3.603-1.605,9.13,1.477,16.43
		c0.007,0.017,0.013,0.035,0.021,0.053l1.545,4.116c0.258-0.878,0.631-1.76,1.154-2.611C28.552,41.994,31.625,40.154,35.905,39.419z
		 M30.544,23.405c0.783-0.138,7.769-1.268,11.52,1.372c1.248,0.878,2.009,2.064,2.261,3.521c0.132,0.756-0.377,1.475-1.133,1.605
		c-0.036,0.007-0.072,0.011-0.109,0.014c-0.714,0.066-1.371-0.427-1.496-1.147c-0.125-0.724-0.48-1.27-1.119-1.72
		c-2.383-1.679-7.627-1.225-9.446-0.909c-0.761,0.137-1.475-0.375-1.606-1.129C29.284,24.256,29.789,23.538,30.544,23.405z"/>
	<path fill="#11A95A" d="M61.997,44.044l-0.94-4.925c-0.427,0.995-1.012,1.984-1.808,2.89c-2.206,2.506-5.495,3.777-9.78,3.775
		c-0.057,0-0.113-0.005-0.169-0.013c-0.342-0.049-8.459-1.107-11.379,5.376c-0.099,0.259-1.465,3.938,0.076,7.196
		c0.992,2.095,3.007,3.63,5.988,4.562c0.036,0.011,1.41,0.465,3.396,0.809c3.349,0.579,9.481,1.005,12.933-2.651
		c3.005-3.183,3.574-8.892,1.691-16.971C62.002,44.076,61.999,44.06,61.997,44.044z M52.411,62.44
		c-0.167,0.004-2.328,0.048-4.817-0.383c-2.208-0.382-4.672-1.138-6.23-2.625c-1.065-1.015-1.622-2.252-1.653-3.676
		c-0.015-0.657,0.505-1.203,1.163-1.218c0.659-0.015,1.202,0.507,1.217,1.163c0.018,0.779,0.316,1.437,0.915,2.008
		c2.159,2.06,7.479,2.394,9.347,2.35c0.656-0.017,1.203,0.504,1.221,1.161C53.588,61.878,53.068,62.424,52.411,62.44z"/>
	<path fill="#11A95A" d="M42.614,4.733c-21.263,0-38.5,17.237-38.5,38.5c0,21.263,17.237,38.5,38.5,38.5
		c21.264,0,38.5-17.237,38.5-38.5C81.114,21.97,63.878,4.733,42.614,4.733z M58.189,26.748c0.219-1.411,1.545-2.381,2.955-2.162
		c0.009,0,0.039,0.006,0.045,0.007c1.383,0.239,2.332,1.562,2.118,2.949c-0.106,0.684-0.472,1.285-1.031,1.693
		c-0.559,0.409-1.242,0.575-1.926,0.468c-0.006-0.001-0.038-0.006-0.045-0.007C58.925,29.457,57.974,28.133,58.189,26.748z
		 M21.748,44.254c-3.431-8.138-3.871-14.49-1.306-18.885c2.042-3.499,5.988-5.679,11.412-6.305c3.845-0.443,7.079,0.04,7.214,0.061
		c3.823,0.508,6.671,2.046,8.435,4.57c2.783,3.982,1.733,8.903,1.688,9.111c-0.003,0.014-0.006,0.028-0.01,0.043
		c-1.894,7.416-9.524,8.855-11.817,9.12c-0.382,0.044-0.662,0.063-0.809,0.07c-3.413,0.602-5.818,2.005-7.15,4.173
		c-2.041,3.321-1.057,7.491-0.857,8.231c0.045,0.113,0.077,0.234,0.092,0.363c0.086,0.751-0.442,1.432-1.187,1.535
		c-0.014,0.001-0.028,0.004-0.043,0.005c-0.62,0.072-1.231-0.284-1.458-0.893L21.748,44.254z M30.614,61.16
		c-0.421,0.55-1.03,0.901-1.715,0.992c-0.007,0.001-0.039,0.006-0.045,0.006c-1.393,0.161-2.678-0.839-2.863-2.23
		c-0.188-1.415,0.811-2.72,2.226-2.908c0.007-0.001,0.038-0.006,0.045-0.006c1.394-0.16,2.678,0.84,2.864,2.231
		C31.216,59.93,31.035,60.61,30.614,61.16z M62.312,62.563c-4.005,4.242-10.406,4.171-15.071,3.363
		c-2.177-0.376-3.661-0.869-3.723-0.89c-3.63-1.134-6.134-3.099-7.419-5.832c-2.031-4.319-0.192-8.912-0.111-9.104
		c3.468-7.758,12.747-6.952,13.817-6.832c3.527-0.011,6.188-1.004,7.91-2.954c2.875-3.254,2.296-8.207,2.288-8.256
		c-0.079-0.638,0.361-1.226,0.996-1.325c0.636-0.102,1.235,0.319,1.354,0.952l2.243,11.756
		C66.663,52.333,65.895,58.768,62.312,62.563z"/>
</g>
</svg>
