<?xml version="1.0" encoding="utf-8"?>
<!-- Generator: Adobe Illustrator 16.0.0, SVG Export Plug-In . SVG Version: 6.00 Build 0)  -->
<!DOCTYPE svg PUBLIC "-//W3C//DTD SVG 1.1//EN" "http://www.w3.org/Graphics/SVG/1.1/DTD/svg11.dtd">
<svg version="1.1" id="Layer_1" xmlns="http://www.w3.org/2000/svg" xmlns:xlink="http://www.w3.org/1999/xlink" x="0px" y="0px"
	 width="85px" height="85px" viewBox="0 0 85 85" enable-background="new 0 0 85 85" xml:space="preserve">
<g>
	<polygon fill="#11A95A" points="34.031,66.279 34.031,65.324 34.031,65.324 	"/>
	<path fill="#11A95A" d="M47.132,42.87c-0.005-0.02-0.014-0.045-0.029-0.081c-0.764-1.731-3.703-3.147-4.803-3.56
		c-0.052-0.014-0.363-0.096-0.812-0.096c-0.631,0-1.236,0.154-1.798,0.46c-0.302,0.21-3.208,2.367-3.091,7.45l0,0.039l-0.001,0.038
		c-0.009,0.143-0.232,3.523-2.775,5.758l-0.133,0.098c-0.026,0.016-2.638,1.631-4.754,4.232L28.9,57.252
		c-0.56,0.616-1.976,2.537-1.788,3.997c0.071,0.55,0.363,0.979,0.918,1.35l3.45,1.832c0.71,0.326,1.587,0.667,2.134,0.815
		c0.001-0.207-0.021-0.48-0.087-0.782c-0.146-0.425-0.771-2.49,0.201-4.406c0.683-1.344,1.957-2.278,3.787-2.775l0.111-0.023
		c0.107-0.017,2.77-0.473,3.979-3.328c-0.001,0,0.386-1.119,0.023-4.221c-0.083-0.466-0.458-3.308,2.41-5.647
		c0.11-0.096,0.869-0.685,2.924-1.1C47.018,42.943,47.09,42.903,47.132,42.87z M42.933,41.476c-1.993,0.373-2.439,2.14-2.439,2.14
		c-0.554,2.047-0.59,3.927-0.59,3.927c0.007,0.99-0.33,2.335-0.33,2.335c-1.05,4.323-3.033,5.395-3.033,5.395
		c-3.588,2.276-4.549,6.419-4.549,6.419c0.098,1.197-1.02,1.07-1.02,1.07c-1.054-0.142-0.896-1.675-0.896-1.675
		c1.109-4.291,6.247-7.236,6.247-7.236c2.291-2.357,2.383-7.928,2.383-7.928c0.201-5.878,3.888-5.491,3.888-5.491
		C43.674,40.475,42.933,41.476,42.933,41.476z"/>
	<path fill="#11A95A" d="M42.644,3.85c-20.987,0-38,17.013-38,38s17.013,38,38,38s38-17.013,38-38S63.631,3.85,42.644,3.85z
		 M19.09,45.128l14.058-20.896c0,0,1.956-2.972,5.826-1.14c0,0,0.525,0.309,1.246,0.845c0.31-0.119,0.734-0.54,1.287-1.646
		c0-0.169-2.618-2.449-0.676-3.968c0,0,1.097-4.053,3.546-1.857c0,0,0,1.52,1.436,0.844c0,0,1.688-2.617,3.631,0.085
		c0,0,1.772,2.533-1.183,3.208c0,0-0.252,1.435,0.845,1.266c0,0,1.097-0.676,1.351,1.52c0,0,0,2.28-3.208,2.195
		c0,0-2.448,0.591-3.209-1.266c0,0-1.266-0.591-1.857,1.266c0,0.022,0.01,0.051,0.029,0.086c1.386,1.437,2.565,3.326,1.956,5.275
		c0,0-1.773,2.28-4.306,4.053c0,0-20.137,13.172-21.023,13.045C18.836,48.041,17.316,47.788,19.09,45.128z M43.901,50.021
		l0.014,0.085c0.429,3.63-0.058,4.993-0.16,5.229c-1.535,3.623-4.856,4.36-5.389,4.457c-1.264,0.351-2.119,0.951-2.542,1.785
		c-0.676,1.331-0.1,2.915-0.095,2.931l0.039,0.126c0.303,1.298,0.233,2.918-0.963,3.211c-0.119,0.029-0.244,0.044-0.383,0.044
		c-0.962,0-2.826-0.827-3.375-1.081l-0.047-0.023l-3.587-1.908c-1.039-0.676-1.663-1.621-1.804-2.734
		c-0.323-2.539,1.909-5.121,2.254-5.503c2.143-2.628,4.667-4.286,5.147-4.59c1.769-1.601,2.043-4.051,2.071-4.355
		c-0.125-6.329,3.816-8.955,3.984-9.064l0.055-0.033c0.847-0.47,1.801-0.719,2.759-0.719c0.808,0,1.36,0.175,1.421,0.195
		l0.029,0.011c0.476,0.175,4.68,1.795,5.912,4.589c0.325,0.737,0.192,1.31,0.022,1.664c-0.391,0.816-1.26,1.084-1.431,1.13
		l-0.06,0.014c-1.503,0.299-2.072,0.673-2.133,0.716C43.517,47.943,43.884,49.937,43.901,50.021z M66.331,51.044
		c-1.876,7.2-6.265,8.719-9.614,8.719c0,0-0.001,0-0.002,0c-3.147-0.001-5.768-1.346-5.877-1.403c-2.68-1.445-4.1-3.17-4.232-5.132
		c-0.208-3.057,2.873-5.342,3.005-5.438c3.734-2.922,3.241-5.54,3.219-5.65l-0.02-0.128c-0.607-7.214,4.216-7.898,4.265-7.905
		c0.267-0.036,0.55-0.055,0.832-0.055c4.158,0,8.415,4.201,9.109,8.992C67.558,46.792,66.382,50.871,66.331,51.044z"/>
	<path fill="#11A95A" d="M57.515,35.309c-0.197,0-0.394,0.013-0.586,0.039c-0.122,0.02-3.038,0.53-2.613,5.801
		c0.11,0.617,0.484,4.046-3.946,7.511c-0.047,0.035-2.391,1.788-2.25,3.791c0.089,1.262,1.172,2.463,3.221,3.568
		c0.009,0.004,2.317,1.18,4.983,1.18h0.001c3.894,0,6.509-2.462,7.774-7.318c0.019-0.065,1.116-3.887,0.635-7.216
		C64.175,38.814,60.734,35.309,57.515,35.309z M58.711,54.007c-2.284,0.917-4.88-0.19-5.798-2.476
		c-0.917-2.284,0.191-4.881,2.476-5.798c2.284-0.918,4.881,0.19,5.798,2.476S60.995,53.089,58.711,54.007z"/>
	<path fill="#FFFFFF" d="M45.243,45.547c0-0.001,0.003-0.002,0.006-0.005c0.007-0.006,0.013-0.012,0.021-0.018L45.243,45.547z"/>
</g>
</svg>
