<?xml version="1.0" encoding="UTF-8"?>
<svg id="_레이어_1" data-name="레이어 1" xmlns="http://www.w3.org/2000/svg" viewBox="0 0 466.68 90.16">
  <defs>
    <style>
      .cls-1 {
        fill: #006930;
      }

      .cls-2 {
        fill: #c01733;
      }
    </style>
  </defs>
  <g>
    <path class="cls-1" d="M49.07,32.44H27.33v-5.57h7.01v-2.97h8.06v2.97h6.67v5.57Zm-10.65,14.06c-5.61,0-9.93-2.3-9.93-6.57s4.32-6.57,9.93-6.57,9.93,2.3,9.93,6.57-4.32,6.57-9.93,6.57Zm31.09,13.77v5.28H30.88v-11.13l30.32,.05v-1.49H30.79v-5.23h38.29v10.99h-30.32v1.54h30.76Zm-31.09-18.81c1.68,0,3.02-.58,3.02-1.54,0-1.01-1.34-1.54-3.02-1.54s-3.02,.53-3.02,1.54,1.34,1.54,3.02,1.54Zm13.39-8.25v-8.44h7.25v21.11h-7.25v-6.05h-2.74v-6.62h2.74Zm17.27,13.1h-7.34V24.57h7.34v21.74Z"/>
    <path class="cls-1" d="M82.5,25.53h23.94v12.28c0,16.41-9.98,25.77-23.94,25.81v-7.58c6.86-.05,12.09-2.93,14.49-9.12h-14.49v-7.34h15.88v-6.62h-15.88v-7.44Zm38-.96v40.98h-8.11V24.57h8.11Z"/>
    <path class="cls-1" d="M175,57.34h-16.55v9.17h-8.35v-9.17h-16.55v-7.44h41.46v7.44Zm-1.97-10.65h-37.52v-7.29h6.19v-7.01h-5.76v-7.34h36.66v7.34h-5.76v7.01h6.19v7.29Zm-23.17-7.29h8.83v-7.01h-8.83v7.01Z"/>
    <path class="cls-1" d="M187.76,25.53h23.94v12.28c0,16.41-9.98,25.77-23.94,25.81v-7.58c6.86-.05,12.09-2.93,14.49-9.12h-14.49v-7.34h15.88v-6.62h-15.88v-7.44Zm38-.96v40.98h-8.11V24.57h8.11Z"/>
  </g>
  <g>
    <path class="cls-2" d="M255.62,19.62c.91,.84,.84,2.24,.7,3.71-.07,.56-.07,1.05-.07,1.47,0,.49-.14,1.19-.28,1.75-.14,.77-.35,1.61-.35,2.66l-.56,.42c-.35,.28-.63,.42-.7,.98,.21-.21,.49-.49,1.05-.49,.49-.28,1.61-.77,2.03-1.05v-.28s1.61,0,2.17-.56h2.1l-.63,.56h.56l1.61,2.59c-.14,1.4-1.05,2.8-1.96,3.92-.77,1.05-1.47,2.1-2.1,3.71l-2.52,4.41c-.14,0,.21,.35,.21,.35v.28h.21c1.12,.56,.7,1.26,.42,1.96-.14,.42-.28,.91,.35,1.19l-.14,.42c.84,.07,.63,1.05,.35,1.82-.07,.14-.14,.28,.07,.28,0,4.69,0,9.38-.63,13.72-2.31,1.12-3.22-.49-3.22-.49-.7-1.4-1.26-3.92-.7-5.25v-10.22c-.35,.21-.7,.35-1.12,.42-.07,.7-.28,1.96-1.33,2.45v.91l-1.33,.07s-.14,.21-.21,.35c-.07,.07-.07,.21-.07,.28,0,.14,0,.42-1.68,1.54-.49,.14-.91,.14-.91,.14,0,0-.21-.21-1.54-.98,.56-.7,1.26-1.96,1.26-2.66,.84-1.4,1.96-2.87,2.87-4.2,2.24-3.22,4.41-6.51,5.74-10.22-.7,.21-1.33,.63-1.96,.98-1.47,.84-3.08,1.68-4.69,1.68-1.19,0-2.17-.35-3.22-1.4-1.4-2.1,0-1.96,1.05-2.73,.49-.28,.7-.49,1.05-.49,.42-.49,1.26-.84,1.75-.98,.14-.07,.42-.21,.56-.56l-.14-.14c-.07-.49,.21-.77,.49-1.19,.14-.14,.28-.42,.28-.98,0-.21,.07-.7,.28-1.19,.21-.63,.42-1.33,.42-2.03l.07-.21h-.21c.28-1.33,.7-2.45,1.19-3.64,.56-1.26,1.19-2.66,1.19-4.27,0-.56-.14-1.26-.35-1.96l1.19-.21c.21,.42,.42,.77,.7,1.12,.49,.77,1.05,1.33,.7,2.24Zm15.26,37.45c0,2.03,0,3.92,.56,5.81-.35,.42-.63,.77-.56,.77l.28,.56c-.28,.14-.28,1.33-.28,2.45,0,.63-.56,1.33-1.26,2.17-.49,.56-1.19,1.54-1.47,2.31-.7,.77-1.68,.56-2.52,.35-.28-.07-.35-.14-.98-.14-1.4-1.4-2.17-3.85-2.17-6.02,0-1.12,.21-2.17,.63-3.15-.56-1.12-.28-2.17,.14-2.8,.21-.49,.49-.91,.49-1.75l2.1-2.03c.35-.63,.98-1.19,1.54-1.61l.63-.7c1.54,.84,1.68,1.47,1.82,2.1,.14,.7,.35,1.19,.63,1.4l.42,.28Zm-3.43,.91c-.35,.07-.07,.07-.42,.07l-1.26,6.58,.35,1.4c.07-.07,.21-.21,.28-.21,.63-1.47,1.05-3.36,1.33-5.04,.14-.77,.21-1.68,.42-2.52-.07-.35-.35-.35-.7-.28Zm9.59-29.89c-.14,.14,0,.21,.07,.28,.28,.21,.7,.49,.7,1.12h-.56c.14,.7,.21,1.4,.21,2.1,0,1.75-.42,3.64-.77,5.53,.07-.07,.14-.07,.28-.07l2.45-.7-.35,.07,.7-.7h2.1l.35,.42c.35,0,.7-.35,1.19-.56,.35-.14,.98-.42,1.26-.42h.63l1.33,.77c.07-.07,.91-1.05,1.05-.7,0-.07,.07-.14,.07-.21h1.33c0,.56,0,1.12,.84,1.68l-3.43,2.38v-.56c-.21,.14-.49,.21-.63,.35-.42,.35-.91,.63-1.33,.77v-.07c-.07,.07-.14,.07-.63,.56-.91,.35-2.17,.77-3.29,1.12h.07l-3.78,1.61-.35,1.61c-.7,.35-.63,1.12-.56,1.82v-.07c.07,.56,.07,1.33-.14,1.96-.07,1.33-1.26,1.33-2.17,1.12h-.63v-.07h-.42c-1.47-.07-1.19-.77-1.19-1.61,.07-.49,.14-1.05-.07-1.33v-7.7c.14-1.33,.42-2.66,.7-3.99,.63-3.08,1.19-6.23,1.19-9.59h2.03c0,.56,.28,.84,.56,1.12,.49,.49,.98,.98,1.26,1.61l-.07,.35Z"/>
    <path class="cls-2" d="M298.04,18.16c.56-.35,.91,0,1.4,.63h-.07c.14,.14,.21,.35,.42,.49l-.21-.07c1.54,.77,2.31,2.87,2.31,4.27-.56,.56,.07,1.19,.7,1.75,0,3.29,0,5.18-1.4,7.91l.07-.07c-.35,1.89-2.03,3.5-3.22,4.62-.21,.21-.56,.49-.7,.7-1.47,.7-3.64,1.33-5.18,.7-.98,0-.91-.14-.7-.56h-.28c-.98-1.33-1.33-2.52-1.33-3.57,0-1.68,.56-3.15,.98-4.69v.07c.28-.91,.56-1.61,.77-2.38,1.33-2.1,2.73-4.13,5.67-5.11,.21,.77,.49,1.19,.63,1.33l.56,.7c-.28-1.47-.84-2.8-1.75-4.06v-.07c-.56,.14-1.12,.21-1.26-.21h-.7v-1.33c.35,0,.63,.07,.84,.07,.28-.42,.7-.56,1.12-.7l1.33-.42Zm.63,9.87c0,.07-.07,.14-.07,.21-1.47,0-1.96-.56-2.17-1.19l-.63-.91c-.07,.14-.14,.28-.14,.35-.77,1.89-1.75,4.2-1.75,6.37,0,1.33,.28,2.59,1.26,3.57,1.12-.28,1.96-1.75,2.59-3.22,.28-.63,.49-1.05,.84-1.47,0-.49,.07-1.47,.07-2.03v-1.68Zm20.58,15.54h-.7v.63h1.12c-.7,.7-.63,1.05-.56,1.4,.07,.49,.07,1.12-.42,1.54l.98,.98h-.7c.21,.42,.14,.77,.14,1.19-.07,.28-.14,.63,.21,.98-.77,.42-.56,.7-.28,1.12,.21,.42,.42,.84,.14,1.61l.07-.14v.98h-.42c0,.07,.07,.07,.07,.07,.14,.28,.28,.49,.42,.49l-.07,.35v.42l1.33-.77v-.07h.07q.07,0,.14-.07l.07,.07h1.05c0-.42-.07-.84-.49-.42l-.21,.28v-.98c1.4,0,1.61-.14,1.89-.21,.42-.07,.7-.14,1.33,0-.14-.28-.14-.63,.49-1.26,.91,.49,1.4,.42,1.75,.35,.56-.07,1.12-.21,1.54-.07,.56-.56,.98-.21,1.4,.35,.07,.07,.07,.21,.07,.21h.77l.21,.56c-1.19,.42-1.89,.91-2.66,1.33-.84,.49-1.68,1.05-2.73,1.4l.07-.07c-1.33,.7-2.66,1.33-3.92,2.03h.14l-1.12,1.12-1.26,1.05-.77,2.17c-.14,0-.14,.07-.14,.07,0,.35,.07,.56-.28,.98,0,.35,.14,.84,.28,1.12,.28,.98,.7,2.03,.21,3.36-.21,.28-.21,.42-.21,.49,0,.14,.07,.35-.28,.77v.63s-.28,.28-.56,.21l-.07,.28,.63,.63-.49,1.12c-.28,.7-.28,.98-1.05,1.82h.21s0,1.26-1.89,1.33c-.14,.14-.35,.35-.7,.49-.07,.21-.77,1.4-2.66,3.01v-.21c-.35,.21-.77,.21-1.4-.14h-1.33l-1.68,1.82v-.7l-.56-.35v.56c-1.47,0-2.03-.63-2.03-.63h-.56v.28c-1.4-1.19-2.59-3.71-2.66-4.48-.56-1.12-.14-2.31,.42-3.5,.28-1.05,.56-1.54,.98-2.17,.7-.98,1.4-2.03,2.73-2.94h-.07c1.61-1.75,1.61-1.89,2.45-2.03,.14-.21,.49-.56,.77-.77h-.07c.21-.21,.49-.49,.49-.77,0-1.33,1.33-1.54,2.24-1.61l.49-.42c.28-.21,.49-.42,.49-1.47h.98c.98-.77,1.12-2.59,1.26-4.55,.07-.91,.21-2.1,.35-2.87v-3.08c-.35-1.19-.07-2.38,.14-3.57,.21-.77,.42-1.61,.42-2.31,0-.35,.35-.56,.91-.91h-.07l.77-.7c1.33,0,1.47,.28,1.68,.7h-.07c.14,.21,.35,.49,.77,.91v.98Zm-13.58,2.52c.28,1.05,.35,1.96,.35,2.87,0,.84-.07,1.75-.14,2.59-.07,.7-.14,1.4-.14,2.31h-.35c0,.14,.21,.21,0,.21,.35,.35,.07,.91-.14,1.47-.07,.21-.14,.35-.14,.56,0,.14,.07,.35,.14,.56,.14,.63,.28,1.54-.28,2.1,0,0,.14,.63-.49,1.26-.07,1.33-.56,.77-1.47,.07-.21-.14-.56-.42-.7-.42-1.47-.56-1.33-1.19-.98-1.96,.21-.49,.49-.98-.14-1.54,.28-.63,.14-1.33,0-1.96-.14-.63-.28-1.26,.07-2.1,.21-.49,.21-1.19,.21-1.82,0-.56,0-1.12,.35-1.89,0-1.26,0-3.08,.84-4.76l1.19,.14c0,.14-.07,.14-.14,.14,.49,0,.98-.14,.98,.14l.28,.28h-.07c.21,.21,.28,.49,.63,1.75h.14Zm18.48-28.91c-.42,.49-.35,1.54-.28,2.38,.07,.63,.07,1.4-.35,2.24l.28,.28q-.7,.7-.7,1.33v1.33c-.35,.35-.35,.91-.35,1.54,0,.56,.07,1.12-.35,1.61v.63c0,.84,.28,.98-.56,.98,.21,.84,.42,1.89,.63,2.59h-.56s0,.07,.07,.07c.42,.49,.77,1.05-.14,1.19,.14,.63,.07,1.12,0,1.61-.14,.63-.21,1.19-.07,1.75,.35,.63,.07,1.4-.28,2.03-.14,.28-.28,1.33-.28,2.73-2.31-3.29-3.29-6.51-3.29-9.17,0-1.75,0-3.71,.42-6.02h-.14c-3.36,1.47-6.93,3.08-10.29,4.48l.21-.07c-.35,.42,.35,1.05,.35,1.05,0,0-4.69,2.8-4.69-.98h.63c.14-2.17,1.68-3.22,3.22-3.22,.21-.63,.84-.77,1.61-.98,.35-.07,.77-.28,1.33-1.26,.63,.35,.7,.28,.7,.21,.35-.42,.7-.77,1.47-.28l.49-.42,.42-.49h.49c.7,0,1.05-.14,1.33-.35,.21-.07,.49-.21,.56-.21,.28-.77,1.89-.7,1.89-.7l.98-.7c.21-.84,.28-1.89,.35-2.94,.14-2.03,.28-3.92,2.17-5.32,1.61,0,2.03,.84,2.38,1.68,.14,.42,.28,.84,.35,.91v.49Zm-19.32,13.58h.21v-.21l-.21,.21Zm5.53,43.05c1.47-2.03,2.52-4.97,2.52-7.7l-.49,.63-5.53,6.23,.14-.07c-.21,.63-.28,1.05-.49,1.61,.63,.14,1.12,.21,1.54,.21,.77,0,1.61-.35,2.31-.91Z"/>
    <path class="cls-2" d="M346.55,24.67c.7,1.54,0,3.15-.56,4.69-.56,1.4-1.19,2.87-.84,4.69-.84,.49-.98,1.47-1.05,2.38-.07,.7-.14,1.33-.63,2.31h-.49c.28,2.31-.49,3.99-1.19,5.67-.56,1.33-1.05,2.66-1.05,4.2,0,0-.56,1.47-1.26,1.47l.21,1.05c0,.21,0,.63-.35,1.12,0,.35-.21,.77-.42,1.12-.21,.28-.35,.7-.35,1.33h-2.73c0-1.12-.21-1.47-.35-1.89-.35-1.05-.91-2.31-.35-3.64,.21-.42,.14-1.19,.07-1.75-.14-.77-.07-1.75,.63-2.59,.07-2.59,.91-5.74,1.61-8.12,.49-1.54,.91-3.01,1.19-4.27,.77-.63,1.54-2.03,1.54-2.8,0-.28,.28-.77,.63-1.26h-.07c.35-.7,.84-1.47,.7-1.89l-6.09,2.38c.42,.21,.35,.42,.7,.7,.21,.28,.49,.49,.77,.49l.28,.63-2.8,1.26v-.49c-.28,.07-.49,.07-.77,0v.84c-1.54-1.05-1.75-.98-1.96-.91-.21,.07-.63,.14-.91,.14-1.19,0-1.33-2.17-1.4-3.64v-.35l.14-.14c.84-.56,1.54-.63,1.54-.63,.49-.49,1.54-1.05,2.94-1.12h.35c0-.21-.14-.14-.28-.07l.63-.56c.7,0,1.05,.07,1.26,.14,0-.14,.35-.91,1.96-.91v.14c.14-.07,.42-.14,.84-.14,.28,0,.28-.28,.35-.56,.07-.28-.21-.63,1.47-.63,0,1.4,.42,.07,.42,.07,0-.14,.14-.91,2.8-2.24,0,1.26,.35,1.19,.7,1.26,1.26,.21,2.59,.56,2.17,2.52Zm9.87,26.74c.21-.28,.42-.35,1.12-.35,.77,0,.84,.35,1.12,.7,.21,.35,.56,.77,.98,.77,1.33,0,.91,.49,.77,.98-.07,.21,0,.49,.7,.49,0,1.26,.21,1.47,.35,2.03l-.07-.07c.14,.35,.21,.56,.28,.91l.84,.35c-.21,.63-.35,1.33-.35,1.96,0,1.54,.63,3.01,1.26,4.27l-.42,.07c.42,.28,.77,.42,.21,1.05-.56,1.33-.7,3.01-.7,4.41l-1.4,.7c-.07,.77-.98,1.54-2.59,2.38-.84,.91-2.66,.84-3.71,0h-.56c-2.31-2.24-4.62-7.56-3.99-11.27-.35-.49-.14-.77,.14-1.19,.35-.42,.56-1.05,.63-1.61-.42-.56-.21-1.05,.07-1.61,.21-.42,.14-.63,.35-1.33,.35-1.33,.84-1.26,1.05-2.03s.28-1.61,2.17-2.94l1.75,1.33Zm2.52,8.05c-.28-.77-.28-1.4-.35-2.03-.21-1.54-.28-3.15-1.33-3.43l-.63,1.19,.07-.07c-1.4,4.27-2.03,8.26-2.1,12.39l1.05-1.05h-.07l.77-.84c.21,0,.42,0,.56,.07-.07-.21-.07-.35-.07-.49,.98-1.54,1.33-2.73,1.61-4.13,.14-.49,.28-1.05,.49-1.61Zm20.79-30.03l-.49,.7c-.07,0-.14,0-.42,.28l-.77,.7c-.77,.77-1.4,.49-2.03,.28v.56h-1.12c-1.68,.63-3.43,1.54-5.18,2.24-.14,.35-.49,.63-.91,.98l-1.82,.7c-.63,.35-1.82,.91-1.82,.28-.42,.42-.63,1.05-.91,1.68,0,0,0,.07-.07,.21h.84c-.98,1.12-.98,1.96-.98,2.87h-1.05c.07,.14,.28,.35,.42,.49,.42,.42,.84,.91,.63,1.33v.77c-1.12,1.12-2.24,1.19-4.27,.07,0,0-.84-2.31-.84-3.01v-4.2c-.7-.49-.63-1.68-.63-2.45,1.61-.84,1.61-2.1,1.54-3.5,0-.91-.07-1.89,.56-2.87-.49-1.19-.28-1.82-.14-2.38,.07-.21,.14-.42,.14-.63,.35-.35,.21-.56,.14-.77l.07,.07c-.21-.42-.28-.77,.42-.91-.42-1.12-.28-2.17-.07-3.08,.28-.84,.63-1.12,1.47,2.94,0,0,.07-6.09,.14-6.09,.7,.07,1.61,.35,2.1,1.47v.28c0,.77,0,1.68,.77,2.45-.42,1.68-.42,2.87-.42,4.06,0,1.26,0,2.45-.28,3.71,.42,.14,.28,.35,.28,.63h.35v.84c.35,.07,.7-.07,1.12-.28l1.96-.7,.7-.77s.35,0,.63,.07c1.19-.84,2.45-1.05,3.36-1.12,.42-.07,.7-.07,1.05-.42h2.24l.14,.07c.42-.28,.84-.49,1.26-.21,1.05-1.68,3.29-.28,4.13,.49l-2.24,2.17Z"/>
    <path class="cls-2" d="M390.72,43.78c0,.21-.21,1.54-1.96,3.5v-.56c-.21,.21-.35,.49-.49,.77v-.07c-.14,.28-.21,.56-.42,.77,.49,.14-.35,.91-.49,1.05-.42,.35-.77,.77-1.75,.91l-.7,1.4c-1.96-2.03-1.26-2.87-.7-3.78,.21-.35,.42-.7,.49-.91,.07-1.4,1.4-4.06,2.87-5.46,.07-.07,.21-.49,.35-.91,.28-.84,.91-1.89,2.1-2.87-.21-.77,.14-1.26,.56-1.68,.21-.21,.42-.35,.14-.91l1.05-.35c-.35-.35-.35-.49-.35-.49,.28-.28,.35-.63,.42-.98,.07-.56,.14-1.12,.98-1.26,.35-1.05,1.05-2.17,1.89-3.36,.7-.98,1.47-2.17,1.82-3.5-.56,.14-1.68,.56-2.31,.77-.56,.14-1.12,.35-1.68,.63l-1.26,.35c-1.68,.49-3.57,1.12-4.13,1.68v-.07c-.84,.84-4.55,1.68-4.55-.21,0-1.68,.91-1.68,2.03-1.54h-.07c.42,0,.28,.28,.84,0,.14-.35,.77-.7,1.54-.98,.49-.14,.98-.28,1.54-.56,.28,0,.56-.14,.84-.28,.42-.21,1.05-.35,1.89-.35,.28-.21,.7-.42,1.05-.63h-.07c.98-.56,2.1-1.26,3.64-1.4,.56-.63,1.26-.77,2.03-.98,.7-.21,1.4-.49,1.96-2.03,2.45,.98,1.96,2.03,1.33,2.8-.14,.21-.28,.35-.28,.56v2.94c-.98,0-1.26,.7-1.47,1.4l-.56,1.12c-.07,1.96-1.33,4.62-2.73,6.02v.63l-1.96,2.73v.7c-.35,.35,0,.63,.42,.84,.49,.42,.98,.77,.98,1.05,0,1.68,.21,3.36,.42,4.97,.28,2.24,.42,4.34,.14,5.95v.28c.42,.7,.35,.98,.28,1.33-.14,.7-.28,1.4-3.43,1.4l.21-.21c-.28-.21-.35-.7-.35-1.26-.07-.56-.14-1.33-.63-1.54-.35-.7-.28-1.47-.21-2.24,.14-1.26,.28-2.73-.56-3.85,.35-.77,.21-1.26,.07-1.61q-.07-.07-.14-.07c-.07-.07-.14,0-.14,.07l-.49,.28Zm24.99,6.02v.35h.42c.7,.84,.84,2.45,.28,3.78-.35,.28-.35,.63-.35,1.05,0,2.66-.98,3.43-1.68,5.25v1.12l-.07,.63c.35-.07,.84-.28,1.12-.35,.35,.35,.56,.14,.77-.14,.49-.49,1.05-.98,1.61-1.05l2.45,.28,.21-.21,1.47-.49c.21-.14,.42-.21,.91-.42l.35,.35c.14-.21,.56-.28,1.33-.28h.98l.07-.07h-.63s1.54-1.75,2.94-.42l.28-.28h1.12l.14,.7c.14-.07,.21,.07,.28,.21,.07,.21,.28,.77,.28,.77l-2.1,2.1-.49-.56c-.42,.35-.91,.56-1.54,.7,0,.28-.14,.63-.63,1.12-1.12-.42-1.33-.28-1.47-.14-.35,.28-.42,.49-1.19,.49,0,0-.21,.07-.28,.14h.14c-.28,.21-.56,.35-.91,.28-.35,.28-.84,.35-1.4,.35-.21,0-.35,0-.42,.56h-2.03c-.7,.28-1.68,.63-2.45,.98-1.4,.91-2.24,1.19-3.78,1.4l-2.45,.42v-.28l-.7-.49c-2.1,0-.56-.14-1.96-1.89-.56-.63-.91-1.05,.21-2.17,3.71,0,3.92-2.94,4.13-5.74,.14-1.54,.14-2.87,.91-3.99v-.14c-.28,.14-.7,.14-1.4-.28-.63,0-1.05,0-1.33-.07-.14,.49-.63,.84-1.96,.84-.14,0-.14,.35-.21,.56-.14,.42-.21,.77-1.12,.77h-.7c.07,0,.07,1.05,.07,2.17,.14,.21,.28,.42-.35,.56,.28,.42,.14,.84,.14,1.26-.07,.35-.14,.7-.56,1.4,0,.49,.07,.84,.14,1.33,.14,1.4,.28,2.59-.7,3.71,.14,.35,.28,.77,.28,.98,0,.35,0,.63,.35,.98,0,0-1.89,1.12-3.15,1.12-1.12-1.47-1.33-2.59-1.33-3.78,0-.84,.07-1.61,.14-2.31,.14-.77,.28-1.61,.28-2.45l1.33-9.45,3.5,.35c.14-.07,.35-.28,.63-.56,.42-.42,.91-1.05,1.96-.91,1.89-.42,2.03-.49,2.24-.63,.35-.28,.07-.56,1.4-.56,.14,.14,.49-.07,.63-.14,.56-.42,1.33-.91,3.01-.28l.84,1.47Zm3.36-21.91c.28,0,.35,.07,.42,.14,.07,.28,.28,.7,.28,.84v.7c.35,.49-.07,.7-.56,.91h.14c-.07,.07-.21,.07,.56,.42-.77,.49-.63,.7-.49,.91v-.07c.21,.35,.35,.7-.28,1.19l.63,.63c-.35,1.05-.35,1.96-.35,2.73,0,.84,0,1.68-.42,2.8l.07-.07c0,1.33,0,3.5-3.43,5.74,0-3.08,0-6.23-.7-8.89h.28l-.14-.14v-5.11h-.07c-.07,0-.28,.07-.63,.21-.35,.14-.91,.35-1.47,.42-.28,.77-1.75,1.19-3.08,1.26-.07,.07-.35,.28-.42,.28-1.33,.7-2.66,1.61-4.48,1.82v.7h-1.05l-1.26,1.26c-.84,0-.63,.07-.7,.14h.14c-.56,.35-.98,.63-1.89-.42,0-.35,0-.7-.07-.98-.14-1.05-.28-1.96,1.26-2.73h1.12c.42-.56,1.33-1.05,2.24-1.33h-.07c.42-.14,.84-.35,1.19-.7,.56,0,1.05,0,1.05-.28l1.19-.28,.21,.21,.28-.28h.28c.07-.35,.7-.49,1.4-.77,.21-.07,.63-.28,.91-.49l.84-1.05c.35,.21,.35,.07,.35,.07l1.05-.42,.49,.42c2.38-1.61,3.08-4.55,3.08-6.93,.14,.14,.84,.28,.98,.49,1.4,1.96,2.87,4.41,1.68,6.51l-.56,.14Zm-4.76,28.84c0,.63,.49,.07,.49,.07l-.49-.07Z"/>
  </g>
</svg>