<?xml version="1.0" encoding="UTF-8"?>
<svg id="_레이어_2" data-name="레이어 2" xmlns="http://www.w3.org/2000/svg" viewBox="0 0 258.3 253.43">
  <defs>
    <style>
      .cls-1 {
        fill: #fff;
      }

      .cls-2 {
        fill: #0a8546;
      }
    </style>
  </defs>
  <g id="_레이어_1-2" data-name="레이어 1">
    <rect class="cls-2" width="258.3" height="253.43"/>
    <g>
      <circle class="cls-1" cx="129.15" cy="126.72" r="103.52"/>
      <g>
        <path class="cls-2" d="M129.15,221.61c-52.33,0-94.9-42.57-94.9-94.9S76.82,31.82,129.15,31.82s94.9,42.57,94.9,94.9-42.57,94.9-94.9,94.9Zm0-181.59c-47.8,0-86.7,38.89-86.7,86.7s38.89,86.7,86.7,86.7,86.7-38.89,86.7-86.7-38.89-86.7-86.7-86.7Z"/>
        <g>
          <path class="cls-2" d="M172.67,127.13c-.11,.08-.23,.17-.32,.27-.32-.04-.67-.01-1.03-.05-8.62-.98-12.32,3.43-21.43,14.23-.35,.42-.52,.97-.47,1.51v.1c.09,.48,.33,.92,.7,1.24,.87,.72,2.15,.62,2.86-.25,8.14-9.64,9.33-12.4,14.55-10.11-9.94,8.21-11.92,13.66-12.17,14.1-.22,.36-.32,.79-.27,1.22,.1,.72,.46,1.24,.99,1.55,.47,.27,1.02,.35,1.54,.22,.52-.14,.96-.48,1.24-.94,.07-.13,1.8-4.28,12.55-13.79,.63,.31,1.66,1.09,1.85,1.25-2.93,9.29-10.65,15.54-10.78,15.67-.45,.44-.67,1.05-.61,1.67,.07,.51,.26,.9,.57,1.21,.37,.39,.88,.6,1.43,.61,.54,0,1.06-.2,1.44-.58,.47-.46,7.18-6.28,11.98-15.75,.22,0,.55,.31,.68,.57,3.41,6.89-8.47,16.97-8.6,17.07-.54,.43-.83,1.11-.76,1.8,.04,.38,.19,.75,.43,1.05,.7,.89,1.98,1.03,2.85,.32,.61-.48,11.73-9.91,10.38-22.81-.11-1.09-.33-2.17-.66-3.21,1.94-2.18,20.93-24.8,31.99-37.37-1.12-3.69-2.48-6.04-4.04-9.51-10.61,11.85-34.81,37.27-36.9,38.68Z"/>
          <path class="cls-2" d="M157.61,168.15l6.41-3.95s-24.47-11.06-22.69-22.28c0,0,3.48-35.62-6.03-36.11,0,0-3.9-.93-5.26,7.21,0,0-.62,6.27-6.29,4.44,0,0-5.29-2.33-6.73-10.41,0,0-2.91-15.53-16.35-15.88,0,0-9.61,.71-8.47,10.39,0,0,.88,6.48,2.02,9.88,0,0-15.28-20.3-30.33-15.54,0,0-9.6,3.94-10.57,14.72,0,0-.31,10.54,8.95,13.72,0,0,10.91,1.49,12.71,4.75,0,0,1.18,2.94-1.79,4.95,0,0-7.61,4.42-3.71,12.48,0,0,4.71,10.58,16.84,9.47,0,0,7.16-.6,9.47-3.46,0,0,1.77-3.19,4.13,.58,0,0,1.88,3.25-2.67,5.67,.17,.07-7.96,4.26-.82,9.47,0,0,12.55,10.02,20.61-2.17,0,0,6.43-12.53,11.15-11.91,0,0,10.32,1.54,16.53,5.82l12.91,8.16Zm-43.54-50.15c.99-.24,2.14,1.03,2.55,2.82,.41,1.8-.06,3.43-1.06,3.67-1,.23-2.14-1.04-2.55-2.83-.41-1.8,.07-3.44,1.06-3.66Zm-21.08,7.63c-.99,.23-2.13-1.04-2.54-2.83-.41-1.79,.07-3.44,1.06-3.66,1-.23,2.13,1.03,2.55,2.84,.41,1.78-.07,3.43-1.07,3.65Zm26.41,12.66c-.16,.65-.57,1.36-.62,1.43l-.03,.04-.02,.04c-1.76,2.26-6.91,2.66-7.44,2.7-.77,.11-1.65,.17-2.62,.15-2.12-.02-3.92-.32-4.01-.34-6.17-1.17-10.32-8.71-10.5-9.04l-.12-.23,.06-.26c.23-1.09,1.03-1.17,1.27-1.16,.51,0,.95,.32,1.04,.37l.11,.1,.08,.12c.74,1.3,2.6,3.47,2.62,3.5,2.17,2.58,5.33,3.91,9.37,3.95,3.71,.04,6.82-1.06,6.83-1.06,2.62-1.23,.67-6.11,.64-6.17-.1-.28-.42-1.1,.02-1.74,.24-.35,.65-.54,1.16-.53,.25,0,.46,.05,.5,.06l.37,.1,.11,.37c1.74,5.46,1.24,7.42,1.18,7.6Z"/>
          <path class="cls-2" d="M156.14,124.08c.06,.13,.16,.23,.28,.28,.05,.02,.09,.03,.13,.04,.05,0,5.48,.98,8.65-5.17,.09-.17,.07-.37-.02-.54-.1-.16-.28-.26-.47-.26-.23,0-5.49-.02-8.55,5.14-.09,.15-.11,.35-.02,.51Z"/>
          <path class="cls-2" d="M151.93,125.94c.13,.08,.29,.1,.45,.06,.23-.06,.41-.25,.45-.49,.13-.85,.42-2.92,1.07-3.91,.05-.07,5.56-7.33-.42-16.71-.12-.19-.32-.29-.53-.28-.22,.02-.41,.14-.51,.33-.02,.03-1.51,2.51-2.46,4.48-.04,.09-4.33,8.39,1.78,16.36,.05,.06,.11,.12,.18,.15Z"/>
        </g>
      </g>
    </g>
  </g>
</svg>