<?xml version="1.0" encoding="UTF-8"?>
<svg id="_레이어_1" data-name="레이어 1" xmlns="http://www.w3.org/2000/svg" viewBox="0 0 118.41 122.67">
  <defs>
    <style>
      .cls-1 {
        fill: #006930;
      }
    </style>
  </defs>
  <g>
    <path class="cls-1" d="M101.3,49.31c-5.54,6.25-12.07,14.65-13.05,15.74,.16,.51,.27,1.05,.33,1.59,.67,6.38-4.83,11.05-5.14,11.29-.43,.35-1.06,.28-1.41-.16-.12-.15-.19-.33-.21-.52-.03-.34,.11-.68,.37-.89,.06-.05,5.94-5.04,4.25-8.45-.07-.13-.23-.28-.34-.28-2.37,4.69-5.69,7.57-5.93,7.79-.19,.19-.45,.29-.71,.29-.27,0-.52-.11-.71-.3-.15-.15-.24-.35-.28-.6-.03-.3,.08-.61,.3-.82,.07-.06,3.88-3.16,5.33-7.76-.1-.08-.61-.47-.92-.62-5.32,4.71-6.17,6.76-6.21,6.82-.14,.23-.35,.4-.61,.47-.26,.07-.53,.03-.76-.11-.26-.15-.44-.41-.49-.77-.02-.21,.02-.42,.13-.6,.12-.22,1.11-2.92,6.02-6.98-2.58-1.13-3.17,.23-7.2,5-.36,.43-.99,.48-1.42,.12-.18-.16-.3-.38-.34-.62v-.05c-.03-.27,.05-.54,.23-.75,4.51-5.34,6.33-7.53,10.6-7.04,.18,.02,.35,0,.51,.02,.05-.05,.1-.09,.16-.14,1.05-.71,10.27-11.19,15.48-17-7.6-16.75-25.05-27.81-44.46-26.36-24.85,1.86-43.49,23.51-41.63,48.35,1.86,24.85,23.51,43.49,48.35,41.63,24.85-1.86,43.49-23.51,41.63-48.35-.26-3.46-.91-6.79-1.89-9.96Zm-21.42,7.38c.09,0,.19,.05,.23,.13,.05,.08,.05,.18,0,.27-1.57,3.04-4.25,2.56-4.28,2.56-.02,0-.04,0-.06-.02-.06-.03-.11-.08-.14-.14-.04-.08-.03-.18,.01-.25,1.51-2.56,4.11-2.54,4.23-2.54Zm-7.29-4.46c.47-.98,1.21-2.2,1.22-2.22,.05-.1,.14-.16,.25-.17,.1,0,.21,.05,.26,.14,2.96,4.64,.23,8.23,.21,8.27-.32,.49-.47,1.52-.53,1.93-.02,.12-.11,.21-.22,.24-.08,.02-.16,0-.22-.03-.03-.02-.06-.05-.09-.08-3.02-3.94-.9-8.05-.88-8.1Zm3.78,29.06l-6.39-4.04c-3.07-2.12-8.18-2.88-8.18-2.88-2.34-.31-5.52,5.89-5.52,5.89-3.99,6.03-10.2,1.08-10.2,1.08-3.54-2.58,.49-4.65,.41-4.69,2.25-1.19,1.32-2.8,1.32-2.8-1.16-1.86-2.04-.29-2.04-.29-1.14,1.42-4.69,1.71-4.69,1.71-6,.55-8.33-4.69-8.33-4.69-1.93-3.99,1.84-6.18,1.84-6.18,1.47-.99,.89-2.45,.89-2.45-.89-1.61-6.29-2.35-6.29-2.35-4.58-1.58-4.43-6.79-4.43-6.79,.48-5.33,5.23-7.28,5.23-7.28,7.45-2.36,15.01,7.69,15.01,7.69-.56-1.68-1-4.89-1-4.89-.56-4.79,4.19-5.14,4.19-5.14,6.65,.17,8.09,7.86,8.09,7.86,.71,4,3.33,5.15,3.33,5.15,2.81,.91,3.11-2.2,3.11-2.2,.67-4.03,2.6-3.57,2.6-3.57,4.71,.25,2.98,17.87,2.98,17.87-.88,5.55,11.23,11.02,11.23,11.02l-3.17,1.96Z"/>
    <g>
      <path class="cls-1" d="M54.29,58.29c.2,.89,.77,1.51,1.26,1.4,.5-.12,.73-.93,.53-1.82-.2-.89-.77-1.52-1.26-1.4-.49,.11-.73,.92-.53,1.81Z"/>
      <path class="cls-1" d="M43.13,58.85c.2,.89,.77,1.51,1.26,1.4,.49-.11,.73-.92,.53-1.81-.21-.89-.77-1.52-1.26-1.4-.49,.11-.73,.92-.52,1.81Z"/>
      <path class="cls-1" d="M52.15,68.67c.48,0,.92-.02,1.3-.08,.26-.02,2.81-.22,3.68-1.33v-.02s.02-.02,.02-.02c.03-.04,.23-.39,.31-.71,.03-.09,.28-1.06-.58-3.76l-.06-.18-.18-.05s-.12-.03-.25-.03c-.25,0-.45,.09-.57,.26-.22,.32-.06,.72,0,.86,.01,.03,.98,2.45-.32,3.06h0s-1.55,.54-3.38,.52c-2-.02-3.56-.68-4.63-1.96,0-.01-.93-1.09-1.3-1.73l-.04-.06-.05-.05s-.26-.18-.51-.18c-.12,0-.52,.04-.63,.57l-.03,.13,.06,.11c.09,.16,2.14,3.89,5.19,4.47,.04,0,.93,.16,1.98,.17Z"/>
    </g>
  </g>
  <path class="cls-1" d="M58.19,12.49c-27.65,0-50.14,22.49-50.14,50.14s22.49,50.14,50.14,50.14,50.14-22.49,50.14-50.14S85.84,12.49,58.19,12.49Zm.38,97.95c-26.32,0-47.67-21.34-47.67-47.67S32.25,15.11,58.57,15.11s47.67,21.34,47.67,47.67-21.34,47.67-47.67,47.67Z"/>
</svg>