<?xml version="1.0" encoding="UTF-8"?>
<svg id="_레이어_2" data-name="레이어 2" xmlns="http://www.w3.org/2000/svg" viewBox="0 0 207.04 207.04">
  <defs>
    <style>
      .cls-1 {
        fill: #fff;
      }
    </style>
  </defs>
  <g id="_레이어_1-2" data-name="레이어 1">
    <g>
      <path class="cls-1" d="M103.52,0C46.35,0,0,46.35,0,103.52s46.35,103.52,103.52,103.52,103.52-46.35,103.52-103.52S160.7,0,103.52,0Zm0,198.42c-52.33,0-94.9-42.57-94.9-94.9S51.2,8.63,103.52,8.63s94.9,42.57,94.9,94.9-42.57,94.9-94.9,94.9Z"/>
      <g>
        <g>
          <path class="cls-1" d="M68.42,98.78c-.42-1.81-1.55-3.07-2.55-2.84-.99,.22-1.47,1.87-1.06,3.66,.41,1.79,1.55,3.06,2.54,2.83,1-.23,1.47-1.87,1.07-3.65Z"/>
          <path class="cls-1" d="M89.93,101.29c1-.24,1.47-1.87,1.06-3.67-.41-1.79-1.56-3.06-2.55-2.82-.99,.23-1.47,1.87-1.06,3.66,.41,1.79,1.55,3.06,2.55,2.83Z"/>
          <path class="cls-1" d="M92.48,107.12l-.37-.1s-.24-.07-.5-.07c-.51,0-.91,.18-1.16,.53-.44,.64-.12,1.46-.02,1.74,.02,.06,1.98,4.95-.64,6.17-.01,0-3.13,1.1-6.83,1.06-4.04-.04-7.2-1.37-9.37-3.95-.02-.03-1.88-2.2-2.62-3.5l-.08-.12-.11-.1c-.09-.05-.53-.37-1.04-.37-.25,0-1.05,.07-1.27,1.16l-.06,.26,.12,.23c.18,.32,4.33,7.87,10.5,9.04,.09,.02,1.89,.32,4.01,.34,.97,.01,1.85-.04,2.62-.15,.53-.03,5.68-.44,7.44-2.7l.02-.04,.03-.04c.05-.08,.46-.79,.62-1.43,.05-.17,.56-2.14-1.18-7.6l-.11-.37Z"/>
        </g>
        <path class="cls-1" d="M186.05,76.97c-11.21,12.83-28.23,33.11-30.06,35.16,.33,1.04,.55,2.12,.66,3.21,1.35,12.9-9.77,22.33-10.38,22.81-.87,.7-2.15,.56-2.85-.33-.24-.3-.39-.67-.43-1.05-.07-.69,.21-1.37,.76-1.8,.13-.1,12.01-10.18,8.6-17.07-.13-.26-.46-.56-.68-.57-4.8,9.47-11.51,15.29-11.98,15.75-.39,.38-.9,.58-1.44,.58-.54-.01-1.05-.23-1.43-.61-.3-.31-.49-.7-.57-1.21-.06-.61,.15-1.23,.61-1.67,.13-.13,7.85-6.38,10.78-15.67-.19-.16-1.23-.94-1.85-1.25-10.74,9.51-12.48,13.66-12.55,13.79-.27,.46-.71,.8-1.24,.94-.52,.13-1.07,.06-1.54-.22-.53-.31-.89-.83-.99-1.55-.05-.43,.05-.86,.27-1.22,.25-.44,2.24-5.89,12.17-14.1-5.21-2.29-6.41,.47-14.55,10.11-.72,.86-2,.97-2.86,.25-.37-.32-.61-.77-.69-1.24v-.1c-.07-.54,.11-1.09,.46-1.51,9.11-10.8,12.8-15.22,21.43-14.23,.36,.03,.71,0,1.03,.05,.09-.11,.21-.19,.32-.27,1.99-1.34,23.88-24.3,35.18-36.77-13.77-29.7-43.87-50.34-78.7-50.34-47.8,0-86.7,38.89-86.7,86.7s38.89,86.7,86.7,86.7,86.7-38.89,86.7-86.7c0-9.26-1.46-18.18-4.17-26.55Zm-46.98,18.27c.19,0,.38,.1,.47,.26,.09,.17,.11,.37,.02,.54-3.17,6.15-8.6,5.18-8.65,5.17-.05,0-.09-.01-.13-.04-.12-.05-.22-.16-.28-.28-.08-.16-.07-.35,.02-.51,3.06-5.17,8.31-5.14,8.55-5.14Zm-14.74-9.01c.95-1.97,2.44-4.45,2.46-4.48,.09-.19,.29-.31,.51-.33,.21-.01,.42,.09,.53,.28,5.98,9.38,.47,16.64,.42,16.71-.65,.99-.95,3.06-1.07,3.91-.04,.24-.21,.43-.45,.49-.16,.04-.32,.02-.45-.06-.07-.04-.13-.09-.18-.15-6.11-7.97-1.82-16.27-1.78-16.36Zm7.64,58.72l-12.91-8.16c-6.21-4.27-16.53-5.82-16.53-5.82-4.72-.62-11.15,11.91-11.15,11.91-8.06,12.19-20.61,2.17-20.61,2.17-7.15-5.21,.99-9.4,.82-9.47,4.55-2.41,2.67-5.67,2.67-5.67-2.35-3.77-4.13-.58-4.13-.58-2.31,2.86-9.47,3.46-9.47,3.46-12.13,1.11-16.84-9.47-16.84-9.47-3.9-8.07,3.71-12.48,3.71-12.48,2.97-2.01,1.79-4.95,1.79-4.95-1.8-3.26-12.71-4.75-12.71-4.75-9.26-3.19-8.95-13.72-8.95-13.72,.97-10.78,10.57-14.72,10.57-14.72,15.05-4.76,30.33,15.54,30.33,15.54-1.14-3.4-2.02-9.88-2.02-9.88-1.14-9.68,8.47-10.39,8.47-10.39,13.44,.35,16.35,15.88,16.35,15.88,1.44,8.09,6.73,10.41,6.73,10.41,5.67,1.83,6.29-4.44,6.29-4.44,1.36-8.14,5.26-7.21,5.26-7.21,9.51,.49,6.03,36.11,6.03,36.11-1.78,11.21,22.69,22.28,22.69,22.28l-6.41,3.95Z"/>
      </g>
    </g>
  </g>
</svg>